<svg xmlns="http://www.w3.org/2000/svg" xmlns:xlink="http://www.w3.org/1999/xlink" width="191" zoomAndPan="magnify" viewBox="0 0 143.25 143.249998" height="191" preserveAspectRatio="xMidYMid meet" version="1.0"><defs><g/><clipPath id="91daa659dd"><path d="M 0 0 L 142.503906 0 L 142.503906 142.503906 L 0 142.503906 Z M 0 0 " clip-rule="nonzero"/></clipPath><clipPath id="88f204f858"><path d="M 0.34375 0.550781 L 142.359375 0.550781 L 142.359375 142.5 L 0.34375 142.5 Z M 0.34375 0.550781 " clip-rule="nonzero"/></clipPath><clipPath id="611a665b1f"><path d="M 7.804688 0.550781 L 134.898438 0.550781 C 136.878906 0.550781 138.773438 1.335938 140.175781 2.734375 C 141.574219 4.132812 142.359375 6.03125 142.359375 8.011719 L 142.359375 135.039062 C 142.359375 137.015625 141.574219 138.914062 140.175781 140.3125 C 138.773438 141.710938 136.878906 142.5 134.898438 142.5 L 7.804688 142.5 C 5.824219 142.5 3.929688 141.710938 2.527344 140.3125 C 1.128906 138.914062 0.34375 137.015625 0.34375 135.039062 L 0.34375 8.011719 C 0.34375 6.03125 1.128906 4.132812 2.527344 2.734375 C 3.929688 1.335938 5.824219 0.550781 7.804688 0.550781 Z M 7.804688 0.550781 " clip-rule="nonzero"/></clipPath><clipPath id="21532a95b5"><path d="M 0.34375 0.550781 L 142.101562 0.550781 L 142.101562 142.308594 L 0.34375 142.308594 Z M 0.34375 0.550781 " clip-rule="nonzero"/></clipPath><clipPath id="e06d16cb6c"><path d="M 7.792969 0.550781 L 134.652344 0.550781 C 136.628906 0.550781 138.523438 1.335938 139.917969 2.730469 C 141.316406 4.128906 142.101562 6.023438 142.101562 8 L 142.101562 134.855469 C 142.101562 136.832031 141.316406 138.726562 139.917969 140.125 C 138.523438 141.523438 136.628906 142.308594 134.652344 142.308594 L 7.792969 142.308594 C 5.816406 142.308594 3.921875 141.523438 2.527344 140.125 C 1.128906 138.726562 0.34375 136.832031 0.34375 134.855469 L 0.34375 8 C 0.34375 6.023438 1.128906 4.128906 2.527344 2.730469 C 3.921875 1.335938 5.816406 0.550781 7.792969 0.550781 Z M 7.792969 0.550781 " clip-rule="nonzero"/></clipPath><clipPath id="b5d2fd86b1"><path d="M 17.925781 5.65625 L 57.894531 5.65625 L 57.894531 45.621094 L 17.925781 45.621094 Z M 17.925781 5.65625 " clip-rule="nonzero"/></clipPath><clipPath id="5e13bd0b00"><path d="M 37.910156 5.65625 C 26.875 5.65625 17.925781 14.601562 17.925781 25.640625 C 17.925781 36.675781 26.875 45.621094 37.910156 45.621094 C 48.945312 45.621094 57.894531 36.675781 57.894531 25.640625 C 57.894531 14.601562 48.945312 5.65625 37.910156 5.65625 Z M 37.910156 5.65625 " clip-rule="nonzero"/></clipPath><clipPath id="157cbb29bf"><path d="M 17.925781 51.488281 L 57.894531 51.488281 L 57.894531 91.457031 L 17.925781 91.457031 Z M 17.925781 51.488281 " clip-rule="nonzero"/></clipPath><clipPath id="d92fe05bee"><path d="M 37.910156 51.488281 C 26.875 51.488281 17.925781 60.4375 17.925781 71.472656 C 17.925781 82.507812 26.875 91.457031 37.910156 91.457031 C 48.945312 91.457031 57.894531 82.507812 57.894531 71.472656 C 57.894531 60.4375 48.945312 51.488281 37.910156 51.488281 Z M 37.910156 51.488281 " clip-rule="nonzero"/></clipPath><clipPath id="512e5c0432"><path d="M 17.925781 97.324219 L 57.894531 97.324219 L 57.894531 137.289062 L 17.925781 137.289062 Z M 17.925781 97.324219 " clip-rule="nonzero"/></clipPath><clipPath id="3757da34be"><path d="M 37.910156 97.324219 C 26.875 97.324219 17.925781 106.269531 17.925781 117.304688 C 17.925781 128.34375 26.875 137.289062 37.910156 137.289062 C 48.945312 137.289062 57.894531 128.34375 57.894531 117.304688 C 57.894531 106.269531 48.945312 97.324219 37.910156 97.324219 Z M 37.910156 97.324219 " clip-rule="nonzero"/></clipPath><clipPath id="20518af1d5"><path d="M 84.808594 5.65625 L 124.777344 5.65625 L 124.777344 45.621094 L 84.808594 45.621094 Z M 84.808594 5.65625 " clip-rule="nonzero"/></clipPath><clipPath id="3b2180651b"><path d="M 104.792969 5.65625 C 93.757812 5.65625 84.808594 14.601562 84.808594 25.640625 C 84.808594 36.675781 93.757812 45.621094 104.792969 45.621094 C 115.828125 45.621094 124.777344 36.675781 124.777344 25.640625 C 124.777344 14.601562 115.828125 5.65625 104.792969 5.65625 Z M 104.792969 5.65625 " clip-rule="nonzero"/></clipPath><clipPath id="ae0b53986f"><path d="M 84.808594 51.488281 L 124.777344 51.488281 L 124.777344 91.457031 L 84.808594 91.457031 Z M 84.808594 51.488281 " clip-rule="nonzero"/></clipPath><clipPath id="e8c0e22c63"><path d="M 104.792969 51.488281 C 93.757812 51.488281 84.808594 60.4375 84.808594 71.472656 C 84.808594 82.507812 93.757812 91.457031 104.792969 91.457031 C 115.828125 91.457031 124.777344 82.507812 124.777344 71.472656 C 124.777344 60.4375 115.828125 51.488281 104.792969 51.488281 Z M 104.792969 51.488281 " clip-rule="nonzero"/></clipPath><clipPath id="3e7451725f"><path d="M 84.808594 97.425781 L 124.777344 97.425781 L 124.777344 137.390625 L 84.808594 137.390625 Z M 84.808594 97.425781 " clip-rule="nonzero"/></clipPath><clipPath id="92579144a3"><path d="M 104.792969 97.425781 C 93.757812 97.425781 84.808594 106.371094 84.808594 117.40625 C 84.808594 128.445312 93.757812 137.390625 104.792969 137.390625 C 115.828125 137.390625 124.777344 128.445312 124.777344 117.40625 C 124.777344 106.371094 115.828125 97.425781 104.792969 97.425781 Z M 104.792969 97.425781 " clip-rule="nonzero"/></clipPath></defs><g clip-path="url(#91daa659dd)"><path fill="#ffffff" d="M 0 0 L 142.503906 0 L 142.503906 142.503906 L 0 142.503906 Z M 0 0 " fill-opacity="1" fill-rule="nonzero"/></g><g clip-path="url(#88f204f858)"><g clip-path="url(#611a665b1f)"><path fill="#ffffff" d="M 0.34375 0.550781 L 142.359375 0.550781 L 142.359375 142.5 L 0.34375 142.5 Z M 0.34375 0.550781 " fill-opacity="1" fill-rule="nonzero"/></g></g><g clip-path="url(#21532a95b5)"><g clip-path="url(#e06d16cb6c)"><path stroke-linecap="butt" transform="matrix(0.744746, 0, 0, 0.745113, 0.345579, 0.549571)" fill="none" stroke-linejoin="miter" d="M 9.999902 0.00162449 L 180.338949 0.00162449 C 182.992957 0.00162449 185.536818 1.055365 187.40931 2.926934 C 189.287047 4.803746 190.341307 7.346354 190.341307 9.999054 L 190.341307 180.248936 C 190.341307 182.901637 189.287047 185.444244 187.40931 187.321056 C 185.536818 189.197868 182.992957 190.251608 180.338949 190.251608 L 9.999902 190.251608 C 7.345894 190.251608 4.802033 189.197868 2.929541 187.321056 C 1.051805 185.444244 -0.00245552 182.901637 -0.00245552 180.248936 L -0.00245552 9.999054 C -0.00245552 7.346354 1.051805 4.803746 2.929541 2.926934 C 4.802033 1.055365 7.345894 0.00162449 9.999902 0.00162449 Z M 9.999902 0.00162449 " stroke="#000000" stroke-width="12" stroke-opacity="1" stroke-miterlimit="4"/></g></g><g clip-path="url(#b5d2fd86b1)"><g clip-path="url(#5e13bd0b00)"><path fill="#000000" d="M 17.925781 5.65625 L 57.894531 5.65625 L 57.894531 45.621094 L 17.925781 45.621094 Z M 17.925781 5.65625 " fill-opacity="1" fill-rule="nonzero"/></g></g><g fill="#000000" fill-opacity="1"><g transform="translate(37.116006, 25.801319)"><g><path d="M 0.109375 0 L 0.109375 -0.34375 L 0.625 -0.34375 L 0.625 -1.671875 L 0.59375 -1.6875 C 0.519531 -1.644531 0.445312 -1.613281 0.375 -1.59375 C 0.300781 -1.570312 0.222656 -1.554688 0.140625 -1.546875 L 0.140625 -1.90625 C 0.367188 -1.957031 0.554688 -2.03125 0.703125 -2.125 L 1.046875 -2.125 L 1.046875 -0.34375 L 1.5 -0.34375 L 1.5 0 Z M 0.109375 0 "/></g></g></g><g clip-path="url(#157cbb29bf)"><g clip-path="url(#d92fe05bee)"><path fill="#000000" d="M 17.925781 51.488281 L 57.894531 51.488281 L 57.894531 91.457031 L 17.925781 91.457031 Z M 17.925781 51.488281 " fill-opacity="1" fill-rule="nonzero"/></g></g><g fill="#000000" fill-opacity="1"><g transform="translate(37.116006, 71.634488)"><g><path d="M 0.109375 0 L 0.109375 -0.34375 L 0.625 -0.34375 L 0.625 -1.671875 L 0.59375 -1.6875 C 0.519531 -1.644531 0.445312 -1.613281 0.375 -1.59375 C 0.300781 -1.570312 0.222656 -1.554688 0.140625 -1.546875 L 0.140625 -1.90625 C 0.367188 -1.957031 0.554688 -2.03125 0.703125 -2.125 L 1.046875 -2.125 L 1.046875 -0.34375 L 1.5 -0.34375 L 1.5 0 Z M 0.109375 0 "/></g></g></g><g clip-path="url(#512e5c0432)"><g clip-path="url(#3757da34be)"><path fill="#000000" d="M 17.925781 97.324219 L 57.894531 97.324219 L 57.894531 137.289062 L 17.925781 137.289062 Z M 17.925781 97.324219 " fill-opacity="1" fill-rule="nonzero"/></g></g><g fill="#000000" fill-opacity="1"><g transform="translate(37.116006, 117.467648)"><g><path d="M 0.109375 0 L 0.109375 -0.34375 L 0.625 -0.34375 L 0.625 -1.671875 L 0.59375 -1.6875 C 0.519531 -1.644531 0.445312 -1.613281 0.375 -1.59375 C 0.300781 -1.570312 0.222656 -1.554688 0.140625 -1.546875 L 0.140625 -1.90625 C 0.367188 -1.957031 0.554688 -2.03125 0.703125 -2.125 L 1.046875 -2.125 L 1.046875 -0.34375 L 1.5 -0.34375 L 1.5 0 Z M 0.109375 0 "/></g></g></g><g clip-path="url(#20518af1d5)"><g clip-path="url(#3b2180651b)"><path fill="#000000" d="M 84.808594 5.65625 L 124.777344 5.65625 L 124.777344 45.621094 L 84.808594 45.621094 Z M 84.808594 5.65625 " fill-opacity="1" fill-rule="nonzero"/></g></g><g fill="#000000" fill-opacity="1"><g transform="translate(103.998395, 25.801319)"><g><path d="M 0.109375 0 L 0.109375 -0.34375 L 0.625 -0.34375 L 0.625 -1.671875 L 0.59375 -1.6875 C 0.519531 -1.644531 0.445312 -1.613281 0.375 -1.59375 C 0.300781 -1.570312 0.222656 -1.554688 0.140625 -1.546875 L 0.140625 -1.90625 C 0.367188 -1.957031 0.554688 -2.03125 0.703125 -2.125 L 1.046875 -2.125 L 1.046875 -0.34375 L 1.5 -0.34375 L 1.5 0 Z M 0.109375 0 "/></g></g></g><g clip-path="url(#ae0b53986f)"><g clip-path="url(#e8c0e22c63)"><path fill="#000000" d="M 84.808594 51.488281 L 124.777344 51.488281 L 124.777344 91.457031 L 84.808594 91.457031 Z M 84.808594 51.488281 " fill-opacity="1" fill-rule="nonzero"/></g></g><g fill="#000000" fill-opacity="1"><g transform="translate(103.998395, 71.634488)"><g><path d="M 0.109375 0 L 0.109375 -0.34375 L 0.625 -0.34375 L 0.625 -1.671875 L 0.59375 -1.6875 C 0.519531 -1.644531 0.445312 -1.613281 0.375 -1.59375 C 0.300781 -1.570312 0.222656 -1.554688 0.140625 -1.546875 L 0.140625 -1.90625 C 0.367188 -1.957031 0.554688 -2.03125 0.703125 -2.125 L 1.046875 -2.125 L 1.046875 -0.34375 L 1.5 -0.34375 L 1.5 0 Z M 0.109375 0 "/></g></g></g><g clip-path="url(#3e7451725f)"><g clip-path="url(#92579144a3)"><path fill="#000000" d="M 84.808594 97.425781 L 124.777344 97.425781 L 124.777344 137.390625 L 84.808594 137.390625 Z M 84.808594 97.425781 " fill-opacity="1" fill-rule="nonzero"/></g></g><g fill="#000000" fill-opacity="1"><g transform="translate(103.998395, 117.569324)"><g><path d="M 0.109375 0 L 0.109375 -0.34375 L 0.625 -0.34375 L 0.625 -1.671875 L 0.59375 -1.6875 C 0.519531 -1.644531 0.445312 -1.613281 0.375 -1.59375 C 0.300781 -1.570312 0.222656 -1.554688 0.140625 -1.546875 L 0.140625 -1.90625 C 0.367188 -1.957031 0.554688 -2.03125 0.703125 -2.125 L 1.046875 -2.125 L 1.046875 -0.34375 L 1.5 -0.34375 L 1.5 0 Z M 0.109375 0 "/></g></g></g></svg>