<svg xmlns="http://www.w3.org/2000/svg" xmlns:xlink="http://www.w3.org/1999/xlink" width="191" zoomAndPan="magnify" viewBox="0 0 143.25 143.249998" height="191" preserveAspectRatio="xMidYMid meet" version="1.0"><defs><g/><clipPath id="b83e7284f3"><path d="M 0 0 L 142.503906 0 L 142.503906 142.503906 L 0 142.503906 Z M 0 0 " clip-rule="nonzero"/></clipPath><clipPath id="6ab63e32e5"><path d="M 0.34375 0.550781 L 142.359375 0.550781 L 142.359375 142.5 L 0.34375 142.5 Z M 0.34375 0.550781 " clip-rule="nonzero"/></clipPath><clipPath id="469617a733"><path d="M 7.804688 0.550781 L 134.898438 0.550781 C 136.878906 0.550781 138.773438 1.335938 140.175781 2.734375 C 141.574219 4.132812 142.359375 6.03125 142.359375 8.011719 L 142.359375 135.039062 C 142.359375 137.015625 141.574219 138.914062 140.175781 140.3125 C 138.773438 141.710938 136.878906 142.5 134.898438 142.5 L 7.804688 142.5 C 5.824219 142.5 3.929688 141.710938 2.527344 140.3125 C 1.128906 138.914062 0.34375 137.015625 0.34375 135.039062 L 0.34375 8.011719 C 0.34375 6.03125 1.128906 4.132812 2.527344 2.734375 C 3.929688 1.335938 5.824219 0.550781 7.804688 0.550781 Z M 7.804688 0.550781 " clip-rule="nonzero"/></clipPath><clipPath id="84a94ffc83"><path d="M 0.347656 0.550781 L 141.488281 0.550781 L 141.488281 141.695312 L 0.347656 141.695312 Z M 0.347656 0.550781 " clip-rule="nonzero"/></clipPath><clipPath id="17e1cd62a2"><path d="M 7.761719 0.550781 L 134.070312 0.550781 C 136.039062 0.550781 137.925781 1.332031 139.316406 2.722656 C 140.707031 4.113281 141.488281 6 141.488281 7.96875 L 141.488281 134.277344 C 141.488281 136.242188 140.707031 138.132812 139.316406 139.523438 C 137.925781 140.914062 136.039062 141.695312 134.070312 141.695312 L 7.761719 141.695312 C 5.796875 141.695312 3.910156 140.914062 2.519531 139.523438 C 1.128906 138.132812 0.347656 136.242188 0.347656 134.277344 L 0.347656 7.96875 C 0.347656 6 1.128906 4.113281 2.519531 2.722656 C 3.910156 1.332031 5.796875 0.550781 7.761719 0.550781 Z M 7.761719 0.550781 " clip-rule="nonzero"/></clipPath><clipPath id="db0eb6b12c"><path d="M 51.367188 51.539062 L 91.335938 51.539062 L 91.335938 91.507812 L 51.367188 91.507812 Z M 51.367188 51.539062 " clip-rule="nonzero"/></clipPath><clipPath id="697e9b5a50"><path d="M 71.351562 51.539062 C 60.316406 51.539062 51.367188 60.488281 51.367188 71.523438 C 51.367188 82.558594 60.316406 91.507812 71.351562 91.507812 C 82.386719 91.507812 91.335938 82.558594 91.335938 71.523438 C 91.335938 60.488281 82.386719 51.539062 71.351562 51.539062 Z M 71.351562 51.539062 " clip-rule="nonzero"/></clipPath></defs><g clip-path="url(#b83e7284f3)"><path fill="#ffffff" d="M 0 0 L 142.503906 0 L 142.503906 142.503906 L 0 142.503906 Z M 0 0 " fill-opacity="1" fill-rule="nonzero"/></g><g clip-path="url(#6ab63e32e5)"><g clip-path="url(#469617a733)"><path fill="#ffffff" d="M 0.34375 0.550781 L 142.359375 0.550781 L 142.359375 142.5 L 0.34375 142.5 Z M 0.34375 0.550781 " fill-opacity="1" fill-rule="nonzero"/></g></g><g clip-path="url(#84a94ffc83)"><g clip-path="url(#17e1cd62a2)"><path stroke-linecap="butt" transform="matrix(2.299726, 0, 0, 2.300897, 0.346746, 0.549571)" fill="none" stroke-linejoin="miter" d="M 3.224286 0.000526069 L 58.147616 0.000526069 C 59.003696 0.000526069 59.824106 0.340068 60.428798 0.944451 C 61.03349 1.548835 61.373204 2.368828 61.373204 3.224472 L 61.373204 58.119839 C 61.373204 58.973786 61.03349 59.795476 60.428798 60.39986 C 59.824106 61.004244 59.003696 61.343785 58.147616 61.343785 L 3.224286 61.343785 C 2.369904 61.343785 1.549493 61.004244 0.944802 60.39986 C 0.34011 59.795476 0.000395626 58.973786 0.000395626 58.119839 L 0.000395626 3.224472 C 0.000395626 2.368828 0.34011 1.548835 0.944802 0.944451 C 1.549493 0.340068 2.369904 0.000526069 3.224286 0.000526069 Z M 3.224286 0.000526069 " stroke="#000000" stroke-width="3.86934" stroke-opacity="1" stroke-miterlimit="4"/></g></g><g clip-path="url(#db0eb6b12c)"><g clip-path="url(#697e9b5a50)"><path fill="#000000" d="M 51.367188 51.539062 L 91.335938 51.539062 L 91.335938 91.507812 L 51.367188 91.507812 Z M 51.367188 51.539062 " fill-opacity="1" fill-rule="nonzero"/></g></g><g fill="#000000" fill-opacity="1"><g transform="translate(70.530282, 70.051698)"><g><path d="M 0.109375 0 L 0.109375 -0.34375 L 0.625 -0.34375 L 0.625 -1.671875 L 0.59375 -1.671875 C 0.519531 -1.640625 0.445312 -1.613281 0.375 -1.59375 C 0.300781 -1.570312 0.222656 -1.554688 0.140625 -1.546875 L 0.140625 -1.90625 C 0.367188 -1.945312 0.554688 -2.019531 0.703125 -2.125 L 1.03125 -2.125 L 1.03125 -0.34375 L 1.5 -0.34375 L 1.5 0 Z M 0.109375 0 "/></g></g></g></svg>