<svg xmlns="http://www.w3.org/2000/svg" xmlns:xlink="http://www.w3.org/1999/xlink" width="191" zoomAndPan="magnify" viewBox="0 0 143.25 143.249998" height="191" preserveAspectRatio="xMidYMid meet" version="1.0"><defs><g/><clipPath id="d21c4b2db0"><path d="M 0 0 L 142.503906 0 L 142.503906 142.503906 L 0 142.503906 Z M 0 0 " clip-rule="nonzero"/></clipPath><clipPath id="4acc33dfe5"><path d="M 0.34375 0.550781 L 142.359375 0.550781 L 142.359375 142.5 L 0.34375 142.5 Z M 0.34375 0.550781 " clip-rule="nonzero"/></clipPath><clipPath id="ddeb30dfd0"><path d="M 7.804688 0.550781 L 134.898438 0.550781 C 136.878906 0.550781 138.773438 1.335938 140.175781 2.734375 C 141.574219 4.132812 142.359375 6.03125 142.359375 8.011719 L 142.359375 135.039062 C 142.359375 137.015625 141.574219 138.914062 140.175781 140.3125 C 138.773438 141.710938 136.878906 142.5 134.898438 142.5 L 7.804688 142.5 C 5.824219 142.5 3.929688 141.710938 2.527344 140.3125 C 1.128906 138.914062 0.34375 137.015625 0.34375 135.039062 L 0.34375 8.011719 C 0.34375 6.03125 1.128906 4.132812 2.527344 2.734375 C 3.929688 1.335938 5.824219 0.550781 7.804688 0.550781 Z M 7.804688 0.550781 " clip-rule="nonzero"/></clipPath><clipPath id="2659a21d46"><path d="M 0.34375 0.550781 L 142.101562 0.550781 L 142.101562 142.308594 L 0.34375 142.308594 Z M 0.34375 0.550781 " clip-rule="nonzero"/></clipPath><clipPath id="02d7a5ecaf"><path d="M 7.792969 0.550781 L 134.652344 0.550781 C 136.628906 0.550781 138.523438 1.335938 139.917969 2.730469 C 141.316406 4.128906 142.101562 6.023438 142.101562 8 L 142.101562 134.855469 C 142.101562 136.832031 141.316406 138.726562 139.917969 140.125 C 138.523438 141.523438 136.628906 142.308594 134.652344 142.308594 L 7.792969 142.308594 C 5.816406 142.308594 3.921875 141.523438 2.527344 140.125 C 1.128906 138.726562 0.34375 136.832031 0.34375 134.855469 L 0.34375 8 C 0.34375 6.023438 1.128906 4.128906 2.527344 2.730469 C 3.921875 1.335938 5.816406 0.550781 7.792969 0.550781 Z M 7.792969 0.550781 " clip-rule="nonzero"/></clipPath><clipPath id="a981529189"><path d="M 11.9375 11.574219 L 51.902344 11.574219 L 51.902344 51.539062 L 11.9375 51.539062 Z M 11.9375 11.574219 " clip-rule="nonzero"/></clipPath><clipPath id="05d1ffee45"><path d="M 31.921875 11.574219 C 20.882812 11.574219 11.9375 20.519531 11.9375 31.558594 C 11.9375 42.59375 20.882812 51.539062 31.921875 51.539062 C 42.957031 51.539062 51.902344 42.59375 51.902344 31.558594 C 51.902344 20.519531 42.957031 11.574219 31.921875 11.574219 Z M 31.921875 11.574219 " clip-rule="nonzero"/></clipPath><clipPath id="8e13a75575"><path d="M 11.9375 91.507812 L 51.902344 91.507812 L 51.902344 131.472656 L 11.9375 131.472656 Z M 11.9375 91.507812 " clip-rule="nonzero"/></clipPath><clipPath id="7b9990f84f"><path d="M 31.921875 91.507812 C 20.882812 91.507812 11.9375 100.453125 11.9375 111.488281 C 11.9375 122.527344 20.882812 131.472656 31.921875 131.472656 C 42.957031 131.472656 51.902344 122.527344 51.902344 111.488281 C 51.902344 100.453125 42.957031 91.507812 31.921875 91.507812 Z M 31.921875 91.507812 " clip-rule="nonzero"/></clipPath><clipPath id="fa33b48564"><path d="M 91.871094 91.507812 L 131.835938 91.507812 L 131.835938 131.472656 L 91.871094 131.472656 Z M 91.871094 91.507812 " clip-rule="nonzero"/></clipPath><clipPath id="d68714f5c5"><path d="M 111.851562 91.507812 C 100.816406 91.507812 91.871094 100.453125 91.871094 111.488281 C 91.871094 122.527344 100.816406 131.472656 111.851562 131.472656 C 122.890625 131.472656 131.835938 122.527344 131.835938 111.488281 C 131.835938 100.453125 122.890625 91.507812 111.851562 91.507812 Z M 111.851562 91.507812 " clip-rule="nonzero"/></clipPath><clipPath id="7120fcd138"><path d="M 91.871094 11.574219 L 131.835938 11.574219 L 131.835938 51.539062 L 91.871094 51.539062 Z M 91.871094 11.574219 " clip-rule="nonzero"/></clipPath><clipPath id="b0670ebd8e"><path d="M 111.851562 11.574219 C 100.816406 11.574219 91.871094 20.519531 91.871094 31.558594 C 91.871094 42.59375 100.816406 51.539062 111.851562 51.539062 C 122.890625 51.539062 131.835938 42.59375 131.835938 31.558594 C 131.835938 20.519531 122.890625 11.574219 111.851562 11.574219 Z M 111.851562 11.574219 " clip-rule="nonzero"/></clipPath><clipPath id="8e1373e022"><path d="M 51.902344 51.539062 L 91.871094 51.539062 L 91.871094 91.507812 L 51.902344 91.507812 Z M 51.902344 51.539062 " clip-rule="nonzero"/></clipPath><clipPath id="c006e3ef8c"><path d="M 71.886719 51.539062 C 60.851562 51.539062 51.902344 60.488281 51.902344 71.523438 C 51.902344 82.558594 60.851562 91.507812 71.886719 91.507812 C 82.921875 91.507812 91.871094 82.558594 91.871094 71.523438 C 91.871094 60.488281 82.921875 51.539062 71.886719 51.539062 Z M 71.886719 51.539062 " clip-rule="nonzero"/></clipPath></defs><g clip-path="url(#d21c4b2db0)"><path fill="#ffffff" d="M 0 0 L 142.503906 0 L 142.503906 142.503906 L 0 142.503906 Z M 0 0 " fill-opacity="1" fill-rule="nonzero"/></g><g clip-path="url(#4acc33dfe5)"><g clip-path="url(#ddeb30dfd0)"><path fill="#ffffff" d="M 0.34375 0.550781 L 142.359375 0.550781 L 142.359375 142.5 L 0.34375 142.5 Z M 0.34375 0.550781 " fill-opacity="1" fill-rule="nonzero"/></g></g><g clip-path="url(#2659a21d46)"><g clip-path="url(#02d7a5ecaf)"><path stroke-linecap="butt" transform="matrix(0.744746, 0, 0, 0.745113, 0.345579, 0.549571)" fill="none" stroke-linejoin="miter" d="M 9.999902 0.00162449 L 180.338949 0.00162449 C 182.992957 0.00162449 185.536818 1.055365 187.40931 2.926934 C 189.287047 4.803746 190.341307 7.346354 190.341307 9.999054 L 190.341307 180.248936 C 190.341307 182.901637 189.287047 185.444244 187.40931 187.321056 C 185.536818 189.197868 182.992957 190.251608 180.338949 190.251608 L 9.999902 190.251608 C 7.345894 190.251608 4.802033 189.197868 2.929541 187.321056 C 1.051805 185.444244 -0.00245552 182.901637 -0.00245552 180.248936 L -0.00245552 9.999054 C -0.00245552 7.346354 1.051805 4.803746 2.929541 2.926934 C 4.802033 1.055365 7.345894 0.00162449 9.999902 0.00162449 Z M 9.999902 0.00162449 " stroke="#000000" stroke-width="12" stroke-opacity="1" stroke-miterlimit="4"/></g></g><g clip-path="url(#a981529189)"><g clip-path="url(#05d1ffee45)"><path fill="#000000" d="M 11.9375 11.574219 L 51.902344 11.574219 L 51.902344 51.539062 L 11.9375 51.539062 Z M 11.9375 11.574219 " fill-opacity="1" fill-rule="nonzero"/></g></g><g fill="#000000" fill-opacity="1"><g transform="translate(31.126098, 31.719231)"><g><path d="M 0.109375 0 L 0.109375 -0.34375 L 0.625 -0.34375 L 0.625 -1.671875 L 0.59375 -1.6875 C 0.519531 -1.644531 0.445312 -1.613281 0.375 -1.59375 C 0.300781 -1.570312 0.222656 -1.554688 0.140625 -1.546875 L 0.140625 -1.90625 C 0.367188 -1.957031 0.554688 -2.03125 0.703125 -2.125 L 1.046875 -2.125 L 1.046875 -0.34375 L 1.5 -0.34375 L 1.5 0 Z M 0.109375 0 "/></g></g></g><g clip-path="url(#8e13a75575)"><g clip-path="url(#7b9990f84f)"><path fill="#000000" d="M 11.9375 91.507812 L 51.902344 91.507812 L 51.902344 131.472656 L 11.9375 131.472656 Z M 11.9375 91.507812 " fill-opacity="1" fill-rule="nonzero"/></g></g><g fill="#000000" fill-opacity="1"><g transform="translate(31.126098, 111.651424)"><g><path d="M 0.109375 0 L 0.109375 -0.34375 L 0.625 -0.34375 L 0.625 -1.671875 L 0.59375 -1.6875 C 0.519531 -1.644531 0.445312 -1.613281 0.375 -1.59375 C 0.300781 -1.570312 0.222656 -1.554688 0.140625 -1.546875 L 0.140625 -1.90625 C 0.367188 -1.957031 0.554688 -2.03125 0.703125 -2.125 L 1.046875 -2.125 L 1.046875 -0.34375 L 1.5 -0.34375 L 1.5 0 Z M 0.109375 0 "/></g></g></g><g clip-path="url(#fa33b48564)"><g clip-path="url(#d68714f5c5)"><path fill="#000000" d="M 91.871094 91.507812 L 131.835938 91.507812 L 131.835938 131.472656 L 91.871094 131.472656 Z M 91.871094 91.507812 " fill-opacity="1" fill-rule="nonzero"/></g></g><g fill="#000000" fill-opacity="1"><g transform="translate(111.058295, 111.651424)"><g><path d="M 0.109375 0 L 0.109375 -0.34375 L 0.625 -0.34375 L 0.625 -1.671875 L 0.59375 -1.6875 C 0.519531 -1.644531 0.445312 -1.613281 0.375 -1.59375 C 0.300781 -1.570312 0.222656 -1.554688 0.140625 -1.546875 L 0.140625 -1.90625 C 0.367188 -1.957031 0.554688 -2.03125 0.703125 -2.125 L 1.046875 -2.125 L 1.046875 -0.34375 L 1.5 -0.34375 L 1.5 0 Z M 0.109375 0 "/></g></g></g><g clip-path="url(#7120fcd138)"><g clip-path="url(#b0670ebd8e)"><path fill="#000000" d="M 91.871094 11.574219 L 131.835938 11.574219 L 131.835938 51.539062 L 91.871094 51.539062 Z M 91.871094 11.574219 " fill-opacity="1" fill-rule="nonzero"/></g></g><g fill="#000000" fill-opacity="1"><g transform="translate(111.058295, 31.719231)"><g><path d="M 0.109375 0 L 0.109375 -0.34375 L 0.625 -0.34375 L 0.625 -1.671875 L 0.59375 -1.6875 C 0.519531 -1.644531 0.445312 -1.613281 0.375 -1.59375 C 0.300781 -1.570312 0.222656 -1.554688 0.140625 -1.546875 L 0.140625 -1.90625 C 0.367188 -1.957031 0.554688 -2.03125 0.703125 -2.125 L 1.046875 -2.125 L 1.046875 -0.34375 L 1.5 -0.34375 L 1.5 0 Z M 0.109375 0 "/></g></g></g><g clip-path="url(#8e1373e022)"><g clip-path="url(#c006e3ef8c)"><path fill="#000000" d="M 51.902344 51.539062 L 91.871094 51.539062 L 91.871094 91.507812 L 51.902344 91.507812 Z M 51.902344 51.539062 " fill-opacity="1" fill-rule="nonzero"/></g></g><g fill="#000000" fill-opacity="1"><g transform="translate(71.092196, 71.685323)"><g><path d="M 0.109375 0 L 0.109375 -0.34375 L 0.625 -0.34375 L 0.625 -1.671875 L 0.59375 -1.6875 C 0.519531 -1.644531 0.445312 -1.613281 0.375 -1.59375 C 0.300781 -1.570312 0.222656 -1.554688 0.140625 -1.546875 L 0.140625 -1.90625 C 0.367188 -1.957031 0.554688 -2.03125 0.703125 -2.125 L 1.046875 -2.125 L 1.046875 -0.34375 L 1.5 -0.34375 L 1.5 0 Z M 0.109375 0 "/></g></g></g></svg>