<svg xmlns="http://www.w3.org/2000/svg" xmlns:xlink="http://www.w3.org/1999/xlink" width="340" zoomAndPan="magnify" viewBox="0 0 255 254.999984" height="340" preserveAspectRatio="xMidYMid meet" version="1.0"><defs><g/><clipPath id="91e1e73af7"><path d="M 101.683594 0.0273438 L 153.300781 0.0273438 L 153.300781 51.496094 L 101.683594 51.496094 Z M 101.683594 0.0273438 " clip-rule="nonzero"/></clipPath><clipPath id="d077ceab9a"><path d="M 127.492188 51.496094 L 101.683594 0.0273438 L 153.300781 0.0273438 Z M 127.492188 51.496094 " clip-rule="nonzero"/></clipPath><clipPath id="5cfb8fe8fb"><path d="M 29 29 L 226 29 L 226 226 L 29 226 Z M 29 29 " clip-rule="nonzero"/></clipPath><clipPath id="662cd5ccdf"><path d="M 180.289062 254.925781 L 0.046875 180.269531 L 74.707031 0.03125 L 254.945312 74.6875 Z M 180.289062 254.925781 " clip-rule="nonzero"/></clipPath><clipPath id="655a464dab"><path d="M 90.167969 217.597656 C 139.941406 238.214844 197 214.578125 217.617188 164.808594 C 238.234375 115.035156 214.597656 57.976562 164.824219 37.359375 C 115.054688 16.742188 57.992188 40.378906 37.378906 90.148438 C 16.761719 139.921875 40.398438 196.984375 90.167969 217.597656 Z M 90.167969 217.597656 " clip-rule="nonzero"/></clipPath><clipPath id="7a9fb54a6f"><path d="M 29 30 L 226 30 L 226 226 L 29 226 Z M 29 30 " clip-rule="nonzero"/></clipPath><clipPath id="5360ab4ea7"><path d="M 180.289062 254.925781 L 0.132812 180.304688 L 74.753906 0.148438 L 254.910156 74.769531 Z M 180.289062 254.925781 " clip-rule="nonzero"/></clipPath><clipPath id="ebd85870f8"><path d="M 180.289062 254.925781 L 0.132812 180.304688 L 74.753906 0.148438 L 254.910156 74.769531 Z M 180.289062 254.925781 " clip-rule="nonzero"/></clipPath><clipPath id="91b6ec8463"><path d="M 90.210938 217.617188 C 139.957031 238.222656 196.992188 214.597656 217.601562 164.847656 C 238.207031 115.101562 214.582031 58.066406 164.832031 37.460938 C 115.085938 16.851562 58.050781 40.476562 37.441406 90.226562 C 16.835938 139.976562 40.460938 197.007812 90.210938 217.617188 Z M 90.210938 217.617188 " clip-rule="nonzero"/></clipPath></defs><rect x="-25.5" width="306" fill="#ffffff" y="-25.499998" height="305.999981" fill-opacity="1"/><g clip-path="url(#91e1e73af7)"><g clip-path="url(#d077ceab9a)"><path fill="#262626" d="M 153.300781 51.496094 L 101.683594 51.496094 L 101.683594 0.0273438 L 153.300781 0.0273438 Z M 153.300781 51.496094 " fill-opacity="1" fill-rule="nonzero"/></g></g><g clip-path="url(#5cfb8fe8fb)"><g clip-path="url(#662cd5ccdf)"><g clip-path="url(#655a464dab)"><path fill="#ffffff" d="M 180.289062 254.925781 L 0.046875 180.269531 L 74.707031 0.03125 L 254.945312 74.6875 Z M 180.289062 254.925781 " fill-opacity="1" fill-rule="nonzero"/></g></g></g><g clip-path="url(#7a9fb54a6f)"><g clip-path="url(#5360ab4ea7)"><g clip-path="url(#ebd85870f8)"><g clip-path="url(#91b6ec8463)"><path stroke-linecap="butt" transform="matrix(-0.692618, -0.286892, 0.286892, -0.692618, 180.288124, 254.927716)" fill="none" stroke-linejoin="miter" d="M 130.052817 -0.000815066 C 58.229584 -0.000769694 0.00147014 58.227803 -0.00130441 130.057844 C -0.00125903 201.881077 58.227314 260.109191 130.055361 260.107152 C 201.880588 260.111921 260.108702 201.883348 260.111477 130.053306 C 260.109437 58.225259 201.882858 0.00195948 130.052817 -0.000815066 Z M 130.052817 -0.000815066 " stroke="#000000" stroke-width="12" stroke-opacity="1" stroke-miterlimit="4"/></g></g></g></g><path stroke-linecap="butt" transform="matrix(-0.286892, 0.692618, -0.69291, -0.287013, 166.905372, 38.2331)" fill="none" stroke-linejoin="miter" d="M -0.00195004 2.998669 L 260.119633 3.001764 " stroke="#000000" stroke-width="6" stroke-opacity="1" stroke-miterlimit="4"/><path stroke-linecap="butt" transform="matrix(0.692618, 0.286892, -0.287013, 0.69291, 39.239656, 85.678956)" fill="none" stroke-linejoin="miter" d="M 0.000420015 3.00001 L 260.120009 2.998293 " stroke="#000000" stroke-width="6" stroke-opacity="1" stroke-miterlimit="4"/><path stroke-linecap="butt" transform="matrix(0.286892, 0.692618, -0.69291, 0.287013, 92.250723, 36.511026)" fill="none" stroke-linejoin="miter" d="M -0.00125637 2.999652 L 260.118332 3.00137 " stroke="#000000" stroke-width="6" stroke-opacity="1" stroke-miterlimit="4"/><path stroke-linecap="butt" transform="matrix(0.692618, -0.286892, 0.287013, 0.69291, 35.52671, 160.33361)" fill="none" stroke-linejoin="miter" d="M -0.00214743 3.001599 L 260.119435 2.998504 " stroke="#000000" stroke-width="6" stroke-opacity="1" stroke-miterlimit="4"/><g fill="#000000" fill-opacity="1"><g transform="translate(138.41677, 183.343483)"><g><path d="M -16.765625 15.453125 L -16.765625 15.375 C -18.160156 14.882812 -19.238281 14.054688 -20 12.890625 C -20.769531 11.734375 -21.15625 10.304688 -21.15625 8.609375 C -21.15625 6.804688 -20.726562 5.191406 -19.875 3.765625 C -19.03125 2.347656 -17.859375 1.234375 -16.359375 0.421875 C -14.859375 -0.378906 -13.148438 -0.78125 -11.234375 -0.78125 C -8.066406 -0.78125 -5.585938 0.03125 -3.796875 1.65625 C -2.003906 3.28125 -1.109375 5.707031 -1.109375 8.9375 L -6.6875 8.9375 C -6.6875 7.269531 -7.050781 6 -7.78125 5.125 C -8.519531 4.25 -9.578125 3.8125 -10.953125 3.8125 C -12.148438 3.8125 -13.164062 4.226562 -14 5.0625 C -14.832031 5.894531 -15.25 7.078125 -15.25 8.609375 C -15.25 10.003906 -14.765625 11.039062 -13.796875 11.71875 C -12.828125 12.40625 -11.359375 12.75 -9.390625 12.75 L -8.734375 12.75 L -8.734375 16.84375 L -9.765625 16.84375 C -11.429688 16.84375 -12.640625 17.164062 -13.390625 17.8125 C -14.140625 18.457031 -14.515625 19.4375 -14.515625 20.75 C -14.515625 21.894531 -14.191406 22.804688 -13.546875 23.484375 C -12.910156 24.171875 -12.015625 24.515625 -10.859375 24.515625 C -9.578125 24.515625 -8.597656 24.117188 -7.921875 23.328125 C -7.253906 22.535156 -6.921875 21.398438 -6.921875 19.921875 L -6.921875 19.765625 L -1.59375 19.765625 C -1.625 22.796875 -2.492188 25.109375 -4.203125 26.703125 C -5.910156 28.304688 -8.238281 29.109375 -11.1875 29.109375 C -12.914062 29.109375 -14.460938 28.785156 -15.828125 28.140625 C -17.191406 27.503906 -18.269531 26.578125 -19.0625 25.359375 C -19.851562 24.140625 -20.25 22.695312 -20.25 21.03125 C -20.25 19.769531 -19.941406 18.65625 -19.328125 17.6875 C -18.710938 16.71875 -17.859375 15.972656 -16.765625 15.453125 Z M -16.765625 15.453125 "/></g></g></g><g fill="#000000" fill-opacity="1"><g transform="translate(96.405084, 175.382917)"><g><path d="M -22.96875 -7.53125 L -19.796875 -10.703125 L -17.5 -8.40625 L -12.953125 -12.953125 L -8.90625 -8.90625 L -13.453125 -4.359375 L -5.328125 3.765625 L -8.828125 7.265625 L -28.9375 12.21875 L -33.53125 7.625 L -20.671875 -5.234375 Z M -25.53125 7.5625 L -25.46875 7.625 L -11.484375 3.953125 L -16.625 -1.1875 C -19.207031 1.394531 -22.175781 4.3125 -25.53125 7.5625 Z M -25.53125 7.5625 "/></g></g></g><g fill="#000000" fill-opacity="1"><g transform="translate(72.467052, 136.030903)"><g><path d="M -23.78125 -8.15625 L -17.46875 -7.140625 C -18.125 -8.148438 -18.550781 -8.972656 -18.75 -9.609375 C -18.957031 -10.253906 -19.0625 -11.148438 -19.0625 -12.296875 C -19.0625 -13.910156 -18.6875 -15.394531 -17.9375 -16.75 C -17.1875 -18.101562 -16.097656 -19.175781 -14.671875 -19.96875 C -13.253906 -20.757812 -11.585938 -21.15625 -9.671875 -21.15625 C -7.679688 -21.15625 -5.890625 -20.738281 -4.296875 -19.90625 C -2.710938 -19.070312 -1.46875 -17.878906 -0.5625 -16.328125 C 0.332031 -14.785156 0.78125 -12.992188 0.78125 -10.953125 C 0.78125 -8.078125 0.0078125 -5.742188 -1.53125 -3.953125 C -3.082031 -2.160156 -5.171875 -1.210938 -7.796875 -1.109375 L -7.796875 -6.84375 C -5.140625 -7.175781 -3.8125 -8.53125 -3.8125 -10.90625 C -3.8125 -12.269531 -4.316406 -13.332031 -5.328125 -14.09375 C -6.335938 -14.863281 -7.648438 -15.25 -9.265625 -15.25 C -10.765625 -15.25 -12.003906 -14.863281 -12.984375 -14.09375 C -13.972656 -13.332031 -14.46875 -12.296875 -14.46875 -10.984375 C -14.46875 -10.054688 -14.273438 -9.265625 -13.890625 -8.609375 C -13.515625 -7.953125 -13.007812 -7.460938 -12.375 -7.140625 L -12.625 -2.015625 L -28.625 -4.015625 L -28.625 -20.015625 L -23.78125 -20.015625 Z M -23.78125 -8.15625 "/></g></g></g><g fill="#000000" fill-opacity="1"><g transform="translate(80.501087, 93.842073)"><g><path d="M -9.0625 -25.59375 C -10.113281 -24.539062 -10.453125 -23.269531 -10.078125 -21.78125 C -9.710938 -20.300781 -8.613281 -18.550781 -6.78125 -16.53125 L -6.671875 -16.515625 C -7.066406 -18.390625 -6.347656 -20.242188 -4.515625 -22.078125 C -3.296875 -23.296875 -1.929688 -24.109375 -0.421875 -24.515625 C 1.078125 -24.929688 2.570312 -24.914062 4.0625 -24.46875 C 5.5625 -24.03125 6.910156 -23.210938 8.109375 -22.015625 C 9.554688 -20.566406 10.570312 -18.992188 11.15625 -17.296875 C 11.738281 -15.597656 11.84375 -13.925781 11.46875 -12.28125 C 11.09375 -10.632812 10.238281 -9.144531 8.90625 -7.8125 C 6.425781 -5.332031 3.71875 -4.304688 0.78125 -4.734375 C -2.144531 -5.171875 -5.375 -7.15625 -8.90625 -10.6875 C -12.570312 -14.351562 -14.644531 -17.707031 -15.125 -20.75 C -15.601562 -23.789062 -14.582031 -26.570312 -12.0625 -29.09375 C -8.332031 -32.675781 -4.546875 -32.992188 -0.703125 -30.046875 L -4.734375 -26.015625 C -5.421875 -26.554688 -6.128906 -26.804688 -6.859375 -26.765625 C -7.585938 -26.722656 -8.320312 -26.332031 -9.0625 -25.59375 Z M 4.40625 -17.625 C 3.34375 -18.6875 2.210938 -19.238281 1.015625 -19.28125 C -0.171875 -19.332031 -1.1875 -18.9375 -2.03125 -18.09375 C -2.9375 -17.1875 -3.359375 -16.128906 -3.296875 -14.921875 C -3.242188 -13.722656 -2.664062 -12.570312 -1.5625 -11.46875 C -0.445312 -10.351562 0.757812 -9.734375 2.0625 -9.609375 C 3.375 -9.492188 4.507812 -9.914062 5.46875 -10.875 C 6.34375 -11.75 6.6875 -12.785156 6.5 -13.984375 C 6.320312 -15.191406 5.625 -16.40625 4.40625 -17.625 Z M 4.40625 -17.625 "/></g></g></g><g fill="#000000" fill-opacity="1"><g transform="translate(116.251606, 72.190098)"><g><path d="M 11.03125 0 L 5.125 0 C 5.3125 -3.988281 6.351562 -8.101562 8.25 -12.34375 C 10.15625 -16.582031 12.570312 -20.3125 15.5 -23.53125 L 1.03125 -23.53125 L 1.140625 -28.625 L 21.640625 -28.625 L 21.640625 -24.1875 C 18.472656 -20.800781 15.945312 -16.921875 14.0625 -12.546875 C 12.175781 -8.171875 11.164062 -3.988281 11.03125 0 Z M 11.03125 0 "/></g></g></g><g fill="#000000" fill-opacity="1"><g transform="translate(158.352342, 80.187639)"><g><path d="M 23.203125 1.046875 C 23.710938 2.722656 23.816406 4.179688 23.515625 5.421875 C 23.222656 6.671875 22.488281 7.882812 21.3125 9.0625 C 20.101562 10.269531 18.703125 11.097656 17.109375 11.546875 C 15.523438 12.003906 13.894531 11.992188 12.21875 11.515625 C 10.550781 11.046875 8.976562 10.070312 7.5 8.59375 C 6.039062 7.132812 5.035156 5.601562 4.484375 4 C 3.941406 2.40625 3.863281 0.84375 4.25 -0.6875 C 4.632812 -2.21875 5.457031 -3.613281 6.71875 -4.875 C 8.019531 -6.175781 9.347656 -6.960938 10.703125 -7.234375 C 12.066406 -7.515625 13.492188 -7.390625 14.984375 -6.859375 C 14.148438 -9.359375 14.660156 -11.535156 16.515625 -13.390625 C 17.640625 -14.515625 18.90625 -15.21875 20.3125 -15.5 C 21.726562 -15.789062 23.15625 -15.679688 24.59375 -15.171875 C 26.03125 -14.660156 27.351562 -13.800781 28.5625 -12.59375 C 29.863281 -11.289062 30.773438 -9.910156 31.296875 -8.453125 C 31.828125 -7.003906 31.953125 -5.609375 31.671875 -4.265625 C 31.398438 -2.929688 30.75 -1.75 29.71875 -0.71875 C 27.820312 1.175781 25.648438 1.765625 23.203125 1.046875 Z M 25.390625 -4.171875 C 26.148438 -4.929688 26.535156 -5.769531 26.546875 -6.6875 C 26.566406 -7.613281 26.226562 -8.425781 25.53125 -9.125 C 24.644531 -10.007812 23.734375 -10.457031 22.796875 -10.46875 C 21.859375 -10.476562 21.003906 -10.097656 20.234375 -9.328125 C 19.554688 -8.648438 19.207031 -7.8125 19.1875 -6.8125 C 19.164062 -5.8125 19.546875 -4.921875 20.328125 -4.140625 C 21.117188 -3.347656 21.972656 -2.96875 22.890625 -3 C 23.804688 -3.03125 24.640625 -3.421875 25.390625 -4.171875 Z M 16.953125 5.078125 C 17.898438 4.128906 18.398438 3.082031 18.453125 1.9375 C 18.515625 0.800781 18.078125 -0.234375 17.140625 -1.171875 C 16.273438 -2.035156 15.289062 -2.441406 14.1875 -2.390625 C 13.082031 -2.335938 12.050781 -1.832031 11.09375 -0.875 C 10.082031 0.132812 9.546875 1.195312 9.484375 2.3125 C 9.421875 3.425781 9.859375 4.453125 10.796875 5.390625 C 11.703125 6.296875 12.71875 6.707031 13.84375 6.625 C 14.96875 6.539062 16.003906 6.023438 16.953125 5.078125 Z M 16.953125 5.078125 "/></g></g></g><g fill="#000000" fill-opacity="1"><g transform="translate(184.469555, 114.114252)"><g><path d="M 0 9.765625 L 20.046875 9.765625 L 20.046875 2.828125 L 24.0625 2.828125 L 24.0625 3.484375 C 24.0625 5.804688 24.503906 7.578125 25.390625 8.796875 C 26.285156 10.015625 27.523438 10.675781 29.109375 10.78125 L 29.109375 15.5 L 0 15.5 Z M 0 9.765625 "/></g></g></g><g fill="#000000" fill-opacity="1"><g transform="translate(176.435514, 156.303096)"><g><path d="M -3.140625 17.921875 C -2.171875 13.015625 -1.890625 10.203125 -2.296875 9.484375 L -11.21875 18.40625 L -14.8125 14.8125 L -0.75 0.75 C 0.519531 2.144531 1.398438 3.367188 1.890625 4.421875 C 2.617188 6.003906 2.988281 7.601562 3 9.21875 C 3.019531 10.84375 2.8125 12.875 2.375 15.3125 C 2.050781 17.34375 1.859375 18.984375 1.796875 20.234375 C 1.691406 22.148438 2.257812 23.726562 3.5 24.96875 C 4.3125 25.78125 5.257812 26.210938 6.34375 26.265625 C 7.425781 26.316406 8.398438 25.910156 9.265625 25.046875 C 10.285156 24.023438 10.738281 22.976562 10.625 21.90625 C 10.519531 20.84375 9.832031 19.675781 8.5625 18.40625 L 8.375 18.21875 L 12.3125 14.28125 C 14.632812 16.601562 15.832031 18.988281 15.90625 21.4375 C 15.988281 23.894531 14.960938 26.191406 12.828125 28.328125 C 11.492188 29.660156 10.03125 30.585938 8.4375 31.109375 C 6.851562 31.640625 5.265625 31.726562 3.671875 31.375 C 2.078125 31.019531 0.625 30.1875 -0.6875 28.875 C -1.832031 27.726562 -2.65625 26.375 -3.15625 24.8125 C -3.65625 23.25 -3.648438 20.953125 -3.140625 17.921875 Z M -3.140625 17.921875 "/></g></g></g></svg>