<svg xmlns="http://www.w3.org/2000/svg" xmlns:xlink="http://www.w3.org/1999/xlink" width="391" zoomAndPan="magnify" viewBox="0 0 293.25 98.999996" height="132" preserveAspectRatio="xMidYMid meet" version="1.0"><defs><g/><clipPath id="df0585467d"><path d="M 0 0.125 L 292.5 0.125 L 292.5 98.871094 L 0 98.871094 Z M 0 0.125 " clip-rule="nonzero"/></clipPath><clipPath id="1d1a959954"><path d="M 0.472656 0.859375 L 292.09375 0.859375 L 292.09375 98.269531 L 0.472656 98.269531 Z M 0.472656 0.859375 " clip-rule="nonzero"/></clipPath><clipPath id="db617e73db"><path d="M 17.679688 0.859375 L 274.890625 0.859375 C 279.453125 0.859375 283.828125 2.671875 287.054688 5.898438 C 290.28125 9.125 292.09375 13.503906 292.09375 18.066406 L 292.09375 81.0625 C 292.09375 85.625 290.28125 90 287.054688 93.230469 C 283.828125 96.457031 279.453125 98.269531 274.890625 98.269531 L 17.679688 98.269531 C 13.113281 98.269531 8.738281 96.457031 5.511719 93.230469 C 2.285156 90 0.472656 85.625 0.472656 81.0625 L 0.472656 18.066406 C 0.472656 13.503906 2.285156 9.125 5.511719 5.898438 C 8.738281 2.671875 13.113281 0.859375 17.679688 0.859375 Z M 17.679688 0.859375 " clip-rule="nonzero"/></clipPath><clipPath id="4b98a38b9b"><path d="M 0.476562 0.859375 L 292.226562 0.859375 L 292.226562 98.109375 L 0.476562 98.109375 Z M 0.476562 0.859375 " clip-rule="nonzero"/></clipPath><clipPath id="43e4ab2d13"><path d="M 17.6875 0.859375 L 275.007812 0.859375 C 279.574219 0.859375 283.953125 2.667969 287.179688 5.890625 C 290.410156 9.113281 292.222656 13.480469 292.222656 18.039062 L 292.222656 80.933594 C 292.222656 85.488281 290.410156 89.859375 287.179688 93.078125 C 283.953125 96.300781 279.574219 98.109375 275.007812 98.109375 L 17.6875 98.109375 C 13.125 98.109375 8.746094 96.300781 5.515625 93.078125 C 2.289062 89.859375 0.476562 85.488281 0.476562 80.933594 L 0.476562 18.039062 C 0.476562 13.480469 2.289062 9.113281 5.515625 5.890625 C 8.746094 2.667969 13.125 0.859375 17.6875 0.859375 Z M 17.6875 0.859375 " clip-rule="nonzero"/></clipPath></defs><g clip-path="url(#df0585467d)"><path fill="#ffffff" d="M 0 0.125 L 292.5 0.125 L 292.5 98.875 L 0 98.875 Z M 0 0.125 " fill-opacity="1" fill-rule="nonzero"/></g><g clip-path="url(#1d1a959954)"><g clip-path="url(#db617e73db)"><path fill="#ffffff" d="M 0.472656 0.859375 L 292.09375 0.859375 L 292.09375 98.269531 L 0.472656 98.269531 Z M 0.472656 0.859375 " fill-opacity="1" fill-rule="nonzero"/></g></g><g clip-path="url(#4b98a38b9b)"><g clip-path="url(#43e4ab2d13)"><path stroke-linecap="butt" transform="matrix(0.748447, 0, 0, 0.74692, 0.475326, 0.859397)" fill="none" stroke-linejoin="miter" d="M 22.997199 -0.0000300999 L 366.803062 -0.0000300999 C 372.904241 -0.0000300999 378.754901 2.421373 383.065913 6.735969 C 387.382145 11.050565 389.803827 16.897497 389.803827 23.000689 L 389.803827 107.205912 C 389.803827 113.303874 387.382145 119.156036 383.065913 123.465402 C 378.754901 127.779998 372.904241 130.201401 366.803062 130.201401 L 22.997199 130.201401 C 16.901239 130.201401 11.050579 127.779998 6.734347 123.465402 C 2.423335 119.156036 0.00165217 113.303874 0.00165217 107.205912 L 0.00165217 23.000689 C 0.00165217 16.897497 2.423335 11.050565 6.734347 6.735969 C 11.050579 2.421373 16.901239 -0.0000300999 22.997199 -0.0000300999 Z M 22.997199 -0.0000300999 " stroke="#000000" stroke-width="12" stroke-opacity="1" stroke-miterlimit="4"/></g></g><g fill="#000000" fill-opacity="1"><g transform="translate(119.67289, 56.296565)"><g><path d="M 6.765625 -17.6875 L 6.765625 -12.84375 L 16.21875 -12.84375 L 16.21875 -9.03125 L 6.765625 -9.03125 L 6.765625 0 L 2.28125 0 L 2.28125 -21.484375 L 17.5625 -21.484375 L 17.5625 -17.6875 Z M 6.765625 -17.6875 "/></g></g></g><g fill="#000000" fill-opacity="1"><g transform="translate(137.956108, 56.296565)"><g><path d="M 2.0625 0 L 2.0625 -21.484375 L 6.25 -21.484375 L 6.25 0 Z M 2.0625 0 "/></g></g></g><g fill="#000000" fill-opacity="1"><g transform="translate(146.274829, 56.296565)"><g><path d="M 2.0625 -17.796875 L 2.0625 -21.6875 L 6.25 -21.6875 L 6.25 -17.796875 Z M 2.0625 0 L 2.0625 -15.921875 L 6.25 -15.921875 L 6.25 0 Z M 2.0625 0 "/></g></g></g><g fill="#000000" fill-opacity="1"><g transform="translate(154.593549, 56.296565)"><g><path d="M 17.296875 -8.140625 C 17.296875 -6.484375 17.03125 -5.003906 16.5 -3.703125 C 15.96875 -2.410156 15.195312 -1.398438 14.1875 -0.671875 C 13.1875 0.0546875 11.988281 0.421875 10.59375 0.421875 C 8.5 0.421875 7.003906 -0.394531 6.109375 -2.03125 L 6.046875 -2.03125 L 6.046875 6.1875 L 1.859375 6.1875 L 1.859375 -15.921875 L 5.859375 -15.921875 L 5.859375 -13.609375 L 5.921875 -13.609375 C 6.984375 -15.429688 8.570312 -16.34375 10.6875 -16.34375 C 11.957031 -16.34375 13.097656 -16.003906 14.109375 -15.328125 C 15.117188 -14.660156 15.898438 -13.707031 16.453125 -12.46875 C 17.015625 -11.238281 17.296875 -9.796875 17.296875 -8.140625 Z M 9.546875 -3.015625 C 10.640625 -3.015625 11.484375 -3.476562 12.078125 -4.40625 C 12.679688 -5.34375 12.984375 -6.5 12.984375 -7.875 C 12.984375 -9.382812 12.675781 -10.566406 12.0625 -11.421875 C 11.457031 -12.285156 10.566406 -12.71875 9.390625 -12.71875 C 8.253906 -12.71875 7.378906 -12.28125 6.765625 -11.40625 C 6.160156 -10.539062 5.859375 -9.269531 5.859375 -7.59375 C 5.859375 -6.164062 6.1875 -5.046875 6.84375 -4.234375 C 7.507812 -3.421875 8.410156 -3.015625 9.546875 -3.015625 Z M 9.546875 -3.015625 "/></g></g></g></svg>