<svg xmlns="http://www.w3.org/2000/svg" xmlns:xlink="http://www.w3.org/1999/xlink" width="391" zoomAndPan="magnify" viewBox="0 0 293.25 98.249997" height="131" preserveAspectRatio="xMidYMid meet" version="1.0"><defs><g/><clipPath id="1cb77c9788"><path d="M 0.738281 0 L 291.765625 0 L 291.765625 97.503906 L 0.738281 97.503906 Z M 0.738281 0 " clip-rule="nonzero"/></clipPath><clipPath id="4751cdf0a9"><path d="M 1.207031 0.078125 L 291.363281 0.078125 L 291.363281 96.996094 L 1.207031 96.996094 Z M 1.207031 0.078125 " clip-rule="nonzero"/></clipPath><clipPath id="fb8911061c"><path d="M 18.328125 0.078125 L 274.242188 0.078125 C 278.785156 0.078125 283.136719 1.882812 286.347656 5.09375 C 289.558594 8.304688 291.363281 12.65625 291.363281 17.199219 L 291.363281 79.878906 C 291.363281 84.417969 289.558594 88.773438 286.347656 91.980469 C 283.136719 95.191406 278.785156 96.996094 274.242188 96.996094 L 18.328125 96.996094 C 13.789062 96.996094 9.433594 95.191406 6.222656 91.980469 C 3.011719 88.773438 1.207031 84.417969 1.207031 79.878906 L 1.207031 17.199219 C 1.207031 12.65625 3.011719 8.304688 6.222656 5.09375 C 9.433594 1.882812 13.789062 0.078125 18.328125 0.078125 Z M 18.328125 0.078125 " clip-rule="nonzero"/></clipPath><clipPath id="dac84e3b27"><path d="M 1.210938 0.078125 L 291.492188 0.078125 L 291.492188 96.839844 L 1.210938 96.839844 Z M 1.210938 0.078125 " clip-rule="nonzero"/></clipPath><clipPath id="20cafbc572"><path d="M 18.339844 0.078125 L 274.363281 0.078125 C 278.90625 0.078125 283.261719 1.878906 286.472656 5.085938 C 289.683594 8.289062 291.488281 12.636719 291.488281 17.171875 L 291.488281 79.75 C 291.488281 84.28125 289.683594 88.628906 286.472656 91.832031 C 283.261719 95.039062 278.90625 96.839844 274.363281 96.839844 L 18.339844 96.839844 C 13.796875 96.839844 9.441406 95.039062 6.226562 91.832031 C 3.015625 88.628906 1.210938 84.28125 1.210938 79.75 L 1.210938 17.171875 C 1.210938 12.636719 3.015625 8.289062 6.226562 5.085938 C 9.441406 1.878906 13.796875 0.078125 18.339844 0.078125 Z M 18.339844 0.078125 " clip-rule="nonzero"/></clipPath></defs><g clip-path="url(#1cb77c9788)"><path fill="#ffffff" d="M 0.738281 0 L 291.765625 0 L 291.765625 97.503906 L 0.738281 97.503906 Z M 0.738281 0 " fill-opacity="1" fill-rule="nonzero"/></g><g clip-path="url(#4751cdf0a9)"><g clip-path="url(#fb8911061c)"><path fill="#ffffff" d="M 1.207031 0.078125 L 291.363281 0.078125 L 291.363281 96.996094 L 1.207031 96.996094 Z M 1.207031 0.078125 " fill-opacity="1" fill-rule="nonzero"/></g></g><g clip-path="url(#dac84e3b27)"><g clip-path="url(#20cafbc572)"><path stroke-linecap="butt" transform="matrix(0.744676, 0, 0, 0.743157, 1.211572, 0.0783553)" fill="none" stroke-linejoin="miter" d="M 23.000967 -0.000309946 L 366.806033 -0.000309946 C 372.906629 -0.000309946 378.755438 2.422841 383.067296 6.738257 C 387.379153 11.048417 389.802606 16.89867 389.802606 23.001226 L 389.802606 107.207031 C 389.802606 113.304331 387.379153 119.154584 383.067296 123.464744 C 378.755438 127.78016 372.906629 130.203311 366.806033 130.203311 L 23.000967 130.203311 C 16.90037 130.203311 11.051561 127.78016 6.734458 123.464744 C 2.4226 119.154584 -0.000852376 113.304331 -0.000852376 107.207031 L -0.000852376 23.001226 C -0.000852376 16.89867 2.4226 11.048417 6.734458 6.738257 C 11.051561 2.422841 16.90037 -0.000309946 23.000967 -0.000309946 Z M 23.000967 -0.000309946 " stroke="#000000" stroke-width="12" stroke-opacity="1" stroke-miterlimit="4"/></g></g><g fill="#000000" fill-opacity="1"><g transform="translate(114.016939, 55.236252)"><g><path d="M 9.375 -18.25 C 8.28125 -18.25 7.382812 -18.015625 6.6875 -17.546875 C 6 -17.078125 5.65625 -16.457031 5.65625 -15.6875 C 5.65625 -15.113281 5.816406 -14.640625 6.140625 -14.265625 C 6.472656 -13.898438 7.15625 -13.597656 8.1875 -13.359375 L 13.21875 -12.140625 C 15.28125 -11.648438 16.710938 -10.9375 17.515625 -10 C 18.316406 -9.070312 18.71875 -7.878906 18.71875 -6.421875 C 18.71875 -4.898438 18.34375 -3.613281 17.59375 -2.5625 C 16.851562 -1.507812 15.847656 -0.722656 14.578125 -0.203125 C 13.316406 0.304688 11.878906 0.5625 10.265625 0.5625 C 7.453125 0.5625 5.25 -0.03125 3.65625 -1.21875 C 2.070312 -2.40625 1.238281 -4.191406 1.15625 -6.578125 L 5.453125 -6.578125 C 5.484375 -5.484375 5.882812 -4.632812 6.65625 -4.03125 C 7.4375 -3.425781 8.539062 -3.125 9.96875 -3.125 C 11.414062 -3.125 12.519531 -3.351562 13.28125 -3.8125 C 14.050781 -4.269531 14.4375 -4.960938 14.4375 -5.890625 C 14.4375 -6.484375 14.234375 -6.945312 13.828125 -7.28125 C 13.421875 -7.625 12.738281 -7.929688 11.78125 -8.203125 C 10.832031 -8.484375 9.25 -8.875 7.03125 -9.375 C 5.082031 -9.8125 3.671875 -10.503906 2.796875 -11.453125 C 1.921875 -12.410156 1.484375 -13.710938 1.484375 -15.359375 C 1.484375 -16.628906 1.785156 -17.757812 2.390625 -18.75 C 2.992188 -19.738281 3.910156 -20.515625 5.140625 -21.078125 C 6.378906 -21.648438 7.898438 -21.9375 9.703125 -21.9375 C 11.347656 -21.9375 12.789062 -21.648438 14.03125 -21.078125 C 15.269531 -20.515625 16.238281 -19.710938 16.9375 -18.671875 C 17.632812 -17.628906 18 -16.414062 18.03125 -15.03125 L 13.75 -15.03125 C 13.550781 -17.175781 12.09375 -18.25 9.375 -18.25 Z M 9.375 -18.25 "/></g></g></g><g fill="#000000" fill-opacity="1"><g transform="translate(133.87533, 55.236252)"><g><path d="M 17.203125 -8.09375 C 17.203125 -6.445312 16.9375 -4.976562 16.40625 -3.6875 C 15.882812 -2.394531 15.125 -1.382812 14.125 -0.65625 C 13.125 0.0625 11.925781 0.421875 10.53125 0.421875 C 8.445312 0.421875 6.960938 -0.394531 6.078125 -2.03125 L 6.015625 -2.03125 L 6.015625 6.15625 L 1.84375 6.15625 L 1.84375 -15.828125 L 5.828125 -15.828125 L 5.828125 -13.546875 L 5.890625 -13.546875 C 6.941406 -15.347656 8.519531 -16.25 10.625 -16.25 C 11.894531 -16.25 13.03125 -15.914062 14.03125 -15.25 C 15.03125 -14.582031 15.804688 -13.632812 16.359375 -12.40625 C 16.921875 -11.175781 17.203125 -9.738281 17.203125 -8.09375 Z M 9.5 -3 C 10.582031 -3 11.421875 -3.460938 12.015625 -4.390625 C 12.617188 -5.316406 12.921875 -6.460938 12.921875 -7.828125 C 12.921875 -9.335938 12.617188 -10.519531 12.015625 -11.375 C 11.410156 -12.226562 10.519531 -12.65625 9.34375 -12.65625 C 8.21875 -12.65625 7.347656 -12.222656 6.734375 -11.359375 C 6.128906 -10.492188 5.828125 -9.226562 5.828125 -7.5625 C 5.828125 -6.132812 6.15625 -5.015625 6.8125 -4.203125 C 7.46875 -3.398438 8.363281 -3 9.5 -3 Z M 9.5 -3 "/></g></g></g><g fill="#000000" fill-opacity="1"><g transform="translate(152.066444, 55.236252)"><g><path d="M 2.046875 -17.703125 L 2.046875 -21.578125 L 6.21875 -21.578125 L 6.21875 -17.703125 Z M 2.046875 0 L 2.046875 -15.828125 L 6.21875 -15.828125 L 6.21875 0 Z M 2.046875 0 "/></g></g></g><g fill="#000000" fill-opacity="1"><g transform="translate(160.343258, 55.236252)"><g><path d="M 16.25 -11.078125 L 16.25 0 L 12.078125 0 L 12.078125 -10.03125 C 12.078125 -10.90625 11.84375 -11.570312 11.375 -12.03125 C 10.914062 -12.5 10.25 -12.734375 9.375 -12.734375 C 8.40625 -12.734375 7.617188 -12.414062 7.015625 -11.78125 C 6.410156 -11.144531 6.109375 -10.285156 6.109375 -9.203125 L 6.109375 0 L 1.9375 0 L 1.9375 -15.828125 L 5.921875 -15.828125 L 5.921875 -13.515625 L 5.984375 -13.515625 C 6.484375 -14.441406 7.140625 -15.128906 7.953125 -15.578125 C 8.765625 -16.023438 9.695312 -16.25 10.75 -16.25 C 11.832031 -16.25 12.789062 -16.023438 13.625 -15.578125 C 14.457031 -15.128906 15.101562 -14.515625 15.5625 -13.734375 C 16.019531 -12.953125 16.25 -12.066406 16.25 -11.078125 Z M 16.25 -11.078125 "/></g></g></g></svg>