<svg xmlns="http://www.w3.org/2000/svg" xmlns:xlink="http://www.w3.org/1999/xlink" width="391" zoomAndPan="magnify" viewBox="0 0 293.25 98.249997" height="131" preserveAspectRatio="xMidYMid meet" version="1.0"><defs><g/><clipPath id="bfe745f8a5"><path d="M 0.738281 0 L 291.765625 0 L 291.765625 97.503906 L 0.738281 97.503906 Z M 0.738281 0 " clip-rule="nonzero"/></clipPath><clipPath id="0d2a7e87d9"><path d="M 0.867188 0.507812 L 291.023438 0.507812 L 291.023438 97.425781 L 0.867188 97.425781 Z M 0.867188 0.507812 " clip-rule="nonzero"/></clipPath><clipPath id="0e2e9d919b"><path d="M 17.242188 0.507812 L 274.648438 0.507812 C 283.691406 0.507812 291.023438 7.839844 291.023438 16.882812 L 291.023438 81.050781 C 291.023438 90.097656 283.691406 97.425781 274.648438 97.425781 L 17.242188 97.425781 C 8.199219 97.425781 0.867188 90.097656 0.867188 81.050781 L 0.867188 16.882812 C 0.867188 7.839844 8.199219 0.507812 17.242188 0.507812 Z M 17.242188 0.507812 " clip-rule="nonzero"/></clipPath><clipPath id="dcc465936c"><path d="M 0.871094 0.507812 L 291.152344 0.507812 L 291.152344 97.269531 L 0.871094 97.269531 Z M 0.871094 0.507812 " clip-rule="nonzero"/></clipPath><clipPath id="144db8080e"><path d="M 17.253906 0.507812 L 274.765625 0.507812 C 283.816406 0.507812 291.148438 7.828125 291.148438 16.859375 L 291.148438 80.921875 C 291.148438 89.949219 283.816406 97.269531 274.765625 97.269531 L 17.253906 97.269531 C 8.207031 97.269531 0.871094 89.949219 0.871094 80.921875 L 0.871094 16.859375 C 0.871094 7.828125 8.207031 0.507812 17.253906 0.507812 Z M 17.253906 0.507812 " clip-rule="nonzero"/></clipPath><clipPath id="851945db78"><path d="M 17.371094 20.226562 L 83.585938 20.226562 L 83.585938 86.445312 L 17.371094 86.445312 Z M 17.371094 20.226562 " clip-rule="nonzero"/></clipPath><clipPath id="30f2a0ad7d"><path d="M 50.476562 20.226562 C 32.191406 20.226562 17.371094 35.050781 17.371094 53.335938 C 17.371094 71.621094 32.191406 86.445312 50.476562 86.445312 C 68.765625 86.445312 83.585938 71.621094 83.585938 53.335938 C 83.585938 35.050781 68.765625 20.226562 50.476562 20.226562 Z M 50.476562 20.226562 " clip-rule="nonzero"/></clipPath><clipPath id="fd46a05c94"><path d="M 17.371094 20.226562 L 83.613281 20.226562 L 83.613281 86.472656 L 17.371094 86.472656 Z M 17.371094 20.226562 " clip-rule="nonzero"/></clipPath><clipPath id="f173e1fcc8"><path d="M 50.492188 20.226562 C 32.199219 20.226562 17.371094 35.054688 17.371094 53.347656 C 17.371094 71.640625 32.199219 86.472656 50.492188 86.472656 C 68.785156 86.472656 83.613281 71.640625 83.613281 53.347656 C 83.613281 35.054688 68.785156 20.226562 50.492188 20.226562 Z M 50.492188 20.226562 " clip-rule="nonzero"/></clipPath><clipPath id="4a9c49a7a0"><path d="M 41.710938 11.492188 L 59.234375 11.492188 L 59.234375 28.960938 L 41.710938 28.960938 Z M 41.710938 11.492188 " clip-rule="nonzero"/></clipPath><clipPath id="c2352657da"><path d="M 50.472656 28.960938 L 41.710938 11.492188 L 59.234375 11.492188 Z M 50.472656 28.960938 " clip-rule="nonzero"/></clipPath></defs><g clip-path="url(#bfe745f8a5)"><path fill="#ffffff" d="M 0.738281 0 L 291.765625 0 L 291.765625 97.503906 L 0.738281 97.503906 Z M 0.738281 0 " fill-opacity="1" fill-rule="nonzero"/></g><g clip-path="url(#0d2a7e87d9)"><g clip-path="url(#0e2e9d919b)"><path fill="#ffffff" d="M 0.867188 0.507812 L 291.023438 0.507812 L 291.023438 97.425781 L 0.867188 97.425781 Z M 0.867188 0.507812 " fill-opacity="1" fill-rule="nonzero"/></g></g><g clip-path="url(#dcc465936c)"><g clip-path="url(#144db8080e)"><path stroke-linecap="butt" transform="matrix(0.744676, 0, 0, 0.743157, 0.871869, 0.509252)" fill="none" stroke-linejoin="miter" d="M 21.998874 -0.00193702 L 367.802502 -0.00193702 C 379.956485 -0.00193702 389.802417 9.848355 389.802417 22.000903 L 389.802417 108.2041 C 389.802417 120.351392 379.956485 130.201684 367.802502 130.201684 L 21.998874 130.201684 C 9.850137 130.201684 -0.00104099 120.351392 -0.00104099 108.2041 L -0.00104099 22.000903 C -0.00104099 9.848355 9.850137 -0.00193702 21.998874 -0.00193702 Z M 21.998874 -0.00193702 " stroke="#000000" stroke-width="12" stroke-opacity="1" stroke-miterlimit="4"/></g></g><g clip-path="url(#851945db78)"><g clip-path="url(#30f2a0ad7d)"><path fill="#ffffff" d="M 17.371094 20.226562 L 83.585938 20.226562 L 83.585938 86.445312 L 17.371094 86.445312 Z M 17.371094 20.226562 " fill-opacity="1" fill-rule="nonzero"/></g></g><g clip-path="url(#fd46a05c94)"><g clip-path="url(#f173e1fcc8)"><path stroke-linecap="butt" transform="matrix(0.74471, 0, 0, 0.74471, 17.369412, 20.226694)" fill="none" stroke-linejoin="miter" d="M 44.4774 -0.000177064 C 19.913526 -0.000177064 0.00225843 19.911091 0.00225843 44.474965 C 0.00225843 69.038839 19.913526 88.955352 44.4774 88.955352 C 69.041274 88.955352 88.952542 69.038839 88.952542 44.474965 C 88.952542 19.911091 69.041274 -0.000177064 44.4774 -0.000177064 Z M 44.4774 -0.000177064 " stroke="#000000" stroke-width="12" stroke-opacity="1" stroke-miterlimit="4"/></g></g><path stroke-linecap="butt" transform="matrix(-0.52659, -0.52659, 0.526312, -0.526312, 72.830067, 77.796886)" fill="none" stroke-linejoin="miter" d="M -0.00185451 1.998373 L 88.966104 2.002084 " stroke="#000000" stroke-width="4" stroke-opacity="1" stroke-miterlimit="4"/><g fill="#000000" fill-opacity="1"><g transform="translate(88.881288, 55.667148)"><g><path d="M 9.375 -18.25 C 8.28125 -18.25 7.382812 -18.015625 6.6875 -17.546875 C 6 -17.078125 5.65625 -16.457031 5.65625 -15.6875 C 5.65625 -15.113281 5.816406 -14.640625 6.140625 -14.265625 C 6.472656 -13.898438 7.15625 -13.597656 8.1875 -13.359375 L 13.21875 -12.140625 C 15.28125 -11.648438 16.710938 -10.9375 17.515625 -10 C 18.316406 -9.070312 18.71875 -7.878906 18.71875 -6.421875 C 18.71875 -4.898438 18.34375 -3.613281 17.59375 -2.5625 C 16.851562 -1.507812 15.847656 -0.722656 14.578125 -0.203125 C 13.316406 0.304688 11.878906 0.5625 10.265625 0.5625 C 7.453125 0.5625 5.25 -0.03125 3.65625 -1.21875 C 2.070312 -2.40625 1.238281 -4.191406 1.15625 -6.578125 L 5.453125 -6.578125 C 5.484375 -5.484375 5.882812 -4.632812 6.65625 -4.03125 C 7.4375 -3.425781 8.539062 -3.125 9.96875 -3.125 C 11.414062 -3.125 12.519531 -3.351562 13.28125 -3.8125 C 14.050781 -4.269531 14.4375 -4.960938 14.4375 -5.890625 C 14.4375 -6.484375 14.234375 -6.945312 13.828125 -7.28125 C 13.421875 -7.625 12.738281 -7.929688 11.78125 -8.203125 C 10.832031 -8.484375 9.25 -8.875 7.03125 -9.375 C 5.082031 -9.8125 3.671875 -10.503906 2.796875 -11.453125 C 1.921875 -12.410156 1.484375 -13.710938 1.484375 -15.359375 C 1.484375 -16.628906 1.785156 -17.757812 2.390625 -18.75 C 2.992188 -19.738281 3.910156 -20.515625 5.140625 -21.078125 C 6.378906 -21.648438 7.898438 -21.9375 9.703125 -21.9375 C 11.347656 -21.9375 12.789062 -21.648438 14.03125 -21.078125 C 15.269531 -20.515625 16.238281 -19.710938 16.9375 -18.671875 C 17.632812 -17.628906 18 -16.414062 18.03125 -15.03125 L 13.75 -15.03125 C 13.550781 -17.175781 12.09375 -18.25 9.375 -18.25 Z M 9.375 -18.25 "/></g></g></g><g fill="#000000" fill-opacity="1"><g transform="translate(108.739679, 55.667148)"><g><path d="M 17.203125 -8.09375 C 17.203125 -6.445312 16.9375 -4.976562 16.40625 -3.6875 C 15.882812 -2.394531 15.125 -1.382812 14.125 -0.65625 C 13.125 0.0625 11.925781 0.421875 10.53125 0.421875 C 8.445312 0.421875 6.960938 -0.394531 6.078125 -2.03125 L 6.015625 -2.03125 L 6.015625 6.15625 L 1.84375 6.15625 L 1.84375 -15.828125 L 5.828125 -15.828125 L 5.828125 -13.546875 L 5.890625 -13.546875 C 6.941406 -15.347656 8.519531 -16.25 10.625 -16.25 C 11.894531 -16.25 13.03125 -15.914062 14.03125 -15.25 C 15.03125 -14.582031 15.804688 -13.632812 16.359375 -12.40625 C 16.921875 -11.175781 17.203125 -9.738281 17.203125 -8.09375 Z M 9.5 -3 C 10.582031 -3 11.421875 -3.460938 12.015625 -4.390625 C 12.617188 -5.316406 12.921875 -6.460938 12.921875 -7.828125 C 12.921875 -9.335938 12.617188 -10.519531 12.015625 -11.375 C 11.410156 -12.226562 10.519531 -12.65625 9.34375 -12.65625 C 8.21875 -12.65625 7.347656 -12.222656 6.734375 -11.359375 C 6.128906 -10.492188 5.828125 -9.226562 5.828125 -7.5625 C 5.828125 -6.132812 6.15625 -5.015625 6.8125 -4.203125 C 7.46875 -3.398438 8.363281 -3 9.5 -3 Z M 9.5 -3 "/></g></g></g><g fill="#000000" fill-opacity="1"><g transform="translate(126.930793, 55.667148)"><g><path d="M 2.046875 -17.703125 L 2.046875 -21.578125 L 6.21875 -21.578125 L 6.21875 -17.703125 Z M 2.046875 0 L 2.046875 -15.828125 L 6.21875 -15.828125 L 6.21875 0 Z M 2.046875 0 "/></g></g></g><g fill="#000000" fill-opacity="1"><g transform="translate(135.207607, 55.667148)"><g><path d="M 16.25 -11.078125 L 16.25 0 L 12.078125 0 L 12.078125 -10.03125 C 12.078125 -10.90625 11.84375 -11.570312 11.375 -12.03125 C 10.914062 -12.5 10.25 -12.734375 9.375 -12.734375 C 8.40625 -12.734375 7.617188 -12.414062 7.015625 -11.78125 C 6.410156 -11.144531 6.109375 -10.285156 6.109375 -9.203125 L 6.109375 0 L 1.9375 0 L 1.9375 -15.828125 L 5.921875 -15.828125 L 5.921875 -13.515625 L 5.984375 -13.515625 C 6.484375 -14.441406 7.140625 -15.128906 7.953125 -15.578125 C 8.765625 -16.023438 9.695312 -16.25 10.75 -16.25 C 11.832031 -16.25 12.789062 -16.023438 13.625 -15.578125 C 14.457031 -15.128906 15.101562 -14.515625 15.5625 -13.734375 C 16.019531 -12.953125 16.25 -12.066406 16.25 -11.078125 Z M 16.25 -11.078125 "/></g></g></g><g fill="#000000" fill-opacity="1"><g transform="translate(153.398721, 55.667148)"><g/></g></g><g fill="#000000" fill-opacity="1"><g transform="translate(161.675535, 55.667148)"><g><path d="M 15.6875 -0.625 L 15.6875 0 L 11.1875 0 C 10.945312 -0.695312 10.820312 -1.320312 10.8125 -1.875 C 10.050781 -1.0625 9.265625 -0.472656 8.453125 -0.109375 C 7.640625 0.242188 6.71875 0.421875 5.6875 0.421875 C 4.238281 0.421875 3.070312 0.00390625 2.1875 -0.828125 C 1.300781 -1.660156 0.859375 -2.785156 0.859375 -4.203125 C 0.859375 -5.523438 1.21875 -6.628906 1.9375 -7.515625 C 2.664062 -8.398438 3.960938 -9 5.828125 -9.3125 L 8.8125 -9.765625 C 9.5625 -9.878906 10.0625 -10.023438 10.3125 -10.203125 C 10.5625 -10.390625 10.6875 -10.691406 10.6875 -11.109375 C 10.6875 -11.703125 10.472656 -12.148438 10.046875 -12.453125 C 9.617188 -12.765625 8.921875 -12.921875 7.953125 -12.921875 C 6.378906 -12.921875 5.523438 -12.1875 5.390625 -10.71875 L 1.375 -10.71875 C 1.53125 -12.519531 2.140625 -13.890625 3.203125 -14.828125 C 4.265625 -15.773438 5.972656 -16.25 8.328125 -16.25 C 10.359375 -16.25 11.9375 -15.851562 13.0625 -15.0625 C 14.195312 -14.269531 14.765625 -13.175781 14.765625 -11.78125 L 14.765625 -2.953125 C 14.765625 -2.210938 14.835938 -1.664062 14.984375 -1.3125 C 15.128906 -0.96875 15.363281 -0.738281 15.6875 -0.625 Z M 10.6875 -5.75 L 10.6875 -7.703125 C 10.332031 -7.484375 9.945312 -7.3125 9.53125 -7.1875 C 9.113281 -7.0625 8.503906 -6.9375 7.703125 -6.8125 C 6.816406 -6.695312 6.148438 -6.453125 5.703125 -6.078125 C 5.253906 -5.710938 5.03125 -5.175781 5.03125 -4.46875 C 5.03125 -3.894531 5.207031 -3.429688 5.5625 -3.078125 C 5.925781 -2.734375 6.394531 -2.5625 6.96875 -2.5625 C 7.582031 -2.5625 8.175781 -2.691406 8.75 -2.953125 C 9.320312 -3.222656 9.785156 -3.601562 10.140625 -4.09375 C 10.503906 -4.582031 10.6875 -5.132812 10.6875 -5.75 Z M 10.6875 -5.75 "/></g></g></g><g fill="#000000" fill-opacity="1"><g transform="translate(178.229152, 55.667148)"><g/></g></g><g fill="#000000" fill-opacity="1"><g transform="translate(186.505966, 55.667148)"><g><path d="M 8.625 -5.75 L 8.6875 -5.75 C 9.34375 -9.5 10.335938 -14.707031 11.671875 -21.375 L 16.40625 -21.375 L 18.546875 -11.25 C 18.722656 -10.394531 18.878906 -9.582031 19.015625 -8.8125 C 19.160156 -8.050781 19.289062 -7.363281 19.40625 -6.75 L 19.578125 -5.75 L 19.640625 -5.75 L 20.1875 -8.609375 C 20.363281 -9.535156 21.101562 -12.757812 22.40625 -18.28125 L 23.125 -21.375 L 27.65625 -21.375 L 21.640625 0 L 17.359375 0 C 15.785156 -7.300781 14.679688 -12.859375 14.046875 -16.671875 L 13.984375 -16.671875 C 13.585938 -14.109375 13.003906 -11.019531 12.234375 -7.40625 L 10.6875 0 L 6.515625 0 L 0.46875 -21.375 L 5.234375 -21.375 C 6.023438 -18.019531 6.75 -14.847656 7.40625 -11.859375 C 8.0625 -8.867188 8.46875 -6.832031 8.625 -5.75 Z M 8.625 -5.75 "/></g></g></g><g fill="#000000" fill-opacity="1"><g transform="translate(214.611391, 55.667148)"><g><path d="M 6.15625 -13.78125 C 6.519531 -14.53125 7.125 -15.128906 7.96875 -15.578125 C 8.8125 -16.023438 9.738281 -16.25 10.75 -16.25 C 12.394531 -16.25 13.722656 -15.769531 14.734375 -14.8125 C 15.742188 -13.863281 16.25 -12.617188 16.25 -11.078125 L 16.25 0 L 12.078125 0 L 12.078125 -9.90625 C 12.078125 -11.789062 11.175781 -12.734375 9.375 -12.734375 C 8.40625 -12.734375 7.617188 -12.414062 7.015625 -11.78125 C 6.410156 -11.144531 6.109375 -10.285156 6.109375 -9.203125 L 6.109375 0 L 1.9375 0 L 1.9375 -21.375 L 6.109375 -21.375 L 6.109375 -13.78125 Z M 6.15625 -13.78125 "/></g></g></g><g fill="#000000" fill-opacity="1"><g transform="translate(232.802506, 55.667148)"><g><path d="M 8.578125 -2.921875 C 9.191406 -2.921875 9.75 -3.066406 10.25 -3.359375 C 10.757812 -3.660156 11.09375 -4.085938 11.25 -4.640625 L 15.53125 -4.640625 C 15.082031 -3.035156 14.238281 -1.789062 13 -0.90625 C 11.769531 -0.0195312 10.296875 0.421875 8.578125 0.421875 C 5.953125 0.421875 3.976562 -0.300781 2.65625 -1.75 C 1.34375 -3.195312 0.6875 -5.351562 0.6875 -8.21875 C 0.6875 -9.78125 0.976562 -11.164062 1.5625 -12.375 C 2.144531 -13.59375 3 -14.539062 4.125 -15.21875 C 5.257812 -15.90625 6.632812 -16.25 8.25 -16.25 C 10.507812 -16.25 12.316406 -15.523438 13.671875 -14.078125 C 15.035156 -12.628906 15.71875 -10.4375 15.71875 -7.5 L 15.71875 -6.78125 L 4.859375 -6.78125 C 4.992188 -4.207031 6.234375 -2.921875 8.578125 -2.921875 Z M 8.1875 -12.828125 C 6.28125 -12.828125 5.207031 -11.71875 4.96875 -9.5 L 11.4375 -9.5 C 11.332031 -10.53125 10.992188 -11.34375 10.421875 -11.9375 C 9.847656 -12.53125 9.101562 -12.828125 8.1875 -12.828125 Z M 8.1875 -12.828125 "/></g></g></g><g fill="#000000" fill-opacity="1"><g transform="translate(249.356122, 55.667148)"><g><path d="M 8.578125 -2.921875 C 9.191406 -2.921875 9.75 -3.066406 10.25 -3.359375 C 10.757812 -3.660156 11.09375 -4.085938 11.25 -4.640625 L 15.53125 -4.640625 C 15.082031 -3.035156 14.238281 -1.789062 13 -0.90625 C 11.769531 -0.0195312 10.296875 0.421875 8.578125 0.421875 C 5.953125 0.421875 3.976562 -0.300781 2.65625 -1.75 C 1.34375 -3.195312 0.6875 -5.351562 0.6875 -8.21875 C 0.6875 -9.78125 0.976562 -11.164062 1.5625 -12.375 C 2.144531 -13.59375 3 -14.539062 4.125 -15.21875 C 5.257812 -15.90625 6.632812 -16.25 8.25 -16.25 C 10.507812 -16.25 12.316406 -15.523438 13.671875 -14.078125 C 15.035156 -12.628906 15.71875 -10.4375 15.71875 -7.5 L 15.71875 -6.78125 L 4.859375 -6.78125 C 4.992188 -4.207031 6.234375 -2.921875 8.578125 -2.921875 Z M 8.1875 -12.828125 C 6.28125 -12.828125 5.207031 -11.71875 4.96875 -9.5 L 11.4375 -9.5 C 11.332031 -10.53125 10.992188 -11.34375 10.421875 -11.9375 C 9.847656 -12.53125 9.101562 -12.828125 8.1875 -12.828125 Z M 8.1875 -12.828125 "/></g></g></g><g fill="#000000" fill-opacity="1"><g transform="translate(265.909739, 55.667148)"><g><path d="M 2.046875 0 L 2.046875 -21.375 L 6.21875 -21.375 L 6.21875 0 Z M 2.046875 0 "/></g></g></g><path stroke-linecap="butt" transform="matrix(0, -0.74471, 0.744318, 0, 48.985485, 86.440413)" fill="none" stroke-linejoin="miter" d="M -0.00133397 1.998032 L 88.96468 1.998032 " stroke="#000000" stroke-width="4" stroke-opacity="1" stroke-miterlimit="4"/><path stroke-linecap="butt" transform="matrix(-0.74471, 0, 0, -0.744318, 83.578836, 55.707241)" fill="none" stroke-linejoin="miter" d="M 0.00095432 1.999805 L 88.966968 1.999805 " stroke="#000000" stroke-width="4" stroke-opacity="1" stroke-miterlimit="4"/><path stroke-linecap="butt" transform="matrix(-0.52659, 0.52659, -0.526312, -0.526312, 75.559621, 31.604064)" fill="none" stroke-linejoin="miter" d="M -0.00139959 1.99985 L 88.962849 1.99985 " stroke="#000000" stroke-width="4" stroke-opacity="1" stroke-miterlimit="4"/><g clip-path="url(#4a9c49a7a0)"><g clip-path="url(#c2352657da)"><path fill="#262626" d="M 59.234375 28.960938 L 41.710938 28.960938 L 41.710938 11.492188 L 59.234375 11.492188 Z M 59.234375 28.960938 " fill-opacity="1" fill-rule="nonzero"/></g></g></svg>