<svg xmlns="http://www.w3.org/2000/svg" xmlns:xlink="http://www.w3.org/1999/xlink" width="340" zoomAndPan="magnify" viewBox="0 0 255 254.999984" height="340" preserveAspectRatio="xMidYMid meet" version="1.0"><defs><g/><clipPath id="8e6c9d1826"><path d="M 101.683594 0.0273438 L 153.300781 0.0273438 L 153.300781 51.496094 L 101.683594 51.496094 Z M 101.683594 0.0273438 " clip-rule="nonzero"/></clipPath><clipPath id="91ca635fdf"><path d="M 127.492188 51.496094 L 101.683594 0.0273438 L 153.300781 0.0273438 Z M 127.492188 51.496094 " clip-rule="nonzero"/></clipPath><clipPath id="c642f598c1"><path d="M 29 29 L 226 29 L 226 226 L 29 226 Z M 29 29 " clip-rule="nonzero"/></clipPath><clipPath id="0a34e3e589"><path d="M 180.289062 254.925781 L 0.046875 180.269531 L 74.707031 0.03125 L 254.945312 74.6875 Z M 180.289062 254.925781 " clip-rule="nonzero"/></clipPath><clipPath id="5f37ca0edb"><path d="M 90.167969 217.597656 C 139.941406 238.214844 197 214.578125 217.617188 164.808594 C 238.234375 115.035156 214.597656 57.976562 164.824219 37.359375 C 115.054688 16.742188 57.992188 40.378906 37.378906 90.148438 C 16.761719 139.921875 40.398438 196.984375 90.167969 217.597656 Z M 90.167969 217.597656 " clip-rule="nonzero"/></clipPath><clipPath id="ffbba6dc4f"><path d="M 29 30 L 226 30 L 226 226 L 29 226 Z M 29 30 " clip-rule="nonzero"/></clipPath><clipPath id="d6083f7321"><path d="M 180.289062 254.925781 L 0.132812 180.304688 L 74.753906 0.148438 L 254.910156 74.769531 Z M 180.289062 254.925781 " clip-rule="nonzero"/></clipPath><clipPath id="b35ed8331f"><path d="M 180.289062 254.925781 L 0.132812 180.304688 L 74.753906 0.148438 L 254.910156 74.769531 Z M 180.289062 254.925781 " clip-rule="nonzero"/></clipPath><clipPath id="134f06a433"><path d="M 90.210938 217.617188 C 139.957031 238.222656 196.992188 214.597656 217.601562 164.847656 C 238.207031 115.101562 214.582031 58.066406 164.832031 37.460938 C 115.085938 16.851562 58.050781 40.476562 37.441406 90.226562 C 16.835938 139.976562 40.460938 197.007812 90.210938 217.617188 Z M 90.210938 217.617188 " clip-rule="nonzero"/></clipPath></defs><rect x="-25.5" width="306" fill="#ffffff" y="-25.499998" height="305.999981" fill-opacity="1"/><g clip-path="url(#8e6c9d1826)"><g clip-path="url(#91ca635fdf)"><path fill="#262626" d="M 153.300781 51.496094 L 101.683594 51.496094 L 101.683594 0.0273438 L 153.300781 0.0273438 Z M 153.300781 51.496094 " fill-opacity="1" fill-rule="nonzero"/></g></g><g clip-path="url(#c642f598c1)"><g clip-path="url(#0a34e3e589)"><g clip-path="url(#5f37ca0edb)"><path fill="#ffffff" d="M 180.289062 254.925781 L 0.046875 180.269531 L 74.707031 0.03125 L 254.945312 74.6875 Z M 180.289062 254.925781 " fill-opacity="1" fill-rule="nonzero"/></g></g></g><g clip-path="url(#ffbba6dc4f)"><g clip-path="url(#d6083f7321)"><g clip-path="url(#b35ed8331f)"><g clip-path="url(#134f06a433)"><path stroke-linecap="butt" transform="matrix(-0.692618, -0.286892, 0.286892, -0.692618, 180.288124, 254.927716)" fill="none" stroke-linejoin="miter" d="M 130.052817 -0.000815066 C 58.229584 -0.000769694 0.00147014 58.227803 -0.00130441 130.057844 C -0.00125903 201.881077 58.227314 260.109191 130.055361 260.107152 C 201.880588 260.111921 260.108702 201.883348 260.111477 130.053306 C 260.109437 58.225259 201.882858 0.00195948 130.052817 -0.000815066 Z M 130.052817 -0.000815066 " stroke="#000000" stroke-width="12" stroke-opacity="1" stroke-miterlimit="4"/></g></g></g></g><path stroke-linecap="butt" transform="matrix(-0.286892, 0.692618, -0.69291, -0.287013, 166.905372, 38.2331)" fill="none" stroke-linejoin="miter" d="M -0.00195004 2.998669 L 260.119633 3.001764 " stroke="#000000" stroke-width="6" stroke-opacity="1" stroke-miterlimit="4"/><path stroke-linecap="butt" transform="matrix(0.692618, 0.286892, -0.287013, 0.69291, 39.239656, 85.678956)" fill="none" stroke-linejoin="miter" d="M 0.000420015 3.00001 L 260.120009 2.998293 " stroke="#000000" stroke-width="6" stroke-opacity="1" stroke-miterlimit="4"/><path stroke-linecap="butt" transform="matrix(0.286892, 0.692618, -0.69291, 0.287013, 92.250723, 36.511026)" fill="none" stroke-linejoin="miter" d="M -0.00125637 2.999652 L 260.118332 3.00137 " stroke="#000000" stroke-width="6" stroke-opacity="1" stroke-miterlimit="4"/><path stroke-linecap="butt" transform="matrix(0.692618, -0.286892, 0.287013, 0.69291, 35.52671, 160.33361)" fill="none" stroke-linejoin="miter" d="M -0.00214743 3.001599 L 260.119435 2.998504 " stroke="#000000" stroke-width="6" stroke-opacity="1" stroke-miterlimit="4"/><g fill="#000000" fill-opacity="1"><g transform="translate(138.41677, 183.343483)"><g><path d="M -11.6875 24.515625 C -10.207031 24.515625 -9.070312 23.859375 -8.28125 22.546875 C -7.488281 21.234375 -7.023438 19.210938 -6.890625 16.484375 L -6.96875 16.40625 C -8.007812 18.007812 -9.828125 18.8125 -12.421875 18.8125 C -14.140625 18.8125 -15.675781 18.421875 -17.03125 17.640625 C -18.382812 16.867188 -19.4375 15.796875 -20.1875 14.421875 C -20.9375 13.054688 -21.3125 11.53125 -21.3125 9.84375 C -21.3125 7.789062 -20.914062 5.957031 -20.125 4.34375 C -19.332031 2.726562 -18.21875 1.46875 -16.78125 0.5625 C -15.351562 -0.332031 -13.695312 -0.78125 -11.8125 -0.78125 C -8.3125 -0.78125 -5.675781 0.40625 -3.90625 2.78125 C -2.144531 5.164062 -1.265625 8.859375 -1.265625 13.859375 C -1.265625 19.046875 -2.164062 22.882812 -3.96875 25.375 C -5.78125 27.863281 -8.472656 29.109375 -12.046875 29.109375 C -17.210938 29.003906 -20.113281 26.546875 -20.75 21.734375 L -15.046875 21.734375 C -14.941406 22.609375 -14.613281 23.289062 -14.0625 23.78125 C -13.519531 24.269531 -12.726562 24.515625 -11.6875 24.515625 Z M -15.578125 9.34375 C -15.578125 10.851562 -15.171875 12.046875 -14.359375 12.921875 C -13.554688 13.796875 -12.554688 14.234375 -11.359375 14.234375 C -10.078125 14.234375 -9.03125 13.785156 -8.21875 12.890625 C -7.414062 12.003906 -7.015625 10.78125 -7.015625 9.21875 C -7.015625 7.632812 -7.429688 6.335938 -8.265625 5.328125 C -9.097656 4.316406 -10.195312 3.8125 -11.5625 3.8125 C -12.789062 3.8125 -13.765625 4.300781 -14.484375 5.28125 C -15.210938 6.269531 -15.578125 7.625 -15.578125 9.34375 Z M -15.578125 9.34375 "/></g></g></g><g fill="#000000" fill-opacity="1"><g transform="translate(96.405084, 175.382917)"><g><path d="M -7.796875 -7.796875 L -3.625 -3.625 C -6.582031 -0.9375 -10.226562 1.226562 -14.5625 2.875 C -18.90625 4.53125 -23.25 5.46875 -27.59375 5.6875 L -17.375 15.90625 L -21.046875 19.421875 L -35.53125 4.9375 L -32.40625 1.8125 C -27.769531 1.65625 -23.238281 0.695312 -18.8125 -1.0625 C -14.382812 -2.820312 -10.710938 -5.066406 -7.796875 -7.796875 Z M -7.796875 -7.796875 "/></g></g></g><g fill="#000000" fill-opacity="1"><g transform="translate(72.467052, 136.030903)"><g><path d="M -15.65625 -17.140625 C -14.84375 -18.691406 -13.890625 -19.800781 -12.796875 -20.46875 C -11.703125 -21.144531 -10.320312 -21.484375 -8.65625 -21.484375 C -6.957031 -21.484375 -5.382812 -21.078125 -3.9375 -20.265625 C -2.488281 -19.460938 -1.335938 -18.300781 -0.484375 -16.78125 C 0.359375 -15.269531 0.78125 -13.472656 0.78125 -11.390625 C 0.78125 -9.316406 0.40625 -7.519531 -0.34375 -6 C -1.09375 -4.488281 -2.144531 -3.328125 -3.5 -2.515625 C -4.851562 -1.710938 -6.421875 -1.3125 -8.203125 -1.3125 C -10.035156 -1.3125 -11.53125 -1.691406 -12.6875 -2.453125 C -13.851562 -3.222656 -14.773438 -4.316406 -15.453125 -5.734375 C -16.628906 -3.390625 -18.53125 -2.21875 -21.15625 -2.21875 C -22.738281 -2.21875 -24.128906 -2.613281 -25.328125 -3.40625 C -26.535156 -4.195312 -27.46875 -5.28125 -28.125 -6.65625 C -28.78125 -8.039062 -29.109375 -9.582031 -29.109375 -11.28125 C -29.109375 -13.132812 -28.78125 -14.757812 -28.125 -16.15625 C -27.46875 -17.550781 -26.566406 -18.625 -25.421875 -19.375 C -24.273438 -20.125 -22.976562 -20.5 -21.53125 -20.5 C -18.84375 -20.5 -16.882812 -19.378906 -15.65625 -17.140625 Z M -20.90625 -15 C -21.976562 -15 -22.847656 -14.675781 -23.515625 -14.03125 C -24.179688 -13.394531 -24.515625 -12.585938 -24.515625 -11.609375 C -24.515625 -10.347656 -24.1875 -9.378906 -23.53125 -8.703125 C -22.875 -8.035156 -22 -7.703125 -20.90625 -7.703125 C -19.945312 -7.703125 -19.101562 -8.050781 -18.375 -8.75 C -17.65625 -9.445312 -17.296875 -10.34375 -17.296875 -11.4375 C -17.296875 -12.5625 -17.628906 -13.4375 -18.296875 -14.0625 C -18.972656 -14.6875 -19.84375 -15 -20.90625 -15 Z M -8.40625 -15.578125 C -9.738281 -15.578125 -10.828125 -15.191406 -11.671875 -14.421875 C -12.523438 -13.660156 -12.953125 -12.613281 -12.953125 -11.28125 C -12.953125 -10.070312 -12.539062 -9.09375 -11.71875 -8.34375 C -10.90625 -7.59375 -9.816406 -7.21875 -8.453125 -7.21875 C -7.023438 -7.21875 -5.894531 -7.59375 -5.0625 -8.34375 C -4.226562 -9.09375 -3.8125 -10.125 -3.8125 -11.4375 C -3.8125 -12.71875 -4.238281 -13.726562 -5.09375 -14.46875 C -5.957031 -15.207031 -7.0625 -15.578125 -8.40625 -15.578125 Z M -8.40625 -15.578125 "/></g></g></g><g fill="#000000" fill-opacity="1"><g transform="translate(80.501087, 93.842073)"><g><path d="M 6.90625 -6.90625 L -7.265625 -21.078125 L -12.171875 -16.171875 L -15.015625 -19.015625 L -14.546875 -19.484375 C -12.910156 -21.117188 -11.972656 -22.679688 -11.734375 -24.171875 C -11.503906 -25.671875 -11.910156 -27.015625 -12.953125 -28.203125 L -9.625 -31.53125 L 10.953125 -10.953125 Z M 6.90625 -6.90625 "/></g></g></g><g fill="#000000" fill-opacity="1"><g transform="translate(116.251606, 72.190098)"><g><path d="M 14.890625 -10.453125 C 10.734375 -7.660156 8.546875 -5.867188 8.328125 -5.078125 L 20.953125 -5.078125 L 20.953125 0 L 1.0625 0 C 1.144531 -1.882812 1.390625 -3.375 1.796875 -4.46875 C 2.398438 -6.101562 3.269531 -7.492188 4.40625 -8.640625 C 5.539062 -9.796875 7.117188 -11.082031 9.140625 -12.5 C 10.804688 -13.707031 12.101562 -14.734375 13.03125 -15.578125 C 14.457031 -16.859375 15.171875 -18.375 15.171875 -20.125 C 15.171875 -21.28125 14.804688 -22.257812 14.078125 -23.0625 C 13.359375 -23.863281 12.382812 -24.265625 11.15625 -24.265625 C 9.707031 -24.265625 8.644531 -23.847656 7.96875 -23.015625 C 7.300781 -22.179688 6.96875 -20.863281 6.96875 -19.0625 L 6.96875 -18.8125 L 1.390625 -18.8125 C 1.390625 -22.09375 2.226562 -24.628906 3.90625 -26.421875 C 5.59375 -28.210938 7.941406 -29.109375 10.953125 -29.109375 C 12.835938 -29.109375 14.53125 -28.734375 16.03125 -27.984375 C 17.53125 -27.234375 18.71875 -26.164062 19.59375 -24.78125 C 20.46875 -23.40625 20.90625 -21.785156 20.90625 -19.921875 C 20.90625 -18.304688 20.53125 -16.769531 19.78125 -15.3125 C 19.03125 -13.851562 17.398438 -12.234375 14.890625 -10.453125 Z M 14.890625 -10.453125 "/></g></g></g><g fill="#000000" fill-opacity="1"><g transform="translate(158.352342, 80.187639)"><g><path d="M 22.78125 0.9375 L 22.734375 0.984375 C 23.367188 2.304688 23.546875 3.648438 23.265625 5.015625 C 22.984375 6.378906 22.242188 7.660156 21.046875 8.859375 C 19.765625 10.140625 18.320312 10.984375 16.71875 11.390625 C 15.113281 11.796875 13.5 11.753906 11.875 11.265625 C 10.25 10.773438 8.753906 9.847656 7.390625 8.484375 C 5.148438 6.242188 3.96875 3.914062 3.84375 1.5 C 3.726562 -0.90625 4.8125 -3.25 7.09375 -5.53125 L 11.046875 -1.578125 C 9.867188 -0.398438 9.226562 0.75 9.125 1.875 C 9.03125 3.007812 9.472656 4.066406 10.453125 5.046875 C 11.296875 5.890625 12.304688 6.3125 13.484375 6.3125 C 14.660156 6.3125 15.789062 5.769531 16.875 4.6875 C 17.851562 3.707031 18.242188 2.632812 18.046875 1.46875 C 17.847656 0.300781 17.050781 -0.976562 15.65625 -2.375 L 15.1875 -2.84375 L 18.078125 -5.734375 L 18.8125 -5 C 19.988281 -3.820312 21.070312 -3.195312 22.0625 -3.125 C 23.050781 -3.050781 24.007812 -3.476562 24.9375 -4.40625 C 25.75 -5.21875 26.164062 -6.085938 26.1875 -7.015625 C 26.21875 -7.953125 25.820312 -8.832031 25 -9.65625 C 24.09375 -10.5625 23.125 -10.972656 22.09375 -10.890625 C 21.0625 -10.804688 20.023438 -10.242188 18.984375 -9.203125 L 18.859375 -9.078125 L 15.09375 -12.84375 C 17.257812 -14.96875 19.507812 -15.988281 21.84375 -15.90625 C 24.1875 -15.832031 26.398438 -14.753906 28.484375 -12.671875 C 29.710938 -11.441406 30.582031 -10.117188 31.09375 -8.703125 C 31.601562 -7.285156 31.707031 -5.867188 31.40625 -4.453125 C 31.101562 -3.035156 30.363281 -1.738281 29.1875 -0.5625 C 28.289062 0.332031 27.285156 0.90625 26.171875 1.15625 C 25.054688 1.40625 23.925781 1.332031 22.78125 0.9375 Z M 22.78125 0.9375 "/></g></g></g><g fill="#000000" fill-opacity="1"><g transform="translate(184.469555, 114.114252)"><g><path d="M 10.90625 21.5625 L 6.4375 21.5625 L 6.4375 18.328125 L 0 18.328125 L 0 12.59375 L 6.4375 12.59375 L 6.4375 1.109375 L 11.390625 1.109375 L 29.109375 11.8125 L 29.109375 18.328125 L 10.90625 18.328125 Z M 23.40625 12.703125 L 23.40625 12.625 L 10.90625 5.328125 L 10.90625 12.59375 C 14.570312 12.59375 18.738281 12.628906 23.40625 12.703125 Z M 23.40625 12.703125 "/></g></g></g><g fill="#000000" fill-opacity="1"><g transform="translate(176.435514, 156.303096)"><g><path d="M 11.046875 22.578125 L 7.3125 17.40625 C 7.050781 18.582031 6.765625 19.46875 6.453125 20.0625 C 6.148438 20.664062 5.597656 21.367188 4.796875 22.171875 C 3.648438 23.316406 2.332031 24.101562 0.84375 24.53125 C -0.644531 24.957031 -2.171875 24.945312 -3.734375 24.5 C -5.296875 24.050781 -6.753906 23.148438 -8.109375 21.796875 C -9.515625 20.390625 -10.484375 18.828125 -11.015625 17.109375 C -11.554688 15.398438 -11.597656 13.679688 -11.140625 11.953125 C -10.679688 10.222656 -9.734375 8.640625 -8.296875 7.203125 C -6.265625 5.171875 -4.066406 4.066406 -1.703125 3.890625 C 0.660156 3.710938 2.804688 4.515625 4.734375 6.296875 L 0.671875 10.359375 C -1.429688 8.710938 -3.328125 8.734375 -5.015625 10.421875 C -5.972656 11.378906 -6.363281 12.484375 -6.1875 13.734375 C -6.019531 14.992188 -5.367188 16.191406 -4.234375 17.328125 C -3.171875 18.390625 -2.019531 19 -0.78125 19.15625 C 0.457031 19.3125 1.539062 18.925781 2.46875 18 C 3.125 17.34375 3.546875 16.644531 3.734375 15.90625 C 3.929688 15.175781 3.921875 14.472656 3.703125 13.796875 L 7.5 10.34375 L 17.390625 23.078125 L 6.078125 34.390625 L 2.65625 30.96875 Z M 11.046875 22.578125 "/></g></g></g></svg>