<svg xmlns="http://www.w3.org/2000/svg" xmlns:xlink="http://www.w3.org/1999/xlink" width="391" zoomAndPan="magnify" viewBox="0 0 293.25 98.249997" height="131" preserveAspectRatio="xMidYMid meet" version="1.0"><defs><g/><clipPath id="5ed44c3e87"><path d="M 0.738281 0 L 291.765625 0 L 291.765625 97.503906 L 0.738281 97.503906 Z M 0.738281 0 " clip-rule="nonzero"/></clipPath><clipPath id="cc80b6b55d"><path d="M 0.867188 0.507812 L 291.023438 0.507812 L 291.023438 97.425781 L 0.867188 97.425781 Z M 0.867188 0.507812 " clip-rule="nonzero"/></clipPath><clipPath id="e3aab594cd"><path d="M 17.242188 0.507812 L 274.648438 0.507812 C 283.691406 0.507812 291.023438 7.839844 291.023438 16.882812 L 291.023438 81.050781 C 291.023438 90.097656 283.691406 97.425781 274.648438 97.425781 L 17.242188 97.425781 C 8.199219 97.425781 0.867188 90.097656 0.867188 81.050781 L 0.867188 16.882812 C 0.867188 7.839844 8.199219 0.507812 17.242188 0.507812 Z M 17.242188 0.507812 " clip-rule="nonzero"/></clipPath><clipPath id="b25ca53147"><path d="M 0.871094 0.507812 L 291.152344 0.507812 L 291.152344 97.269531 L 0.871094 97.269531 Z M 0.871094 0.507812 " clip-rule="nonzero"/></clipPath><clipPath id="075aeb7dd9"><path d="M 17.253906 0.507812 L 274.765625 0.507812 C 283.816406 0.507812 291.148438 7.828125 291.148438 16.859375 L 291.148438 80.921875 C 291.148438 89.949219 283.816406 97.269531 274.765625 97.269531 L 17.253906 97.269531 C 8.207031 97.269531 0.871094 89.949219 0.871094 80.921875 L 0.871094 16.859375 C 0.871094 7.828125 8.207031 0.507812 17.253906 0.507812 Z M 17.253906 0.507812 " clip-rule="nonzero"/></clipPath><clipPath id="fdf3ee256b"><path d="M 23.011719 10.046875 L 72.992188 10.046875 L 72.992188 62.898438 L 23.011719 62.898438 Z M 23.011719 10.046875 " clip-rule="nonzero"/></clipPath><clipPath id="15d35a4cc1"><path d="M 48.003906 10.046875 C 34.199219 10.046875 23.011719 21.878906 23.011719 36.472656 C 23.011719 51.066406 34.199219 62.898438 48.003906 62.898438 C 61.804688 62.898438 72.992188 51.066406 72.992188 36.472656 C 72.992188 21.878906 61.804688 10.046875 48.003906 10.046875 Z M 48.003906 10.046875 " clip-rule="nonzero"/></clipPath><clipPath id="92f5b5eba1"><path d="M 23.011719 10.046875 L 72.882812 10.046875 L 72.882812 62.894531 L 23.011719 62.894531 Z M 23.011719 10.046875 " clip-rule="nonzero"/></clipPath><clipPath id="ba8995156c"><path d="M 47.945312 10.046875 C 34.175781 10.046875 23.011719 21.878906 23.011719 36.46875 C 23.011719 51.0625 34.175781 62.890625 47.945312 62.890625 C 61.71875 62.890625 72.882812 51.0625 72.882812 36.46875 C 72.882812 21.878906 61.71875 10.046875 47.945312 10.046875 Z M 47.945312 10.046875 " clip-rule="nonzero"/></clipPath><clipPath id="62de1c928e"><path d="M 48.003906 35.039062 L 97.984375 35.039062 L 97.984375 87.890625 L 48.003906 87.890625 Z M 48.003906 35.039062 " clip-rule="nonzero"/></clipPath><clipPath id="1d1986f53d"><path d="M 72.992188 35.039062 C 59.191406 35.039062 48.003906 46.867188 48.003906 61.464844 C 48.003906 76.058594 59.191406 87.890625 72.992188 87.890625 C 86.796875 87.890625 97.984375 76.058594 97.984375 61.464844 C 97.984375 46.867188 86.796875 35.039062 72.992188 35.039062 Z M 72.992188 35.039062 " clip-rule="nonzero"/></clipPath><clipPath id="46e65eeb2d"><path d="M 48.003906 35.039062 L 97.871094 35.039062 L 97.871094 87.882812 L 48.003906 87.882812 Z M 48.003906 35.039062 " clip-rule="nonzero"/></clipPath><clipPath id="265d6fe8c1"><path d="M 72.9375 35.039062 C 59.167969 35.039062 48.003906 46.867188 48.003906 61.460938 C 48.003906 76.054688 59.167969 87.882812 72.9375 87.882812 C 86.707031 87.882812 97.871094 76.054688 97.871094 61.460938 C 97.871094 46.867188 86.707031 35.039062 72.9375 35.039062 Z M 72.9375 35.039062 " clip-rule="nonzero"/></clipPath></defs><g clip-path="url(#5ed44c3e87)"><path fill="#ffffff" d="M 0.738281 0 L 291.765625 0 L 291.765625 97.503906 L 0.738281 97.503906 Z M 0.738281 0 " fill-opacity="1" fill-rule="nonzero"/></g><g clip-path="url(#cc80b6b55d)"><g clip-path="url(#e3aab594cd)"><path fill="#ffffff" d="M 0.867188 0.507812 L 291.023438 0.507812 L 291.023438 97.425781 L 0.867188 97.425781 Z M 0.867188 0.507812 " fill-opacity="1" fill-rule="nonzero"/></g></g><g clip-path="url(#b25ca53147)"><g clip-path="url(#075aeb7dd9)"><path stroke-linecap="butt" transform="matrix(0.744676, 0, 0, 0.743157, 0.871869, 0.509252)" fill="none" stroke-linejoin="miter" d="M 21.998874 -0.00193702 L 367.802502 -0.00193702 C 379.956485 -0.00193702 389.802417 9.848355 389.802417 22.000903 L 389.802417 108.2041 C 389.802417 120.351392 379.956485 130.201684 367.802502 130.201684 L 21.998874 130.201684 C 9.850137 130.201684 -0.00104099 120.351392 -0.00104099 108.2041 L -0.00104099 22.000903 C -0.00104099 9.848355 9.850137 -0.00193702 21.998874 -0.00193702 Z M 21.998874 -0.00193702 " stroke="#000000" stroke-width="12" stroke-opacity="1" stroke-miterlimit="4"/></g></g><g fill="#000000" fill-opacity="1"><g transform="translate(116.677639, 55.667148)"><g><path d="M 6.734375 -17.59375 L 6.734375 -12.765625 L 16.140625 -12.765625 L 16.140625 -8.984375 L 6.734375 -8.984375 L 6.734375 0 L 2.265625 0 L 2.265625 -21.375 L 17.46875 -21.375 L 17.46875 -17.59375 Z M 6.734375 -17.59375 "/></g></g></g><g fill="#000000" fill-opacity="1"><g transform="translate(134.868753, 55.667148)"><g><path d="M 2.046875 0 L 2.046875 -21.375 L 6.21875 -21.375 L 6.21875 0 Z M 2.046875 0 "/></g></g></g><g fill="#000000" fill-opacity="1"><g transform="translate(143.145567, 55.667148)"><g><path d="M 2.046875 -17.703125 L 2.046875 -21.578125 L 6.21875 -21.578125 L 6.21875 -17.703125 Z M 2.046875 0 L 2.046875 -15.828125 L 6.21875 -15.828125 L 6.21875 0 Z M 2.046875 0 "/></g></g></g><g fill="#000000" fill-opacity="1"><g transform="translate(151.422381, 55.667148)"><g><path d="M 17.203125 -8.09375 C 17.203125 -6.445312 16.9375 -4.976562 16.40625 -3.6875 C 15.882812 -2.394531 15.125 -1.382812 14.125 -0.65625 C 13.125 0.0625 11.925781 0.421875 10.53125 0.421875 C 8.445312 0.421875 6.960938 -0.394531 6.078125 -2.03125 L 6.015625 -2.03125 L 6.015625 6.15625 L 1.84375 6.15625 L 1.84375 -15.828125 L 5.828125 -15.828125 L 5.828125 -13.546875 L 5.890625 -13.546875 C 6.941406 -15.347656 8.519531 -16.25 10.625 -16.25 C 11.894531 -16.25 13.03125 -15.914062 14.03125 -15.25 C 15.03125 -14.582031 15.804688 -13.632812 16.359375 -12.40625 C 16.921875 -11.175781 17.203125 -9.738281 17.203125 -8.09375 Z M 9.5 -3 C 10.582031 -3 11.421875 -3.460938 12.015625 -4.390625 C 12.617188 -5.316406 12.921875 -6.460938 12.921875 -7.828125 C 12.921875 -9.335938 12.617188 -10.519531 12.015625 -11.375 C 11.410156 -12.226562 10.519531 -12.65625 9.34375 -12.65625 C 8.21875 -12.65625 7.347656 -12.222656 6.734375 -11.359375 C 6.128906 -10.492188 5.828125 -9.226562 5.828125 -7.5625 C 5.828125 -6.132812 6.15625 -5.015625 6.8125 -4.203125 C 7.46875 -3.398438 8.363281 -3 9.5 -3 Z M 9.5 -3 "/></g></g></g><g fill="#000000" fill-opacity="1"><g transform="translate(169.613495, 55.667148)"><g/></g></g><g fill="#000000" fill-opacity="1"><g transform="translate(177.890309, 55.667148)"><g><path d="M 15.6875 -0.625 L 15.6875 0 L 11.1875 0 C 10.945312 -0.695312 10.820312 -1.320312 10.8125 -1.875 C 10.050781 -1.0625 9.265625 -0.472656 8.453125 -0.109375 C 7.640625 0.242188 6.71875 0.421875 5.6875 0.421875 C 4.238281 0.421875 3.070312 0.00390625 2.1875 -0.828125 C 1.300781 -1.660156 0.859375 -2.785156 0.859375 -4.203125 C 0.859375 -5.523438 1.21875 -6.628906 1.9375 -7.515625 C 2.664062 -8.398438 3.960938 -9 5.828125 -9.3125 L 8.8125 -9.765625 C 9.5625 -9.878906 10.0625 -10.023438 10.3125 -10.203125 C 10.5625 -10.390625 10.6875 -10.691406 10.6875 -11.109375 C 10.6875 -11.703125 10.472656 -12.148438 10.046875 -12.453125 C 9.617188 -12.765625 8.921875 -12.921875 7.953125 -12.921875 C 6.378906 -12.921875 5.523438 -12.1875 5.390625 -10.71875 L 1.375 -10.71875 C 1.53125 -12.519531 2.140625 -13.890625 3.203125 -14.828125 C 4.265625 -15.773438 5.972656 -16.25 8.328125 -16.25 C 10.359375 -16.25 11.9375 -15.851562 13.0625 -15.0625 C 14.195312 -14.269531 14.765625 -13.175781 14.765625 -11.78125 L 14.765625 -2.953125 C 14.765625 -2.210938 14.835938 -1.664062 14.984375 -1.3125 C 15.128906 -0.96875 15.363281 -0.738281 15.6875 -0.625 Z M 10.6875 -5.75 L 10.6875 -7.703125 C 10.332031 -7.484375 9.945312 -7.3125 9.53125 -7.1875 C 9.113281 -7.0625 8.503906 -6.9375 7.703125 -6.8125 C 6.816406 -6.695312 6.148438 -6.453125 5.703125 -6.078125 C 5.253906 -5.710938 5.03125 -5.175781 5.03125 -4.46875 C 5.03125 -3.894531 5.207031 -3.429688 5.5625 -3.078125 C 5.925781 -2.734375 6.394531 -2.5625 6.96875 -2.5625 C 7.582031 -2.5625 8.175781 -2.691406 8.75 -2.953125 C 9.320312 -3.222656 9.785156 -3.601562 10.140625 -4.09375 C 10.503906 -4.582031 10.6875 -5.132812 10.6875 -5.75 Z M 10.6875 -5.75 "/></g></g></g><g fill="#000000" fill-opacity="1"><g transform="translate(194.443925, 55.667148)"><g/></g></g><g fill="#000000" fill-opacity="1"><g transform="translate(202.720739, 55.667148)"><g><path d="M 11.25 -18.0625 C 9.601562 -18.0625 8.289062 -17.414062 7.3125 -16.125 C 6.34375 -14.84375 5.859375 -13.007812 5.859375 -10.625 C 5.859375 -8.382812 6.316406 -6.601562 7.234375 -5.28125 C 8.160156 -3.957031 9.46875 -3.296875 11.15625 -3.296875 C 12.40625 -3.296875 13.4375 -3.640625 14.25 -4.328125 C 15.070312 -5.015625 15.617188 -6.015625 15.890625 -7.328125 L 20.359375 -7.328125 C 19.859375 -4.785156 18.800781 -2.832031 17.1875 -1.46875 C 15.570312 -0.113281 13.535156 0.5625 11.078125 0.5625 C 9.085938 0.5625 7.359375 0.113281 5.890625 -0.78125 C 4.421875 -1.6875 3.289062 -2.984375 2.5 -4.671875 C 1.707031 -6.359375 1.3125 -8.351562 1.3125 -10.65625 C 1.3125 -12.957031 1.722656 -14.957031 2.546875 -16.65625 C 3.367188 -18.351562 4.523438 -19.65625 6.015625 -20.5625 C 7.503906 -21.476562 9.21875 -21.9375 11.15625 -21.9375 C 12.84375 -21.9375 14.359375 -21.609375 15.703125 -20.953125 C 17.054688 -20.296875 18.132812 -19.394531 18.9375 -18.25 C 19.75 -17.113281 20.222656 -15.820312 20.359375 -14.375 L 15.890625 -14.375 C 15.316406 -16.832031 13.769531 -18.0625 11.25 -18.0625 Z M 11.25 -18.0625 "/></g></g></g><g fill="#000000" fill-opacity="1"><g transform="translate(224.216628, 55.667148)"><g><path d="M 17.203125 -7.921875 C 17.203125 -6.210938 16.863281 -4.734375 16.1875 -3.484375 C 15.519531 -2.234375 14.566406 -1.269531 13.328125 -0.59375 C 12.097656 0.0820312 10.691406 0.421875 9.109375 0.421875 C 7.523438 0.421875 6.113281 0.0820312 4.875 -0.59375 C 3.644531 -1.269531 2.691406 -2.234375 2.015625 -3.484375 C 1.347656 -4.734375 1.015625 -6.210938 1.015625 -7.921875 C 1.015625 -9.628906 1.351562 -11.109375 2.03125 -12.359375 C 2.71875 -13.617188 3.675781 -14.582031 4.90625 -15.25 C 6.132812 -15.914062 7.535156 -16.25 9.109375 -16.25 C 10.691406 -16.25 12.097656 -15.910156 13.328125 -15.234375 C 14.566406 -14.566406 15.519531 -13.609375 16.1875 -12.359375 C 16.863281 -11.109375 17.203125 -9.628906 17.203125 -7.921875 Z M 9.109375 -3.09375 C 10.378906 -3.09375 11.332031 -3.515625 11.96875 -4.359375 C 12.601562 -5.203125 12.921875 -6.390625 12.921875 -7.921875 C 12.921875 -9.441406 12.597656 -10.625 11.953125 -11.46875 C 11.304688 -12.3125 10.347656 -12.734375 9.078125 -12.734375 C 7.867188 -12.734375 6.9375 -12.316406 6.28125 -11.484375 C 5.625 -10.648438 5.296875 -9.460938 5.296875 -7.921875 C 5.296875 -6.347656 5.617188 -5.148438 6.265625 -4.328125 C 6.910156 -3.503906 7.859375 -3.09375 9.109375 -3.09375 Z M 9.109375 -3.09375 "/></g></g></g><g fill="#000000" fill-opacity="1"><g transform="translate(242.407742, 55.667148)"><g><path d="M 2.046875 -17.703125 L 2.046875 -21.578125 L 6.21875 -21.578125 L 6.21875 -17.703125 Z M 2.046875 0 L 2.046875 -15.828125 L 6.21875 -15.828125 L 6.21875 0 Z M 2.046875 0 "/></g></g></g><g fill="#000000" fill-opacity="1"><g transform="translate(250.684556, 55.667148)"><g><path d="M 16.25 -11.078125 L 16.25 0 L 12.078125 0 L 12.078125 -10.03125 C 12.078125 -10.90625 11.84375 -11.570312 11.375 -12.03125 C 10.914062 -12.5 10.25 -12.734375 9.375 -12.734375 C 8.40625 -12.734375 7.617188 -12.414062 7.015625 -11.78125 C 6.410156 -11.144531 6.109375 -10.285156 6.109375 -9.203125 L 6.109375 0 L 1.9375 0 L 1.9375 -15.828125 L 5.921875 -15.828125 L 5.921875 -13.515625 L 5.984375 -13.515625 C 6.484375 -14.441406 7.140625 -15.128906 7.953125 -15.578125 C 8.765625 -16.023438 9.695312 -16.25 10.75 -16.25 C 11.832031 -16.25 12.789062 -16.023438 13.625 -15.578125 C 14.457031 -15.128906 15.101562 -14.515625 15.5625 -13.734375 C 16.019531 -12.953125 16.25 -12.066406 16.25 -11.078125 Z M 16.25 -11.078125 "/></g></g></g><g clip-path="url(#fdf3ee256b)"><g clip-path="url(#15d35a4cc1)"><path fill="#ffffff" d="M 23.011719 10.046875 L 72.992188 10.046875 L 72.992188 62.898438 L 23.011719 62.898438 Z M 23.011719 10.046875 " fill-opacity="1" fill-rule="nonzero"/></g></g><g clip-path="url(#92f5b5eba1)"><g clip-path="url(#ba8995156c)"><path stroke-linecap="butt" transform="matrix(0.742759, 0, 0, 0.744318, 23.012117, 10.048336)" fill="none" stroke-linejoin="miter" d="M 33.568344 -0.00196342 C 15.029992 -0.00196342 -0.000536687 15.894507 -0.000536687 35.496131 C -0.000536687 55.103002 15.029992 70.994225 33.568344 70.994225 C 52.111956 70.994225 67.142484 55.103002 67.142484 35.496131 C 67.142484 15.894507 52.111956 -0.00196342 33.568344 -0.00196342 Z M 33.568344 -0.00196342 " stroke="#000000" stroke-width="12" stroke-opacity="1" stroke-miterlimit="4"/></g></g><g fill="#000000" fill-opacity="1"><g transform="translate(40.817603, 41.308224)"><g><path d="M 9.9375 -8.84375 L 9.9375 -14.25 L 12.921875 -14.25 L 12.921875 0 L 9.9375 0 L 9.9375 -6.390625 L 4.390625 -6.390625 L 4.390625 0 L 1.40625 0 L 1.40625 -14.25 L 4.390625 -14.25 L 4.390625 -8.84375 Z M 9.9375 -8.84375 "/></g></g></g><g clip-path="url(#62de1c928e)"><g clip-path="url(#1d1986f53d)"><path fill="#ffffff" d="M 48.003906 35.039062 L 97.984375 35.039062 L 97.984375 87.890625 L 48.003906 87.890625 Z M 48.003906 35.039062 " fill-opacity="1" fill-rule="nonzero"/></g></g><g clip-path="url(#46e65eeb2d)"><g clip-path="url(#265d6fe8c1)"><path stroke-linecap="butt" transform="matrix(0.742759, 0, 0, 0.744318, 48.00303, 35.039248)" fill="none" stroke-linejoin="miter" d="M 33.570061 -0.000249802 C 15.031708 -0.000249802 0.00117957 15.890973 0.00117957 35.497844 C 0.00117957 55.104716 15.031708 70.995939 33.570061 70.995939 C 52.108413 70.995939 67.138942 55.104716 67.138942 35.497844 C 67.138942 15.890973 52.108413 -0.000249802 33.570061 -0.000249802 Z M 33.570061 -0.000249802 " stroke="#000000" stroke-width="12" stroke-opacity="1" stroke-miterlimit="4"/></g></g><g fill="#000000" fill-opacity="1"><g transform="translate(66.913363, 66.299138)"><g><path d="M 7.5625 -11.734375 L 7.5625 0 L 4.578125 0 L 4.578125 -11.734375 L 0.28125 -11.734375 L 0.28125 -14.25 L 11.859375 -14.25 L 11.859375 -11.734375 Z M 7.5625 -11.734375 "/></g></g></g></svg>