<svg xmlns="http://www.w3.org/2000/svg" xmlns:xlink="http://www.w3.org/1999/xlink" width="340" zoomAndPan="magnify" viewBox="0 0 255 254.999984" height="340" preserveAspectRatio="xMidYMid meet" version="1.0"><defs><g/><clipPath id="5036ba1450"><path d="M 101.683594 0.0273438 L 153.300781 0.0273438 L 153.300781 51.496094 L 101.683594 51.496094 Z M 101.683594 0.0273438 " clip-rule="nonzero"/></clipPath><clipPath id="8a7013dfe3"><path d="M 127.492188 51.496094 L 101.683594 0.0273438 L 153.300781 0.0273438 Z M 127.492188 51.496094 " clip-rule="nonzero"/></clipPath><clipPath id="e5babf8db3"><path d="M 29 29 L 226 29 L 226 226 L 29 226 Z M 29 29 " clip-rule="nonzero"/></clipPath><clipPath id="8b67ed699b"><path d="M 180.289062 254.925781 L 0.046875 180.269531 L 74.707031 0.03125 L 254.945312 74.6875 Z M 180.289062 254.925781 " clip-rule="nonzero"/></clipPath><clipPath id="b643f4bd54"><path d="M 90.167969 217.597656 C 139.941406 238.214844 197 214.578125 217.617188 164.808594 C 238.234375 115.035156 214.597656 57.976562 164.824219 37.359375 C 115.054688 16.742188 57.992188 40.378906 37.378906 90.148438 C 16.761719 139.921875 40.398438 196.984375 90.167969 217.597656 Z M 90.167969 217.597656 " clip-rule="nonzero"/></clipPath><clipPath id="071753b049"><path d="M 29 30 L 226 30 L 226 226 L 29 226 Z M 29 30 " clip-rule="nonzero"/></clipPath><clipPath id="def919d35f"><path d="M 180.289062 254.925781 L 0.132812 180.304688 L 74.753906 0.148438 L 254.910156 74.769531 Z M 180.289062 254.925781 " clip-rule="nonzero"/></clipPath><clipPath id="22e047e496"><path d="M 180.289062 254.925781 L 0.132812 180.304688 L 74.753906 0.148438 L 254.910156 74.769531 Z M 180.289062 254.925781 " clip-rule="nonzero"/></clipPath><clipPath id="c2038d6134"><path d="M 90.210938 217.617188 C 139.957031 238.222656 196.992188 214.597656 217.601562 164.847656 C 238.207031 115.101562 214.582031 58.066406 164.832031 37.460938 C 115.085938 16.851562 58.050781 40.476562 37.441406 90.226562 C 16.835938 139.976562 40.460938 197.007812 90.210938 217.617188 Z M 90.210938 217.617188 " clip-rule="nonzero"/></clipPath></defs><rect x="-25.5" width="306" fill="#ffffff" y="-25.499998" height="305.999981" fill-opacity="1"/><g clip-path="url(#5036ba1450)"><g clip-path="url(#8a7013dfe3)"><path fill="#262626" d="M 153.300781 51.496094 L 101.683594 51.496094 L 101.683594 0.0273438 L 153.300781 0.0273438 Z M 153.300781 51.496094 " fill-opacity="1" fill-rule="nonzero"/></g></g><g clip-path="url(#e5babf8db3)"><g clip-path="url(#8b67ed699b)"><g clip-path="url(#b643f4bd54)"><path fill="#ffffff" d="M 180.289062 254.925781 L 0.046875 180.269531 L 74.707031 0.03125 L 254.945312 74.6875 Z M 180.289062 254.925781 " fill-opacity="1" fill-rule="nonzero"/></g></g></g><g clip-path="url(#071753b049)"><g clip-path="url(#def919d35f)"><g clip-path="url(#22e047e496)"><g clip-path="url(#c2038d6134)"><path stroke-linecap="butt" transform="matrix(-0.692618, -0.286892, 0.286892, -0.692618, 180.288124, 254.927716)" fill="none" stroke-linejoin="miter" d="M 130.052817 -0.000815066 C 58.229584 -0.000769694 0.00147014 58.227803 -0.00130441 130.057844 C -0.00125903 201.881077 58.227314 260.109191 130.055361 260.107152 C 201.880588 260.111921 260.108702 201.883348 260.111477 130.053306 C 260.109437 58.225259 201.882858 0.00195948 130.052817 -0.000815066 Z M 130.052817 -0.000815066 " stroke="#000000" stroke-width="12" stroke-opacity="1" stroke-miterlimit="4"/></g></g></g></g><path stroke-linecap="butt" transform="matrix(-0.286892, 0.692618, -0.69291, -0.287013, 166.905372, 38.2331)" fill="none" stroke-linejoin="miter" d="M -0.00195004 2.998669 L 260.119633 3.001764 " stroke="#000000" stroke-width="6" stroke-opacity="1" stroke-miterlimit="4"/><path stroke-linecap="butt" transform="matrix(0.692618, 0.286892, -0.287013, 0.69291, 39.239656, 85.678956)" fill="none" stroke-linejoin="miter" d="M 0.000420015 3.00001 L 260.120009 2.998293 " stroke="#000000" stroke-width="6" stroke-opacity="1" stroke-miterlimit="4"/><path stroke-linecap="butt" transform="matrix(0.286892, 0.692618, -0.69291, 0.287013, 92.250723, 36.511026)" fill="none" stroke-linejoin="miter" d="M -0.00125637 2.999652 L 260.118332 3.00137 " stroke="#000000" stroke-width="6" stroke-opacity="1" stroke-miterlimit="4"/><path stroke-linecap="butt" transform="matrix(0.692618, -0.286892, 0.287013, 0.69291, 35.52671, 160.33361)" fill="none" stroke-linejoin="miter" d="M -0.00214743 3.001599 L 260.119435 2.998504 " stroke="#000000" stroke-width="6" stroke-opacity="1" stroke-miterlimit="4"/><g fill="#000000" fill-opacity="1"><g transform="translate(138.41677, 183.343483)"><g><path d="M -8.15625 23.78125 L -7.140625 17.46875 C -8.148438 18.125 -8.972656 18.550781 -9.609375 18.75 C -10.253906 18.957031 -11.148438 19.0625 -12.296875 19.0625 C -13.910156 19.0625 -15.394531 18.6875 -16.75 17.9375 C -18.101562 17.1875 -19.175781 16.097656 -19.96875 14.671875 C -20.757812 13.253906 -21.15625 11.585938 -21.15625 9.671875 C -21.15625 7.679688 -20.738281 5.890625 -19.90625 4.296875 C -19.070312 2.710938 -17.878906 1.46875 -16.328125 0.5625 C -14.785156 -0.332031 -12.992188 -0.78125 -10.953125 -0.78125 C -8.078125 -0.78125 -5.742188 -0.0078125 -3.953125 1.53125 C -2.160156 3.082031 -1.210938 5.171875 -1.109375 7.796875 L -6.84375 7.796875 C -7.175781 5.140625 -8.53125 3.8125 -10.90625 3.8125 C -12.269531 3.8125 -13.332031 4.316406 -14.09375 5.328125 C -14.863281 6.335938 -15.25 7.648438 -15.25 9.265625 C -15.25 10.765625 -14.863281 12.003906 -14.09375 12.984375 C -13.332031 13.972656 -12.296875 14.46875 -10.984375 14.46875 C -10.054688 14.46875 -9.265625 14.273438 -8.609375 13.890625 C -7.953125 13.515625 -7.460938 13.007812 -7.140625 12.375 L -2.015625 12.625 L -4.015625 28.625 L -20.015625 28.625 L -20.015625 23.78125 Z M -8.15625 23.78125 "/></g></g></g><g fill="#000000" fill-opacity="1"><g transform="translate(96.405084, 175.382917)"><g><path d="M -25.59375 9.0625 C -24.539062 10.113281 -23.269531 10.453125 -21.78125 10.078125 C -20.300781 9.710938 -18.550781 8.613281 -16.53125 6.78125 L -16.515625 6.671875 C -18.390625 7.066406 -20.242188 6.347656 -22.078125 4.515625 C -23.296875 3.296875 -24.109375 1.929688 -24.515625 0.421875 C -24.929688 -1.078125 -24.914062 -2.570312 -24.46875 -4.0625 C -24.03125 -5.5625 -23.210938 -6.910156 -22.015625 -8.109375 C -20.566406 -9.554688 -18.992188 -10.570312 -17.296875 -11.15625 C -15.597656 -11.738281 -13.925781 -11.84375 -12.28125 -11.46875 C -10.632812 -11.09375 -9.144531 -10.238281 -7.8125 -8.90625 C -5.332031 -6.425781 -4.304688 -3.71875 -4.734375 -0.78125 C -5.171875 2.144531 -7.15625 5.375 -10.6875 8.90625 C -14.351562 12.570312 -17.707031 14.644531 -20.75 15.125 C -23.789062 15.601562 -26.570312 14.582031 -29.09375 12.0625 C -32.675781 8.332031 -32.992188 4.546875 -30.046875 0.703125 L -26.015625 4.734375 C -26.554688 5.421875 -26.804688 6.128906 -26.765625 6.859375 C -26.722656 7.585938 -26.332031 8.320312 -25.59375 9.0625 Z M -17.625 -4.40625 C -18.6875 -3.34375 -19.238281 -2.210938 -19.28125 -1.015625 C -19.332031 0.171875 -18.9375 1.1875 -18.09375 2.03125 C -17.1875 2.9375 -16.128906 3.359375 -14.921875 3.296875 C -13.722656 3.242188 -12.570312 2.664062 -11.46875 1.5625 C -10.351562 0.445312 -9.734375 -0.757812 -9.609375 -2.0625 C -9.492188 -3.375 -9.914062 -4.507812 -10.875 -5.46875 C -11.75 -6.34375 -12.785156 -6.6875 -13.984375 -6.5 C -15.191406 -6.320312 -16.40625 -5.625 -17.625 -4.40625 Z M -17.625 -4.40625 "/></g></g></g><g fill="#000000" fill-opacity="1"><g transform="translate(72.467052, 136.030903)"><g><path d="M 0 -11.03125 L 0 -5.125 C -3.988281 -5.3125 -8.101562 -6.351562 -12.34375 -8.25 C -16.582031 -10.15625 -20.3125 -12.570312 -23.53125 -15.5 L -23.53125 -1.03125 L -28.625 -1.140625 L -28.625 -21.640625 L -24.1875 -21.640625 C -20.800781 -18.472656 -16.921875 -15.945312 -12.546875 -14.0625 C -8.171875 -12.175781 -3.988281 -11.164062 0 -11.03125 Z M 0 -11.03125 "/></g></g></g><g fill="#000000" fill-opacity="1"><g transform="translate(80.501087, 93.842073)"><g><path d="M 1.046875 -23.203125 C 2.722656 -23.710938 4.179688 -23.816406 5.421875 -23.515625 C 6.671875 -23.222656 7.882812 -22.488281 9.0625 -21.3125 C 10.269531 -20.101562 11.097656 -18.703125 11.546875 -17.109375 C 12.003906 -15.523438 11.992188 -13.894531 11.515625 -12.21875 C 11.046875 -10.550781 10.070312 -8.976562 8.59375 -7.5 C 7.132812 -6.039062 5.601562 -5.035156 4 -4.484375 C 2.40625 -3.941406 0.84375 -3.863281 -0.6875 -4.25 C -2.21875 -4.632812 -3.613281 -5.457031 -4.875 -6.71875 C -6.175781 -8.019531 -6.960938 -9.347656 -7.234375 -10.703125 C -7.515625 -12.066406 -7.390625 -13.492188 -6.859375 -14.984375 C -9.359375 -14.148438 -11.535156 -14.660156 -13.390625 -16.515625 C -14.515625 -17.640625 -15.21875 -18.90625 -15.5 -20.3125 C -15.789062 -21.726562 -15.679688 -23.15625 -15.171875 -24.59375 C -14.660156 -26.03125 -13.800781 -27.351562 -12.59375 -28.5625 C -11.289062 -29.863281 -9.910156 -30.773438 -8.453125 -31.296875 C -7.003906 -31.828125 -5.609375 -31.953125 -4.265625 -31.671875 C -2.929688 -31.398438 -1.75 -30.75 -0.71875 -29.71875 C 1.175781 -27.820312 1.765625 -25.648438 1.046875 -23.203125 Z M -4.171875 -25.390625 C -4.929688 -26.148438 -5.769531 -26.535156 -6.6875 -26.546875 C -7.613281 -26.566406 -8.425781 -26.226562 -9.125 -25.53125 C -10.007812 -24.644531 -10.457031 -23.734375 -10.46875 -22.796875 C -10.476562 -21.859375 -10.097656 -21.003906 -9.328125 -20.234375 C -8.648438 -19.554688 -7.8125 -19.207031 -6.8125 -19.1875 C -5.8125 -19.164062 -4.921875 -19.546875 -4.140625 -20.328125 C -3.347656 -21.117188 -2.96875 -21.972656 -3 -22.890625 C -3.03125 -23.804688 -3.421875 -24.640625 -4.171875 -25.390625 Z M 5.078125 -16.953125 C 4.128906 -17.898438 3.082031 -18.398438 1.9375 -18.453125 C 0.800781 -18.515625 -0.234375 -18.078125 -1.171875 -17.140625 C -2.035156 -16.273438 -2.441406 -15.289062 -2.390625 -14.1875 C -2.335938 -13.082031 -1.832031 -12.050781 -0.875 -11.09375 C 0.132812 -10.082031 1.195312 -9.546875 2.3125 -9.484375 C 3.425781 -9.421875 4.453125 -9.859375 5.390625 -10.796875 C 6.296875 -11.703125 6.707031 -12.71875 6.625 -13.84375 C 6.539062 -14.96875 6.023438 -16.003906 5.078125 -16.953125 Z M 5.078125 -16.953125 "/></g></g></g><g fill="#000000" fill-opacity="1"><g transform="translate(116.251606, 72.190098)"><g><path d="M 9.765625 0 L 9.765625 -20.046875 L 2.828125 -20.046875 L 2.828125 -24.0625 L 3.484375 -24.0625 C 5.804688 -24.0625 7.578125 -24.503906 8.796875 -25.390625 C 10.015625 -26.285156 10.675781 -27.523438 10.78125 -29.109375 L 15.5 -29.109375 L 15.5 0 Z M 9.765625 0 "/></g></g></g><g fill="#000000" fill-opacity="1"><g transform="translate(158.352342, 80.187639)"><g><path d="M 17.921875 3.140625 C 13.015625 2.171875 10.203125 1.890625 9.484375 2.296875 L 18.40625 11.21875 L 14.8125 14.8125 L 0.75 0.75 C 2.144531 -0.519531 3.367188 -1.398438 4.421875 -1.890625 C 6.003906 -2.617188 7.601562 -2.988281 9.21875 -3 C 10.84375 -3.019531 12.875 -2.8125 15.3125 -2.375 C 17.34375 -2.050781 18.984375 -1.859375 20.234375 -1.796875 C 22.148438 -1.691406 23.726562 -2.257812 24.96875 -3.5 C 25.78125 -4.3125 26.210938 -5.257812 26.265625 -6.34375 C 26.316406 -7.425781 25.910156 -8.398438 25.046875 -9.265625 C 24.023438 -10.285156 22.976562 -10.738281 21.90625 -10.625 C 20.84375 -10.519531 19.675781 -9.832031 18.40625 -8.5625 L 18.21875 -8.375 L 14.28125 -12.3125 C 16.601562 -14.632812 18.988281 -15.832031 21.4375 -15.90625 C 23.894531 -15.988281 26.191406 -14.960938 28.328125 -12.828125 C 29.660156 -11.492188 30.585938 -10.03125 31.109375 -8.4375 C 31.640625 -6.851562 31.726562 -5.265625 31.375 -3.671875 C 31.019531 -2.078125 30.1875 -0.625 28.875 0.6875 C 27.726562 1.832031 26.375 2.65625 24.8125 3.15625 C 23.25 3.65625 20.953125 3.648438 17.921875 3.140625 Z M 17.921875 3.140625 "/></g></g></g><g fill="#000000" fill-opacity="1"><g transform="translate(184.469555, 114.114252)"><g><path d="M 15.453125 16.765625 L 15.375 16.765625 C 14.882812 18.160156 14.054688 19.238281 12.890625 20 C 11.734375 20.769531 10.304688 21.15625 8.609375 21.15625 C 6.804688 21.15625 5.191406 20.726562 3.765625 19.875 C 2.347656 19.03125 1.234375 17.859375 0.421875 16.359375 C -0.378906 14.859375 -0.78125 13.148438 -0.78125 11.234375 C -0.78125 8.066406 0.03125 5.585938 1.65625 3.796875 C 3.28125 2.003906 5.707031 1.109375 8.9375 1.109375 L 8.9375 6.6875 C 7.269531 6.6875 6 7.050781 5.125 7.78125 C 4.25 8.519531 3.8125 9.578125 3.8125 10.953125 C 3.8125 12.148438 4.226562 13.164062 5.0625 14 C 5.894531 14.832031 7.078125 15.25 8.609375 15.25 C 10.003906 15.25 11.039062 14.765625 11.71875 13.796875 C 12.40625 12.828125 12.75 11.359375 12.75 9.390625 L 12.75 8.734375 L 16.84375 8.734375 L 16.84375 9.765625 C 16.84375 11.429688 17.164062 12.640625 17.8125 13.390625 C 18.457031 14.140625 19.4375 14.515625 20.75 14.515625 C 21.894531 14.515625 22.804688 14.191406 23.484375 13.546875 C 24.171875 12.910156 24.515625 12.015625 24.515625 10.859375 C 24.515625 9.578125 24.117188 8.597656 23.328125 7.921875 C 22.535156 7.253906 21.398438 6.921875 19.921875 6.921875 L 19.765625 6.921875 L 19.765625 1.59375 C 22.796875 1.625 25.109375 2.492188 26.703125 4.203125 C 28.304688 5.910156 29.109375 8.238281 29.109375 11.1875 C 29.109375 12.914062 28.785156 14.460938 28.140625 15.828125 C 27.503906 17.191406 26.578125 18.269531 25.359375 19.0625 C 24.140625 19.851562 22.695312 20.25 21.03125 20.25 C 19.769531 20.25 18.65625 19.941406 17.6875 19.328125 C 16.71875 18.710938 15.972656 17.859375 15.453125 16.765625 Z M 15.453125 16.765625 "/></g></g></g><g fill="#000000" fill-opacity="1"><g transform="translate(176.435514, 156.303096)"><g><path d="M -7.53125 22.96875 L -10.703125 19.796875 L -8.40625 17.5 L -12.953125 12.953125 L -8.90625 8.90625 L -4.359375 13.453125 L 3.765625 5.328125 L 7.265625 8.828125 L 12.21875 28.9375 L 7.625 33.53125 L -5.234375 20.671875 Z M 7.5625 25.53125 L 7.625 25.46875 L 3.953125 11.484375 L -1.1875 16.625 C 1.394531 19.207031 4.3125 22.175781 7.5625 25.53125 Z M 7.5625 25.53125 "/></g></g></g></svg>