<svg xmlns="http://www.w3.org/2000/svg" xmlns:xlink="http://www.w3.org/1999/xlink" width="340" zoomAndPan="magnify" viewBox="0 0 255 254.999984" height="340" preserveAspectRatio="xMidYMid meet" version="1.0"><defs><g/><clipPath id="f7e25d32d1"><path d="M 101.683594 0.0273438 L 153.300781 0.0273438 L 153.300781 51.496094 L 101.683594 51.496094 Z M 101.683594 0.0273438 " clip-rule="nonzero"/></clipPath><clipPath id="6623861fd2"><path d="M 127.492188 51.496094 L 101.683594 0.0273438 L 153.300781 0.0273438 Z M 127.492188 51.496094 " clip-rule="nonzero"/></clipPath><clipPath id="c0d3e07fcb"><path d="M 29 29 L 226 29 L 226 226 L 29 226 Z M 29 29 " clip-rule="nonzero"/></clipPath><clipPath id="ecd7b1ae68"><path d="M 180.289062 254.925781 L 0.046875 180.269531 L 74.707031 0.03125 L 254.945312 74.6875 Z M 180.289062 254.925781 " clip-rule="nonzero"/></clipPath><clipPath id="e7a076473e"><path d="M 90.167969 217.597656 C 139.941406 238.214844 197 214.578125 217.617188 164.808594 C 238.234375 115.035156 214.597656 57.976562 164.824219 37.359375 C 115.054688 16.742188 57.992188 40.378906 37.378906 90.148438 C 16.761719 139.921875 40.398438 196.984375 90.167969 217.597656 Z M 90.167969 217.597656 " clip-rule="nonzero"/></clipPath><clipPath id="40e84130a2"><path d="M 29 30 L 226 30 L 226 226 L 29 226 Z M 29 30 " clip-rule="nonzero"/></clipPath><clipPath id="4e4d9ccd90"><path d="M 180.289062 254.925781 L 0.132812 180.304688 L 74.753906 0.148438 L 254.910156 74.769531 Z M 180.289062 254.925781 " clip-rule="nonzero"/></clipPath><clipPath id="97969418cd"><path d="M 180.289062 254.925781 L 0.132812 180.304688 L 74.753906 0.148438 L 254.910156 74.769531 Z M 180.289062 254.925781 " clip-rule="nonzero"/></clipPath><clipPath id="27e55c9261"><path d="M 90.210938 217.617188 C 139.957031 238.222656 196.992188 214.597656 217.601562 164.847656 C 238.207031 115.101562 214.582031 58.066406 164.832031 37.460938 C 115.085938 16.851562 58.050781 40.476562 37.441406 90.226562 C 16.835938 139.976562 40.460938 197.007812 90.210938 217.617188 Z M 90.210938 217.617188 " clip-rule="nonzero"/></clipPath></defs><rect x="-25.5" width="306" fill="#ffffff" y="-25.499998" height="305.999981" fill-opacity="1"/><g clip-path="url(#f7e25d32d1)"><g clip-path="url(#6623861fd2)"><path fill="#262626" d="M 153.300781 51.496094 L 101.683594 51.496094 L 101.683594 0.0273438 L 153.300781 0.0273438 Z M 153.300781 51.496094 " fill-opacity="1" fill-rule="nonzero"/></g></g><g clip-path="url(#c0d3e07fcb)"><g clip-path="url(#ecd7b1ae68)"><g clip-path="url(#e7a076473e)"><path fill="#ffffff" d="M 180.289062 254.925781 L 0.046875 180.269531 L 74.707031 0.03125 L 254.945312 74.6875 Z M 180.289062 254.925781 " fill-opacity="1" fill-rule="nonzero"/></g></g></g><g clip-path="url(#40e84130a2)"><g clip-path="url(#4e4d9ccd90)"><g clip-path="url(#97969418cd)"><g clip-path="url(#27e55c9261)"><path stroke-linecap="butt" transform="matrix(-0.692618, -0.286892, 0.286892, -0.692618, 180.288124, 254.927716)" fill="none" stroke-linejoin="miter" d="M 130.052817 -0.000815066 C 58.229584 -0.000769694 0.00147014 58.227803 -0.00130441 130.057844 C -0.00125903 201.881077 58.227314 260.109191 130.055361 260.107152 C 201.880588 260.111921 260.108702 201.883348 260.111477 130.053306 C 260.109437 58.225259 201.882858 0.00195948 130.052817 -0.000815066 Z M 130.052817 -0.000815066 " stroke="#000000" stroke-width="12" stroke-opacity="1" stroke-miterlimit="4"/></g></g></g></g><path stroke-linecap="butt" transform="matrix(-0.286892, 0.692618, -0.69291, -0.287013, 166.905372, 38.2331)" fill="none" stroke-linejoin="miter" d="M -0.00195004 2.998669 L 260.119633 3.001764 " stroke="#000000" stroke-width="6" stroke-opacity="1" stroke-miterlimit="4"/><path stroke-linecap="butt" transform="matrix(0.692618, 0.286892, -0.287013, 0.69291, 39.239656, 85.678956)" fill="none" stroke-linejoin="miter" d="M 0.000420015 3.00001 L 260.120009 2.998293 " stroke="#000000" stroke-width="6" stroke-opacity="1" stroke-miterlimit="4"/><path stroke-linecap="butt" transform="matrix(0.286892, 0.692618, -0.69291, 0.287013, 92.250723, 36.511026)" fill="none" stroke-linejoin="miter" d="M -0.00125637 2.999652 L 260.118332 3.00137 " stroke="#000000" stroke-width="6" stroke-opacity="1" stroke-miterlimit="4"/><path stroke-linecap="butt" transform="matrix(0.692618, -0.286892, 0.287013, 0.69291, 35.52671, 160.33361)" fill="none" stroke-linejoin="miter" d="M -0.00214743 3.001599 L 260.119435 2.998504 " stroke="#000000" stroke-width="6" stroke-opacity="1" stroke-miterlimit="4"/><g fill="#000000" fill-opacity="1"><g transform="translate(138.41677, 183.343483)"><g><path d="M -17.140625 15.65625 C -18.691406 14.84375 -19.800781 13.890625 -20.46875 12.796875 C -21.144531 11.703125 -21.484375 10.320312 -21.484375 8.65625 C -21.484375 6.957031 -21.078125 5.382812 -20.265625 3.9375 C -19.460938 2.488281 -18.300781 1.335938 -16.78125 0.484375 C -15.269531 -0.359375 -13.472656 -0.78125 -11.390625 -0.78125 C -9.316406 -0.78125 -7.519531 -0.40625 -6 0.34375 C -4.488281 1.09375 -3.328125 2.144531 -2.515625 3.5 C -1.710938 4.851562 -1.3125 6.421875 -1.3125 8.203125 C -1.3125 10.035156 -1.691406 11.53125 -2.453125 12.6875 C -3.222656 13.851562 -4.316406 14.773438 -5.734375 15.453125 C -3.390625 16.628906 -2.21875 18.53125 -2.21875 21.15625 C -2.21875 22.738281 -2.613281 24.128906 -3.40625 25.328125 C -4.195312 26.535156 -5.28125 27.46875 -6.65625 28.125 C -8.039062 28.78125 -9.582031 29.109375 -11.28125 29.109375 C -13.132812 29.109375 -14.757812 28.78125 -16.15625 28.125 C -17.550781 27.46875 -18.625 26.566406 -19.375 25.421875 C -20.125 24.273438 -20.5 22.976562 -20.5 21.53125 C -20.5 18.84375 -19.378906 16.882812 -17.140625 15.65625 Z M -15 20.90625 C -15 21.976562 -14.675781 22.847656 -14.03125 23.515625 C -13.394531 24.179688 -12.585938 24.515625 -11.609375 24.515625 C -10.347656 24.515625 -9.378906 24.1875 -8.703125 23.53125 C -8.035156 22.875 -7.703125 22 -7.703125 20.90625 C -7.703125 19.945312 -8.050781 19.101562 -8.75 18.375 C -9.445312 17.65625 -10.34375 17.296875 -11.4375 17.296875 C -12.5625 17.296875 -13.4375 17.628906 -14.0625 18.296875 C -14.6875 18.972656 -15 19.84375 -15 20.90625 Z M -15.578125 8.40625 C -15.578125 9.738281 -15.191406 10.828125 -14.421875 11.671875 C -13.660156 12.523438 -12.613281 12.953125 -11.28125 12.953125 C -10.070312 12.953125 -9.09375 12.539062 -8.34375 11.71875 C -7.59375 10.90625 -7.21875 9.816406 -7.21875 8.453125 C -7.21875 7.023438 -7.59375 5.894531 -8.34375 5.0625 C -9.09375 4.226562 -10.125 3.8125 -11.4375 3.8125 C -12.71875 3.8125 -13.726562 4.238281 -14.46875 5.09375 C -15.207031 5.957031 -15.578125 7.0625 -15.578125 8.40625 Z M -15.578125 8.40625 "/></g></g></g><g fill="#000000" fill-opacity="1"><g transform="translate(96.405084, 175.382917)"><g><path d="M -6.90625 -6.90625 L -21.078125 7.265625 L -16.171875 12.171875 L -19.015625 15.015625 L -19.484375 14.546875 C -21.117188 12.910156 -22.679688 11.972656 -24.171875 11.734375 C -25.671875 11.503906 -27.015625 11.910156 -28.203125 12.953125 L -31.53125 9.625 L -10.953125 -10.953125 Z M -6.90625 -6.90625 "/></g></g></g><g fill="#000000" fill-opacity="1"><g transform="translate(72.467052, 136.030903)"><g><path d="M -10.453125 -14.890625 C -7.660156 -10.734375 -5.867188 -8.546875 -5.078125 -8.328125 L -5.078125 -20.953125 L 0 -20.953125 L 0 -1.0625 C -1.882812 -1.144531 -3.375 -1.390625 -4.46875 -1.796875 C -6.101562 -2.398438 -7.492188 -3.269531 -8.640625 -4.40625 C -9.796875 -5.539062 -11.082031 -7.117188 -12.5 -9.140625 C -13.707031 -10.804688 -14.734375 -12.101562 -15.578125 -13.03125 C -16.859375 -14.457031 -18.375 -15.171875 -20.125 -15.171875 C -21.28125 -15.171875 -22.257812 -14.804688 -23.0625 -14.078125 C -23.863281 -13.359375 -24.265625 -12.382812 -24.265625 -11.15625 C -24.265625 -9.707031 -23.847656 -8.644531 -23.015625 -7.96875 C -22.179688 -7.300781 -20.863281 -6.96875 -19.0625 -6.96875 L -18.8125 -6.96875 L -18.8125 -1.390625 C -22.09375 -1.390625 -24.628906 -2.226562 -26.421875 -3.90625 C -28.210938 -5.59375 -29.109375 -7.941406 -29.109375 -10.953125 C -29.109375 -12.835938 -28.734375 -14.53125 -27.984375 -16.03125 C -27.234375 -17.53125 -26.164062 -18.71875 -24.78125 -19.59375 C -23.40625 -20.46875 -21.785156 -20.90625 -19.921875 -20.90625 C -18.304688 -20.90625 -16.769531 -20.53125 -15.3125 -19.78125 C -13.851562 -19.03125 -12.234375 -17.398438 -10.453125 -14.890625 Z M -10.453125 -14.890625 "/></g></g></g><g fill="#000000" fill-opacity="1"><g transform="translate(80.501087, 93.842073)"><g><path d="M 0.9375 -22.78125 L 0.984375 -22.734375 C 2.304688 -23.367188 3.648438 -23.546875 5.015625 -23.265625 C 6.378906 -22.984375 7.660156 -22.242188 8.859375 -21.046875 C 10.140625 -19.765625 10.984375 -18.320312 11.390625 -16.71875 C 11.796875 -15.113281 11.753906 -13.5 11.265625 -11.875 C 10.773438 -10.25 9.847656 -8.753906 8.484375 -7.390625 C 6.242188 -5.148438 3.914062 -3.96875 1.5 -3.84375 C -0.90625 -3.726562 -3.25 -4.8125 -5.53125 -7.09375 L -1.578125 -11.046875 C -0.398438 -9.867188 0.75 -9.226562 1.875 -9.125 C 3.007812 -9.03125 4.066406 -9.472656 5.046875 -10.453125 C 5.890625 -11.296875 6.3125 -12.304688 6.3125 -13.484375 C 6.3125 -14.660156 5.769531 -15.789062 4.6875 -16.875 C 3.707031 -17.851562 2.632812 -18.242188 1.46875 -18.046875 C 0.300781 -17.847656 -0.976562 -17.050781 -2.375 -15.65625 L -2.84375 -15.1875 L -5.734375 -18.078125 L -5 -18.8125 C -3.820312 -19.988281 -3.195312 -21.070312 -3.125 -22.0625 C -3.050781 -23.050781 -3.476562 -24.007812 -4.40625 -24.9375 C -5.21875 -25.75 -6.085938 -26.164062 -7.015625 -26.1875 C -7.953125 -26.21875 -8.832031 -25.820312 -9.65625 -25 C -10.5625 -24.09375 -10.972656 -23.125 -10.890625 -22.09375 C -10.804688 -21.0625 -10.242188 -20.023438 -9.203125 -18.984375 L -9.078125 -18.859375 L -12.84375 -15.09375 C -14.96875 -17.257812 -15.988281 -19.507812 -15.90625 -21.84375 C -15.832031 -24.1875 -14.753906 -26.398438 -12.671875 -28.484375 C -11.441406 -29.710938 -10.117188 -30.582031 -8.703125 -31.09375 C -7.285156 -31.601562 -5.867188 -31.707031 -4.453125 -31.40625 C -3.035156 -31.101562 -1.738281 -30.363281 -0.5625 -29.1875 C 0.332031 -28.289062 0.90625 -27.285156 1.15625 -26.171875 C 1.40625 -25.054688 1.332031 -23.925781 0.9375 -22.78125 Z M 0.9375 -22.78125 "/></g></g></g><g fill="#000000" fill-opacity="1"><g transform="translate(116.251606, 72.190098)"><g><path d="M 21.5625 -10.90625 L 21.5625 -6.4375 L 18.328125 -6.4375 L 18.328125 0 L 12.59375 0 L 12.59375 -6.4375 L 1.109375 -6.4375 L 1.109375 -11.390625 L 11.8125 -29.109375 L 18.328125 -29.109375 L 18.328125 -10.90625 Z M 12.703125 -23.40625 L 12.625 -23.40625 L 5.328125 -10.90625 L 12.59375 -10.90625 C 12.59375 -14.570312 12.628906 -18.738281 12.703125 -23.40625 Z M 12.703125 -23.40625 "/></g></g></g><g fill="#000000" fill-opacity="1"><g transform="translate(158.352342, 80.187639)"><g><path d="M 22.578125 -11.046875 L 17.40625 -7.3125 C 18.582031 -7.050781 19.46875 -6.765625 20.0625 -6.453125 C 20.664062 -6.148438 21.367188 -5.597656 22.171875 -4.796875 C 23.316406 -3.648438 24.101562 -2.332031 24.53125 -0.84375 C 24.957031 0.644531 24.945312 2.171875 24.5 3.734375 C 24.050781 5.296875 23.148438 6.753906 21.796875 8.109375 C 20.390625 9.515625 18.828125 10.484375 17.109375 11.015625 C 15.398438 11.554688 13.679688 11.597656 11.953125 11.140625 C 10.222656 10.679688 8.640625 9.734375 7.203125 8.296875 C 5.171875 6.265625 4.066406 4.066406 3.890625 1.703125 C 3.710938 -0.660156 4.515625 -2.804688 6.296875 -4.734375 L 10.359375 -0.671875 C 8.710938 1.429688 8.734375 3.328125 10.421875 5.015625 C 11.378906 5.972656 12.484375 6.363281 13.734375 6.1875 C 14.992188 6.019531 16.191406 5.367188 17.328125 4.234375 C 18.390625 3.171875 19 2.019531 19.15625 0.78125 C 19.3125 -0.457031 18.925781 -1.539062 18 -2.46875 C 17.34375 -3.125 16.644531 -3.546875 15.90625 -3.734375 C 15.175781 -3.929688 14.472656 -3.921875 13.796875 -3.703125 L 10.34375 -7.5 L 23.078125 -17.390625 L 34.390625 -6.078125 L 30.96875 -2.65625 Z M 22.578125 -11.046875 "/></g></g></g><g fill="#000000" fill-opacity="1"><g transform="translate(184.469555, 114.114252)"><g><path d="M 24.515625 11.6875 C 24.515625 10.207031 23.859375 9.070312 22.546875 8.28125 C 21.234375 7.488281 19.210938 7.023438 16.484375 6.890625 L 16.40625 6.96875 C 18.007812 8.007812 18.8125 9.828125 18.8125 12.421875 C 18.8125 14.140625 18.421875 15.675781 17.640625 17.03125 C 16.867188 18.382812 15.796875 19.4375 14.421875 20.1875 C 13.054688 20.9375 11.53125 21.3125 9.84375 21.3125 C 7.789062 21.3125 5.957031 20.914062 4.34375 20.125 C 2.726562 19.332031 1.46875 18.21875 0.5625 16.78125 C -0.332031 15.351562 -0.78125 13.695312 -0.78125 11.8125 C -0.78125 8.3125 0.40625 5.675781 2.78125 3.90625 C 5.164062 2.144531 8.859375 1.265625 13.859375 1.265625 C 19.046875 1.265625 22.882812 2.164062 25.375 3.96875 C 27.863281 5.78125 29.109375 8.472656 29.109375 12.046875 C 29.003906 17.210938 26.546875 20.113281 21.734375 20.75 L 21.734375 15.046875 C 22.609375 14.941406 23.289062 14.613281 23.78125 14.0625 C 24.269531 13.519531 24.515625 12.726562 24.515625 11.6875 Z M 9.34375 15.578125 C 10.851562 15.578125 12.046875 15.171875 12.921875 14.359375 C 13.796875 13.554688 14.234375 12.554688 14.234375 11.359375 C 14.234375 10.078125 13.785156 9.03125 12.890625 8.21875 C 12.003906 7.414062 10.78125 7.015625 9.21875 7.015625 C 7.632812 7.015625 6.335938 7.429688 5.328125 8.265625 C 4.316406 9.097656 3.8125 10.195312 3.8125 11.5625 C 3.8125 12.789062 4.300781 13.765625 5.28125 14.484375 C 6.269531 15.210938 7.625 15.578125 9.34375 15.578125 Z M 9.34375 15.578125 "/></g></g></g><g fill="#000000" fill-opacity="1"><g transform="translate(176.435514, 156.303096)"><g><path d="M -7.796875 7.796875 L -3.625 3.625 C -0.9375 6.582031 1.226562 10.226562 2.875 14.5625 C 4.53125 18.90625 5.46875 23.25 5.6875 27.59375 L 15.90625 17.375 L 19.421875 21.046875 L 4.9375 35.53125 L 1.8125 32.40625 C 1.65625 27.769531 0.695312 23.238281 -1.0625 18.8125 C -2.820312 14.382812 -5.066406 10.710938 -7.796875 7.796875 Z M -7.796875 7.796875 "/></g></g></g></svg>