<svg xmlns="http://www.w3.org/2000/svg" xmlns:xlink="http://www.w3.org/1999/xlink" width="391" zoomAndPan="magnify" viewBox="0 0 293.25 98.999996" height="132" preserveAspectRatio="xMidYMid meet" version="1.0"><defs><g/><clipPath id="7b495dca4d"><path d="M 0 0.125 L 292.5 0.125 L 292.5 98.871094 L 0 98.871094 Z M 0 0.125 " clip-rule="nonzero"/></clipPath><clipPath id="f1fcf985cf"><path d="M 0.472656 0.796875 L 292.09375 0.796875 L 292.09375 98.203125 L 0.472656 98.203125 Z M 0.472656 0.796875 " clip-rule="nonzero"/></clipPath><clipPath id="74fa90c86d"><path d="M 16.929688 0.796875 L 275.636719 0.796875 C 284.726562 0.796875 292.09375 8.164062 292.09375 17.253906 L 292.09375 81.746094 C 292.09375 90.835938 284.726562 98.203125 275.636719 98.203125 L 16.929688 98.203125 C 7.839844 98.203125 0.472656 90.835938 0.472656 81.746094 L 0.472656 17.253906 C 0.472656 8.164062 7.839844 0.796875 16.929688 0.796875 Z M 16.929688 0.796875 " clip-rule="nonzero"/></clipPath><clipPath id="ac13e7d9a9"><path d="M 0.476562 0.796875 L 292.226562 0.796875 L 292.226562 98.046875 L 0.476562 98.046875 Z M 0.476562 0.796875 " clip-rule="nonzero"/></clipPath><clipPath id="5696c2986f"><path d="M 16.941406 0.796875 L 275.757812 0.796875 C 284.851562 0.796875 292.222656 8.152344 292.222656 17.226562 L 292.222656 81.617188 C 292.222656 90.691406 284.851562 98.046875 275.757812 98.046875 L 16.941406 98.046875 C 7.847656 98.046875 0.476562 90.691406 0.476562 81.617188 L 0.476562 17.226562 C 0.476562 8.152344 7.847656 0.796875 16.941406 0.796875 Z M 16.941406 0.796875 " clip-rule="nonzero"/></clipPath></defs><g clip-path="url(#7b495dca4d)"><path fill="#ffffff" d="M 0 0.125 L 292.5 0.125 L 292.5 98.875 L 0 98.875 Z M 0 0.125 " fill-opacity="1" fill-rule="nonzero"/></g><g clip-path="url(#f1fcf985cf)"><g clip-path="url(#74fa90c86d)"><path fill="#ffffff" d="M 0.472656 0.796875 L 292.09375 0.796875 L 292.09375 98.203125 L 0.472656 98.203125 Z M 0.472656 0.796875 " fill-opacity="1" fill-rule="nonzero"/></g></g><g clip-path="url(#ac13e7d9a9)"><g clip-path="url(#5696c2986f)"><path stroke-linecap="butt" transform="matrix(0.748447, 0, 0, 0.74692, 0.475326, 0.795607)" fill="none" stroke-linejoin="miter" d="M 22.000342 0.00169752 L 367.805137 0.00169752 C 379.955304 0.00169752 389.803827 9.849436 389.803827 21.998292 L 389.803827 108.206534 C 389.803827 120.35539 379.955304 130.203129 367.805137 130.203129 L 22.000342 130.203129 C 9.850176 130.203129 0.00165217 120.35539 0.00165217 108.206534 L 0.00165217 21.998292 C 0.00165217 9.849436 9.850176 0.00169752 22.000342 0.00169752 Z M 22.000342 0.00169752 " stroke="#000000" stroke-width="12" stroke-opacity="1" stroke-miterlimit="4"/></g></g><g fill="#000000" fill-opacity="1"><g transform="translate(118.013073, 56.232775)"><g><path d="M 19.890625 -15.40625 C 19.890625 -14.1875 19.597656 -13.117188 19.015625 -12.203125 C 18.441406 -11.285156 17.628906 -10.648438 16.578125 -10.296875 L 17.296875 -9.9375 C 18.109375 -9.5 18.644531 -8.878906 18.90625 -8.078125 C 19.164062 -7.273438 19.296875 -6.28125 19.296875 -5.09375 L 19.296875 -3.078125 C 19.296875 -1.566406 19.613281 -0.726562 20.25 -0.5625 L 20.25 0 L 15.296875 0 C 15.171875 -0.351562 15.0625 -0.820312 14.96875 -1.40625 C 14.882812 -1.988281 14.84375 -2.535156 14.84375 -3.046875 L 14.8125 -5.390625 C 14.8125 -6.304688 14.648438 -6.976562 14.328125 -7.40625 C 14.015625 -7.832031 13.617188 -8.101562 13.140625 -8.21875 C 12.660156 -8.34375 12.039062 -8.40625 11.28125 -8.40625 L 6.671875 -8.40625 L 6.671875 0 L 2.28125 0 L 2.28125 -21.484375 L 13.375 -21.484375 C 14.707031 -21.484375 15.867188 -21.203125 16.859375 -20.640625 C 17.847656 -20.085938 18.597656 -19.351562 19.109375 -18.4375 C 19.628906 -17.519531 19.890625 -16.507812 19.890625 -15.40625 Z M 15.40625 -14.953125 C 15.40625 -15.816406 15.128906 -16.503906 14.578125 -17.015625 C 14.035156 -17.523438 13.304688 -17.78125 12.390625 -17.78125 L 6.671875 -17.78125 L 6.671875 -12.03125 L 12.0625 -12.03125 C 13.175781 -12.03125 14.007812 -12.253906 14.5625 -12.703125 C 15.125 -13.148438 15.40625 -13.898438 15.40625 -14.953125 Z M 15.40625 -14.953125 "/></g></g></g><g fill="#000000" fill-opacity="1"><g transform="translate(139.617797, 56.232775)"><g><path d="M 17.296875 -7.953125 C 17.296875 -6.242188 16.957031 -4.757812 16.28125 -3.5 C 15.601562 -2.238281 14.644531 -1.269531 13.40625 -0.59375 C 12.164062 0.0820312 10.75 0.421875 9.15625 0.421875 C 7.5625 0.421875 6.144531 0.0820312 4.90625 -0.59375 C 3.664062 -1.269531 2.707031 -2.238281 2.03125 -3.5 C 1.351562 -4.757812 1.015625 -6.242188 1.015625 -7.953125 C 1.015625 -9.671875 1.359375 -11.160156 2.046875 -12.421875 C 2.734375 -13.691406 3.695312 -14.660156 4.9375 -15.328125 C 6.175781 -16.003906 7.582031 -16.34375 9.15625 -16.34375 C 10.75 -16.34375 12.164062 -16 13.40625 -15.3125 C 14.644531 -14.632812 15.601562 -13.664062 16.28125 -12.40625 C 16.957031 -11.15625 17.296875 -9.671875 17.296875 -7.953125 Z M 9.15625 -3.109375 C 10.4375 -3.109375 11.394531 -3.53125 12.03125 -4.375 C 12.664062 -5.226562 12.984375 -6.421875 12.984375 -7.953125 C 12.984375 -9.492188 12.660156 -10.6875 12.015625 -11.53125 C 11.367188 -12.382812 10.40625 -12.8125 9.125 -12.8125 C 7.90625 -12.8125 6.96875 -12.390625 6.3125 -11.546875 C 5.65625 -10.710938 5.328125 -9.515625 5.328125 -7.953125 C 5.328125 -6.378906 5.648438 -5.175781 6.296875 -4.34375 C 6.941406 -3.519531 7.894531 -3.109375 9.15625 -3.109375 Z M 9.15625 -3.109375 "/></g></g></g><g fill="#000000" fill-opacity="1"><g transform="translate(157.901015, 56.232775)"><g><path d="M 2.0625 0 L 2.0625 -21.484375 L 6.25 -21.484375 L 6.25 0 Z M 2.0625 0 "/></g></g></g><g fill="#000000" fill-opacity="1"><g transform="translate(166.219736, 56.232775)"><g><path d="M 2.0625 0 L 2.0625 -21.484375 L 6.25 -21.484375 L 6.25 0 Z M 2.0625 0 "/></g></g></g></svg>