<svg xmlns="http://www.w3.org/2000/svg" xmlns:xlink="http://www.w3.org/1999/xlink" width="190" zoomAndPan="magnify" viewBox="0 0 142.5 143.249994" height="191" preserveAspectRatio="xMidYMid meet" version="1.0"><defs><g/><clipPath id="85e5db4596"><path d="M 0.121094 0 L 141.878906 0 L 141.878906 142.503906 L 0.121094 142.503906 Z M 0.121094 0 " clip-rule="nonzero"/></clipPath><clipPath id="04920f76dc"><path d="M 0.121094 0.0351562 L 141.878906 0.0351562 L 141.878906 142.480469 L 0.121094 142.480469 Z M 0.121094 0.0351562 " clip-rule="nonzero"/></clipPath><clipPath id="47c83f5ed5"><path d="M 71.105469 0.0351562 C 31.902344 0.0351562 0.121094 31.921875 0.121094 71.257812 C 0.121094 110.59375 31.902344 142.480469 71.105469 142.480469 C 110.308594 142.480469 142.089844 110.59375 142.089844 71.257812 C 142.089844 31.921875 110.308594 0.0351562 71.105469 0.0351562 Z M 71.105469 0.0351562 " clip-rule="nonzero"/></clipPath><clipPath id="94fcc0265b"><path d="M 0.121094 0.0351562 L 141.878906 0.0351562 L 141.878906 142.289062 L 0.121094 142.289062 Z M 0.121094 0.0351562 " clip-rule="nonzero"/></clipPath><clipPath id="3649821703"><path d="M 71.25 0.0351562 C 31.96875 0.0351562 0.121094 31.878906 0.121094 71.160156 C 0.121094 110.445312 31.96875 142.289062 71.25 142.289062 C 110.53125 142.289062 142.378906 110.445312 142.378906 71.160156 C 142.378906 31.878906 110.53125 0.0351562 71.25 0.0351562 Z M 71.25 0.0351562 " clip-rule="nonzero"/></clipPath></defs><g clip-path="url(#85e5db4596)"><path fill="#ffffff" d="M 0.121094 0 L 142.378906 0 L 142.378906 143.003906 L 0.121094 143.003906 Z M 0.121094 0 " fill-opacity="1" fill-rule="nonzero"/></g><g clip-path="url(#04920f76dc)"><g clip-path="url(#47c83f5ed5)"><path fill="#ffffff" d="M 0.121094 0.0351562 L 142.089844 0.0351562 L 142.089844 142.480469 L 0.121094 142.480469 Z M 0.121094 0.0351562 " fill-opacity="1" fill-rule="nonzero"/></g></g><g clip-path="url(#94fcc0265b)"><g clip-path="url(#3649821703)"><path stroke-linecap="butt" transform="matrix(0.750254, 0, 0, 0.747728, 0.122851, 0.0333912)" fill="none" stroke-linejoin="miter" d="M 94.804089 0.0023605 C 42.446822 0.0023605 -0.00234191 42.589723 -0.00234191 95.123887 C -0.00234191 147.663277 42.446822 190.250639 94.804089 190.250639 C 147.161355 190.250639 189.610519 147.663277 189.610519 95.123887 C 189.610519 42.589723 147.161355 0.0023605 94.804089 0.0023605 Z M 94.804089 0.0023605 " stroke="#000000" stroke-width="12" stroke-opacity="1" stroke-miterlimit="4"/></g></g><g fill="#000000" fill-opacity="1"><g transform="translate(53.082742, 83.481338)"><g><path d="M 25 -22.265625 L 25 -35.828125 L 32.484375 -35.828125 L 32.484375 0 L 25 0 L 25 -16.0625 L 11.03125 -16.0625 L 11.03125 0 L 3.546875 0 L 3.546875 -35.828125 L 11.03125 -35.828125 L 11.03125 -22.265625 Z M 25 -22.265625 "/></g></g></g></svg>