<svg xmlns="http://www.w3.org/2000/svg" xmlns:xlink="http://www.w3.org/1999/xlink" width="391" zoomAndPan="magnify" viewBox="0 0 293.25 98.249997" height="131" preserveAspectRatio="xMidYMid meet" version="1.0"><defs><g/><clipPath id="da92b17229"><path d="M 0.738281 0 L 291.765625 0 L 291.765625 97.503906 L 0.738281 97.503906 Z M 0.738281 0 " clip-rule="nonzero"/></clipPath><clipPath id="ca869269c0"><path d="M 0.867188 0.507812 L 291.023438 0.507812 L 291.023438 97.425781 L 0.867188 97.425781 Z M 0.867188 0.507812 " clip-rule="nonzero"/></clipPath><clipPath id="f04c8ae1a1"><path d="M 17.242188 0.507812 L 274.648438 0.507812 C 283.691406 0.507812 291.023438 7.839844 291.023438 16.882812 L 291.023438 81.050781 C 291.023438 90.097656 283.691406 97.425781 274.648438 97.425781 L 17.242188 97.425781 C 8.199219 97.425781 0.867188 90.097656 0.867188 81.050781 L 0.867188 16.882812 C 0.867188 7.839844 8.199219 0.507812 17.242188 0.507812 Z M 17.242188 0.507812 " clip-rule="nonzero"/></clipPath><clipPath id="2a29897770"><path d="M 0.871094 0.507812 L 291.152344 0.507812 L 291.152344 97.269531 L 0.871094 97.269531 Z M 0.871094 0.507812 " clip-rule="nonzero"/></clipPath><clipPath id="137ace9ed5"><path d="M 17.253906 0.507812 L 274.765625 0.507812 C 283.816406 0.507812 291.148438 7.828125 291.148438 16.859375 L 291.148438 80.921875 C 291.148438 89.949219 283.816406 97.269531 274.765625 97.269531 L 17.253906 97.269531 C 8.207031 97.269531 0.871094 89.949219 0.871094 80.921875 L 0.871094 16.859375 C 0.871094 7.828125 8.207031 0.507812 17.253906 0.507812 Z M 17.253906 0.507812 " clip-rule="nonzero"/></clipPath><clipPath id="ec1bdff672"><path d="M 23.023438 11.507812 L 68.707031 11.507812 L 68.707031 57.167969 L 23.023438 57.167969 Z M 23.023438 11.507812 " clip-rule="nonzero"/></clipPath><clipPath id="805187208b"><path d="M 30.464844 11.507812 L 61.261719 11.507812 C 65.371094 11.507812 68.707031 14.839844 68.707031 18.949219 L 68.707031 49.726562 C 68.707031 53.835938 65.371094 57.167969 61.261719 57.167969 L 30.464844 57.167969 C 26.355469 57.167969 23.023438 53.835938 23.023438 49.726562 L 23.023438 18.949219 C 23.023438 14.839844 26.355469 11.507812 30.464844 11.507812 Z M 30.464844 11.507812 " clip-rule="nonzero"/></clipPath><clipPath id="fe4d61068c"><path d="M 23.023438 11.507812 L 68.425781 11.507812 L 68.425781 56.910156 L 23.023438 56.910156 Z M 23.023438 11.507812 " clip-rule="nonzero"/></clipPath><clipPath id="7328d8cc2c"><path d="M 30.421875 11.507812 L 61.027344 11.507812 C 65.113281 11.507812 68.425781 14.820312 68.425781 18.910156 L 68.425781 49.511719 C 68.425781 53.597656 65.113281 56.910156 61.027344 56.910156 L 30.421875 56.910156 C 26.335938 56.910156 23.023438 53.597656 23.023438 49.511719 L 23.023438 18.910156 C 23.023438 14.820312 26.335938 11.507812 30.421875 11.507812 Z M 30.421875 11.507812 " clip-rule="nonzero"/></clipPath><clipPath id="b6f32e0118"><path d="M 39.4375 27.910156 L 52.292969 27.910156 L 52.292969 40.765625 L 39.4375 40.765625 Z M 39.4375 27.910156 " clip-rule="nonzero"/></clipPath><clipPath id="1ddd48c526"><path d="M 45.863281 27.910156 C 42.3125 27.910156 39.4375 30.789062 39.4375 34.339844 C 39.4375 37.890625 42.3125 40.765625 45.863281 40.765625 C 49.414062 40.765625 52.292969 37.890625 52.292969 34.339844 C 52.292969 30.789062 49.414062 27.910156 45.863281 27.910156 Z M 45.863281 27.910156 " clip-rule="nonzero"/></clipPath><clipPath id="f090055e94"><path d="M 52.292969 40.765625 L 97.976562 40.765625 L 97.976562 86.429688 L 52.292969 86.429688 Z M 52.292969 40.765625 " clip-rule="nonzero"/></clipPath><clipPath id="2eb0ace7b4"><path d="M 59.734375 40.765625 L 90.53125 40.765625 C 94.640625 40.765625 97.976562 44.097656 97.976562 48.210938 L 97.976562 78.984375 C 97.976562 83.097656 94.640625 86.429688 90.53125 86.429688 L 59.734375 86.429688 C 55.625 86.429688 52.292969 83.097656 52.292969 78.984375 L 52.292969 48.210938 C 52.292969 44.097656 55.625 40.765625 59.734375 40.765625 Z M 59.734375 40.765625 " clip-rule="nonzero"/></clipPath><clipPath id="f5c2112659"><path d="M 52.292969 40.765625 L 97.695312 40.765625 L 97.695312 86.171875 L 52.292969 86.171875 Z M 52.292969 40.765625 " clip-rule="nonzero"/></clipPath><clipPath id="a121242e2b"><path d="M 59.691406 40.765625 L 90.296875 40.765625 C 94.382812 40.765625 97.695312 44.082031 97.695312 48.167969 L 97.695312 78.769531 C 97.695312 82.855469 94.382812 86.171875 90.296875 86.171875 L 59.691406 86.171875 C 55.605469 86.171875 52.292969 82.855469 52.292969 78.769531 L 52.292969 48.167969 C 52.292969 44.082031 55.605469 40.765625 59.691406 40.765625 Z M 59.691406 40.765625 " clip-rule="nonzero"/></clipPath><clipPath id="4403e07555"><path d="M 62.277344 50.742188 L 75.132812 50.742188 L 75.132812 63.597656 L 62.277344 63.597656 Z M 62.277344 50.742188 " clip-rule="nonzero"/></clipPath><clipPath id="520b7c2232"><path d="M 68.707031 50.742188 C 65.15625 50.742188 62.277344 53.621094 62.277344 57.167969 C 62.277344 60.71875 65.15625 63.597656 68.707031 63.597656 C 72.253906 63.597656 75.132812 60.71875 75.132812 57.167969 C 75.132812 53.621094 72.253906 50.742188 68.707031 50.742188 Z M 68.707031 50.742188 " clip-rule="nonzero"/></clipPath><clipPath id="abd59a4837"><path d="M 75.132812 63.597656 L 87.988281 63.597656 L 87.988281 76.453125 L 75.132812 76.453125 Z M 75.132812 63.597656 " clip-rule="nonzero"/></clipPath><clipPath id="f5d00d3b57"><path d="M 81.5625 63.597656 C 78.011719 63.597656 75.132812 66.476562 75.132812 70.027344 C 75.132812 73.574219 78.011719 76.453125 81.5625 76.453125 C 85.113281 76.453125 87.988281 73.574219 87.988281 70.027344 C 87.988281 66.476562 85.113281 63.597656 81.5625 63.597656 Z M 81.5625 63.597656 " clip-rule="nonzero"/></clipPath></defs><g clip-path="url(#da92b17229)"><path fill="#ffffff" d="M 0.738281 0 L 291.765625 0 L 291.765625 97.503906 L 0.738281 97.503906 Z M 0.738281 0 " fill-opacity="1" fill-rule="nonzero"/></g><g clip-path="url(#ca869269c0)"><g clip-path="url(#f04c8ae1a1)"><path fill="#ffffff" d="M 0.867188 0.507812 L 291.023438 0.507812 L 291.023438 97.425781 L 0.867188 97.425781 Z M 0.867188 0.507812 " fill-opacity="1" fill-rule="nonzero"/></g></g><g clip-path="url(#2a29897770)"><g clip-path="url(#137ace9ed5)"><path stroke-linecap="butt" transform="matrix(0.744676, 0, 0, 0.743157, 0.871869, 0.509252)" fill="none" stroke-linejoin="miter" d="M 21.998874 -0.00193702 L 367.802502 -0.00193702 C 379.956485 -0.00193702 389.802417 9.848355 389.802417 22.000903 L 389.802417 108.2041 C 389.802417 120.351392 379.956485 130.201684 367.802502 130.201684 L 21.998874 130.201684 C 9.850137 130.201684 -0.00104099 120.351392 -0.00104099 108.2041 L -0.00104099 22.000903 C -0.00104099 9.848355 9.850137 -0.00193702 21.998874 -0.00193702 Z M 21.998874 -0.00193702 " stroke="#000000" stroke-width="12" stroke-opacity="1" stroke-miterlimit="4"/></g></g><g fill="#000000" fill-opacity="1"><g transform="translate(114.480163, 55.667148)"><g><path d="M 19.796875 -15.328125 C 19.796875 -14.117188 19.503906 -13.054688 18.921875 -12.140625 C 18.347656 -11.234375 17.535156 -10.597656 16.484375 -10.234375 L 17.203125 -9.875 C 18.015625 -9.445312 18.550781 -8.832031 18.8125 -8.03125 C 19.070312 -7.238281 19.203125 -6.25 19.203125 -5.0625 L 19.203125 -3.0625 C 19.203125 -1.550781 19.519531 -0.71875 20.15625 -0.5625 L 20.15625 0 L 15.203125 0 C 15.085938 -0.351562 14.984375 -0.816406 14.890625 -1.390625 C 14.804688 -1.972656 14.765625 -2.519531 14.765625 -3.03125 L 14.734375 -5.359375 C 14.734375 -6.273438 14.570312 -6.941406 14.25 -7.359375 C 13.9375 -7.785156 13.539062 -8.054688 13.0625 -8.171875 C 12.59375 -8.296875 11.976562 -8.359375 11.21875 -8.359375 L 6.640625 -8.359375 L 6.640625 0 L 2.265625 0 L 2.265625 -21.375 L 13.3125 -21.375 C 14.632812 -21.375 15.785156 -21.09375 16.765625 -20.53125 C 17.753906 -19.976562 18.503906 -19.242188 19.015625 -18.328125 C 19.535156 -17.421875 19.796875 -16.421875 19.796875 -15.328125 Z M 15.328125 -14.875 C 15.328125 -15.726562 15.050781 -16.410156 14.5 -16.921875 C 13.957031 -17.429688 13.234375 -17.6875 12.328125 -17.6875 L 6.640625 -17.6875 L 6.640625 -11.96875 L 12 -11.96875 C 13.101562 -11.96875 13.929688 -12.191406 14.484375 -12.640625 C 15.046875 -13.085938 15.328125 -13.832031 15.328125 -14.875 Z M 15.328125 -14.875 "/></g></g></g><g fill="#000000" fill-opacity="1"><g transform="translate(135.976051, 55.667148)"><g><path d="M 17.203125 -7.921875 C 17.203125 -6.210938 16.863281 -4.734375 16.1875 -3.484375 C 15.519531 -2.234375 14.566406 -1.269531 13.328125 -0.59375 C 12.097656 0.0820312 10.691406 0.421875 9.109375 0.421875 C 7.523438 0.421875 6.113281 0.0820312 4.875 -0.59375 C 3.644531 -1.269531 2.691406 -2.234375 2.015625 -3.484375 C 1.347656 -4.734375 1.015625 -6.210938 1.015625 -7.921875 C 1.015625 -9.628906 1.351562 -11.109375 2.03125 -12.359375 C 2.71875 -13.617188 3.675781 -14.582031 4.90625 -15.25 C 6.132812 -15.914062 7.535156 -16.25 9.109375 -16.25 C 10.691406 -16.25 12.097656 -15.910156 13.328125 -15.234375 C 14.566406 -14.566406 15.519531 -13.609375 16.1875 -12.359375 C 16.863281 -11.109375 17.203125 -9.628906 17.203125 -7.921875 Z M 9.109375 -3.09375 C 10.378906 -3.09375 11.332031 -3.515625 11.96875 -4.359375 C 12.601562 -5.203125 12.921875 -6.390625 12.921875 -7.921875 C 12.921875 -9.441406 12.597656 -10.625 11.953125 -11.46875 C 11.304688 -12.3125 10.347656 -12.734375 9.078125 -12.734375 C 7.867188 -12.734375 6.9375 -12.316406 6.28125 -11.484375 C 5.625 -10.648438 5.296875 -9.460938 5.296875 -7.921875 C 5.296875 -6.347656 5.617188 -5.148438 6.265625 -4.328125 C 6.910156 -3.503906 7.859375 -3.09375 9.109375 -3.09375 Z M 9.109375 -3.09375 "/></g></g></g><g fill="#000000" fill-opacity="1"><g transform="translate(154.167165, 55.667148)"><g><path d="M 2.046875 0 L 2.046875 -21.375 L 6.21875 -21.375 L 6.21875 0 Z M 2.046875 0 "/></g></g></g><g fill="#000000" fill-opacity="1"><g transform="translate(162.443979, 55.667148)"><g><path d="M 2.046875 0 L 2.046875 -21.375 L 6.21875 -21.375 L 6.21875 0 Z M 2.046875 0 "/></g></g></g><g fill="#000000" fill-opacity="1"><g transform="translate(170.720793, 55.667148)"><g/></g></g><g fill="#000000" fill-opacity="1"><g transform="translate(178.997607, 55.667148)"><g><path d="M 15.6875 -0.625 L 15.6875 0 L 11.1875 0 C 10.945312 -0.695312 10.820312 -1.320312 10.8125 -1.875 C 10.050781 -1.0625 9.265625 -0.472656 8.453125 -0.109375 C 7.640625 0.242188 6.71875 0.421875 5.6875 0.421875 C 4.238281 0.421875 3.070312 0.00390625 2.1875 -0.828125 C 1.300781 -1.660156 0.859375 -2.785156 0.859375 -4.203125 C 0.859375 -5.523438 1.21875 -6.628906 1.9375 -7.515625 C 2.664062 -8.398438 3.960938 -9 5.828125 -9.3125 L 8.8125 -9.765625 C 9.5625 -9.878906 10.0625 -10.023438 10.3125 -10.203125 C 10.5625 -10.390625 10.6875 -10.691406 10.6875 -11.109375 C 10.6875 -11.703125 10.472656 -12.148438 10.046875 -12.453125 C 9.617188 -12.765625 8.921875 -12.921875 7.953125 -12.921875 C 6.378906 -12.921875 5.523438 -12.1875 5.390625 -10.71875 L 1.375 -10.71875 C 1.53125 -12.519531 2.140625 -13.890625 3.203125 -14.828125 C 4.265625 -15.773438 5.972656 -16.25 8.328125 -16.25 C 10.359375 -16.25 11.9375 -15.851562 13.0625 -15.0625 C 14.195312 -14.269531 14.765625 -13.175781 14.765625 -11.78125 L 14.765625 -2.953125 C 14.765625 -2.210938 14.835938 -1.664062 14.984375 -1.3125 C 15.128906 -0.96875 15.363281 -0.738281 15.6875 -0.625 Z M 10.6875 -5.75 L 10.6875 -7.703125 C 10.332031 -7.484375 9.945312 -7.3125 9.53125 -7.1875 C 9.113281 -7.0625 8.503906 -6.9375 7.703125 -6.8125 C 6.816406 -6.695312 6.148438 -6.453125 5.703125 -6.078125 C 5.253906 -5.710938 5.03125 -5.175781 5.03125 -4.46875 C 5.03125 -3.894531 5.207031 -3.429688 5.5625 -3.078125 C 5.925781 -2.734375 6.394531 -2.5625 6.96875 -2.5625 C 7.582031 -2.5625 8.175781 -2.691406 8.75 -2.953125 C 9.320312 -3.222656 9.785156 -3.601562 10.140625 -4.09375 C 10.503906 -4.582031 10.6875 -5.132812 10.6875 -5.75 Z M 10.6875 -5.75 "/></g></g></g><g fill="#000000" fill-opacity="1"><g transform="translate(195.551223, 55.667148)"><g/></g></g><g fill="#000000" fill-opacity="1"><g transform="translate(203.828037, 55.667148)"><g><path d="M 20.390625 -11.1875 C 20.390625 -8.863281 20.019531 -6.859375 19.28125 -5.171875 C 18.550781 -3.492188 17.523438 -2.210938 16.203125 -1.328125 C 14.890625 -0.441406 13.378906 0 11.671875 0 L 2.265625 0 L 2.265625 -21.375 L 11.84375 -21.375 C 13.726562 -21.375 15.3125 -20.929688 16.59375 -20.046875 C 17.875 -19.160156 18.828125 -17.953125 19.453125 -16.421875 C 20.078125 -14.898438 20.390625 -13.15625 20.390625 -11.1875 Z M 15.828125 -10.890625 C 15.828125 -15.421875 14.253906 -17.6875 11.109375 -17.6875 L 6.640625 -17.6875 L 6.640625 -3.6875 L 11.078125 -3.6875 C 12.546875 -3.6875 13.703125 -4.332031 14.546875 -5.625 C 15.398438 -6.914062 15.828125 -8.671875 15.828125 -10.890625 Z M 15.828125 -10.890625 "/></g></g></g><g fill="#000000" fill-opacity="1"><g transform="translate(225.323926, 55.667148)"><g><path d="M 2.046875 -17.703125 L 2.046875 -21.578125 L 6.21875 -21.578125 L 6.21875 -17.703125 Z M 2.046875 0 L 2.046875 -15.828125 L 6.21875 -15.828125 L 6.21875 0 Z M 2.046875 0 "/></g></g></g><g fill="#000000" fill-opacity="1"><g transform="translate(233.600739, 55.667148)"><g><path d="M 8.6875 -12.734375 C 7.582031 -12.734375 6.738281 -12.316406 6.15625 -11.484375 C 5.582031 -10.648438 5.296875 -9.460938 5.296875 -7.921875 C 5.296875 -6.109375 5.582031 -4.832031 6.15625 -4.09375 C 6.738281 -3.363281 7.523438 -3 8.515625 -3 C 9.285156 -3 9.925781 -3.257812 10.4375 -3.78125 C 10.957031 -4.3125 11.257812 -4.976562 11.34375 -5.78125 L 15.5625 -5.78125 C 15.3125 -3.945312 14.566406 -2.453125 13.328125 -1.296875 C 12.097656 -0.148438 10.429688 0.421875 8.328125 0.421875 C 5.953125 0.421875 4.140625 -0.285156 2.890625 -1.703125 C 1.640625 -3.128906 1.015625 -5.050781 1.015625 -7.46875 C 1.015625 -10.3125 1.664062 -12.484375 2.96875 -13.984375 C 4.28125 -15.492188 6.160156 -16.25 8.609375 -16.25 C 9.867188 -16.25 11.015625 -16.007812 12.046875 -15.53125 C 13.085938 -15.0625 13.921875 -14.363281 14.546875 -13.4375 C 15.171875 -12.519531 15.519531 -11.4375 15.59375 -10.1875 L 11.375 -10.1875 C 11.25 -10.957031 10.960938 -11.570312 10.515625 -12.03125 C 10.078125 -12.5 9.46875 -12.734375 8.6875 -12.734375 Z M 8.6875 -12.734375 "/></g></g></g><g fill="#000000" fill-opacity="1"><g transform="translate(250.154356, 55.667148)"><g><path d="M 8.578125 -2.921875 C 9.191406 -2.921875 9.75 -3.066406 10.25 -3.359375 C 10.757812 -3.660156 11.09375 -4.085938 11.25 -4.640625 L 15.53125 -4.640625 C 15.082031 -3.035156 14.238281 -1.789062 13 -0.90625 C 11.769531 -0.0195312 10.296875 0.421875 8.578125 0.421875 C 5.953125 0.421875 3.976562 -0.300781 2.65625 -1.75 C 1.34375 -3.195312 0.6875 -5.351562 0.6875 -8.21875 C 0.6875 -9.78125 0.976562 -11.164062 1.5625 -12.375 C 2.144531 -13.59375 3 -14.539062 4.125 -15.21875 C 5.257812 -15.90625 6.632812 -16.25 8.25 -16.25 C 10.507812 -16.25 12.316406 -15.523438 13.671875 -14.078125 C 15.035156 -12.628906 15.71875 -10.4375 15.71875 -7.5 L 15.71875 -6.78125 L 4.859375 -6.78125 C 4.992188 -4.207031 6.234375 -2.921875 8.578125 -2.921875 Z M 8.1875 -12.828125 C 6.28125 -12.828125 5.207031 -11.71875 4.96875 -9.5 L 11.4375 -9.5 C 11.332031 -10.53125 10.992188 -11.34375 10.421875 -11.9375 C 9.847656 -12.53125 9.101562 -12.828125 8.1875 -12.828125 Z M 8.1875 -12.828125 "/></g></g></g><g clip-path="url(#ec1bdff672)"><g clip-path="url(#805187208b)"><path fill="#ffffff" d="M 23.023438 11.507812 L 68.707031 11.507812 L 68.707031 57.167969 L 23.023438 57.167969 Z M 23.023438 11.507812 " fill-opacity="1" fill-rule="nonzero"/></g></g><g clip-path="url(#fe4d61068c)"><g clip-path="url(#7328d8cc2c)"><path stroke-linecap="butt" transform="matrix(0.73977, 0, 0, 0.740147, 23.022957, 11.507977)" fill="none" stroke-linejoin="miter" d="M 10.001641 -0.000222106 L 51.373219 -0.000222106 C 56.89647 -0.000222106 61.37421 4.475239 61.37421 10.000955 L 61.37421 51.346192 C 61.37421 56.866631 56.89647 61.342092 51.373219 61.342092 L 10.001641 61.342092 C 4.47839 61.342092 0.000649803 56.866631 0.000649803 51.346192 L 0.000649803 10.000955 C 0.000649803 4.475239 4.47839 -0.000222106 10.001641 -0.000222106 Z M 10.001641 -0.000222106 " stroke="#000000" stroke-width="12" stroke-opacity="1" stroke-miterlimit="4"/></g></g><g clip-path="url(#b6f32e0118)"><g clip-path="url(#1ddd48c526)"><path fill="#000000" d="M 39.4375 27.910156 L 52.292969 27.910156 L 52.292969 40.765625 L 39.4375 40.765625 Z M 39.4375 27.910156 " fill-opacity="1" fill-rule="nonzero"/></g></g><g fill="#000000" fill-opacity="1"><g transform="translate(45.064453, 34.609577)"><g><path d="M 0.109375 0 L 0.109375 -0.34375 L 0.625 -0.34375 L 0.625 -1.671875 L 0.59375 -1.6875 C 0.519531 -1.644531 0.445312 -1.613281 0.375 -1.59375 C 0.300781 -1.570312 0.222656 -1.554688 0.140625 -1.546875 L 0.140625 -1.90625 C 0.367188 -1.957031 0.554688 -2.03125 0.703125 -2.125 L 1.046875 -2.125 L 1.046875 -0.34375 L 1.5 -0.34375 L 1.5 0 Z M 0.109375 0 "/></g></g></g><g clip-path="url(#f090055e94)"><g clip-path="url(#2eb0ace7b4)"><path fill="#ffffff" d="M 52.292969 40.765625 L 97.976562 40.765625 L 97.976562 86.429688 L 52.292969 86.429688 Z M 52.292969 40.765625 " fill-opacity="1" fill-rule="nonzero"/></g></g><g clip-path="url(#f5c2112659)"><g clip-path="url(#a121242e2b)"><path stroke-linecap="butt" transform="matrix(0.73977, 0, 0, 0.740147, 52.292632, 40.766914)" fill="none" stroke-linejoin="miter" d="M 10.001447 -0.00174103 L 51.373024 -0.00174103 C 56.896275 -0.00174103 61.374016 4.478998 61.374016 9.999436 L 61.374016 51.344673 C 61.374016 56.865112 56.896275 61.34585 51.373024 61.34585 L 10.001447 61.34585 C 4.478196 61.34585 0.000455276 56.865112 0.000455276 51.344673 L 0.000455276 9.999436 C 0.000455276 4.478998 4.478196 -0.00174103 10.001447 -0.00174103 Z M 10.001447 -0.00174103 " stroke="#000000" stroke-width="12" stroke-opacity="1" stroke-miterlimit="4"/></g></g><g clip-path="url(#4403e07555)"><g clip-path="url(#520b7c2232)"><path fill="#000000" d="M 62.277344 50.742188 L 75.132812 50.742188 L 75.132812 63.597656 L 62.277344 63.597656 Z M 62.277344 50.742188 " fill-opacity="1" fill-rule="nonzero"/></g></g><g fill="#000000" fill-opacity="1"><g transform="translate(67.906033, 57.440419)"><g><path d="M 0.109375 0 L 0.109375 -0.34375 L 0.625 -0.34375 L 0.625 -1.671875 L 0.59375 -1.6875 C 0.519531 -1.644531 0.445312 -1.613281 0.375 -1.59375 C 0.300781 -1.570312 0.222656 -1.554688 0.140625 -1.546875 L 0.140625 -1.90625 C 0.367188 -1.957031 0.554688 -2.03125 0.703125 -2.125 L 1.046875 -2.125 L 1.046875 -0.34375 L 1.5 -0.34375 L 1.5 0 Z M 0.109375 0 "/></g></g></g><g clip-path="url(#abd59a4837)"><g clip-path="url(#f5d00d3b57)"><path fill="#000000" d="M 75.132812 63.597656 L 87.988281 63.597656 L 87.988281 76.453125 L 75.132812 76.453125 Z M 75.132812 63.597656 " fill-opacity="1" fill-rule="nonzero"/></g></g><g fill="#000000" fill-opacity="1"><g transform="translate(80.762232, 70.296617)"><g><path d="M 0.109375 0 L 0.109375 -0.34375 L 0.625 -0.34375 L 0.625 -1.671875 L 0.59375 -1.6875 C 0.519531 -1.644531 0.445312 -1.613281 0.375 -1.59375 C 0.300781 -1.570312 0.222656 -1.554688 0.140625 -1.546875 L 0.140625 -1.90625 C 0.367188 -1.957031 0.554688 -2.03125 0.703125 -2.125 L 1.046875 -2.125 L 1.046875 -0.34375 L 1.5 -0.34375 L 1.5 0 Z M 0.109375 0 "/></g></g></g></svg>