<svg xmlns="http://www.w3.org/2000/svg" xmlns:xlink="http://www.w3.org/1999/xlink" width="190" zoomAndPan="magnify" viewBox="0 0 142.5 143.249994" height="191" preserveAspectRatio="xMidYMid meet" version="1.0"><defs><g/><clipPath id="f28b3745eb"><path d="M 0.121094 0 L 141.878906 0 L 141.878906 142.503906 L 0.121094 142.503906 Z M 0.121094 0 " clip-rule="nonzero"/></clipPath><clipPath id="78ecff45fe"><path d="M 0.121094 0.0351562 L 141.878906 0.0351562 L 141.878906 142.480469 L 0.121094 142.480469 Z M 0.121094 0.0351562 " clip-rule="nonzero"/></clipPath><clipPath id="df8ed7c2c0"><path d="M 71.105469 0.0351562 C 31.902344 0.0351562 0.121094 31.921875 0.121094 71.257812 C 0.121094 110.59375 31.902344 142.480469 71.105469 142.480469 C 110.308594 142.480469 142.089844 110.59375 142.089844 71.257812 C 142.089844 31.921875 110.308594 0.0351562 71.105469 0.0351562 Z M 71.105469 0.0351562 " clip-rule="nonzero"/></clipPath><clipPath id="0c8e8ba6e8"><path d="M 0.121094 0.0351562 L 141.878906 0.0351562 L 141.878906 142.289062 L 0.121094 142.289062 Z M 0.121094 0.0351562 " clip-rule="nonzero"/></clipPath><clipPath id="10aade0fb7"><path d="M 71.25 0.0351562 C 31.96875 0.0351562 0.121094 31.878906 0.121094 71.160156 C 0.121094 110.445312 31.96875 142.289062 71.25 142.289062 C 110.53125 142.289062 142.378906 110.445312 142.378906 71.160156 C 142.378906 31.878906 110.53125 0.0351562 71.25 0.0351562 Z M 71.25 0.0351562 " clip-rule="nonzero"/></clipPath></defs><g clip-path="url(#f28b3745eb)"><path fill="#ffffff" d="M 0.121094 0 L 142.378906 0 L 142.378906 143.003906 L 0.121094 143.003906 Z M 0.121094 0 " fill-opacity="1" fill-rule="nonzero"/></g><g clip-path="url(#78ecff45fe)"><g clip-path="url(#df8ed7c2c0)"><path fill="#ffffff" d="M 0.121094 0.0351562 L 142.089844 0.0351562 L 142.089844 142.480469 L 0.121094 142.480469 Z M 0.121094 0.0351562 " fill-opacity="1" fill-rule="nonzero"/></g></g><g clip-path="url(#0c8e8ba6e8)"><g clip-path="url(#10aade0fb7)"><path stroke-linecap="butt" transform="matrix(0.750254, 0, 0, 0.747728, 0.122851, 0.0333912)" fill="none" stroke-linejoin="miter" d="M 94.804089 0.0023605 C 42.446822 0.0023605 -0.00234191 42.589723 -0.00234191 95.123887 C -0.00234191 147.663277 42.446822 190.250639 94.804089 190.250639 C 147.161355 190.250639 189.610519 147.663277 189.610519 95.123887 C 189.610519 42.589723 147.161355 0.0023605 94.804089 0.0023605 Z M 94.804089 0.0023605 " stroke="#000000" stroke-width="12" stroke-opacity="1" stroke-miterlimit="4"/></g></g><g fill="#000000" fill-opacity="1"><g transform="translate(55.855315, 83.481338)"><g><path d="M 19.015625 -29.5 L 19.015625 0 L 11.53125 0 L 11.53125 -29.5 L 0.703125 -29.5 L 0.703125 -35.828125 L 29.84375 -35.828125 L 29.84375 -29.5 Z M 19.015625 -29.5 "/></g></g></g></svg>